<?xml version="1.0" encoding="UTF-8"?>
<svg xmlns="http://www.w3.org/2000/svg" viewBox="0 0 1452 1707" width="1452" height="1707">
<defs>
<pattern id="hatch" width="6" height="6" patternTransform="rotate(45)" patternUnits="userSpaceOnUse">
<line x1="0" y1="0" x2="0" y2="6" stroke="#e44" stroke-width="1.5" opacity="0.35"/>
</pattern>
</defs>
<style>
  .room      { fill: #fafafa; stroke: #333; stroke-width: 3; }
  .area      { fill: none; stroke: #999; stroke-width: 1.5; stroke-dasharray: 8,4; }
  .board     { fill: #e8d5b0; stroke: #b8945c; stroke-width: 1; }
  .cut-full  { fill: none; stroke: #bbb; stroke-width: 0.8; stroke-dasharray: 3,3; }
  .cut-used  { fill: #d4b896; stroke: #c44; stroke-width: 2; }
  .cut-hatch { fill: url(#hatch); stroke: none; }
  .edge-t    { fill: none; stroke: #4a8; stroke-width: 2; }
  .edge-g    { fill: none; stroke: #c84; stroke-width: 2; stroke-dasharray: 5,3; }
  .edge-cut  { fill: none; stroke: #e44; stroke-width: 2.5; }
  .dim       { fill: #666; font-size: 11px; font-family: sans-serif; text-anchor: middle; }
  .lbl       { fill: #333; font-size: 9px; font-family: sans-serif; text-anchor: middle; dominant-baseline: central; }
  .lbl-cut   { fill: #c00; font-size: 9px; font-family: sans-serif; text-anchor: middle; dominant-baseline: central; font-weight: bold; }
  .lbl-bg    { fill: #fff; fill-opacity: 0.8; }
  .legend    { fill: #fff; stroke: #ccc; stroke-width: 1; }
  .legend-t  { font-size: 10px; font-family: sans-serif; fill: #333; }
</style>
<g transform="translate(126.1,1580.7) scale(0.4202,-0.4202)">
<polygon points="10.0,10.0 10.0,3452.0 2846.0,3452.0 2846.0,10.0 10.0,10.0" class="area"/>
<polygon points="0.0,0.0 2856.0,0.0 2856.0,3462.0 0.0,3462.0 0.0,0.0" class="room"/>
<rect x="1919.5" y="2913.0" width="910.0" height="148.0" transform="rotate(45,2374.5,2987.0)" class="board"/>
<line x1="2105.1" y1="2613.0" x2="2748.5" y2="3256.4" class="edge-t"/>
<line x1="2000.4" y1="2717.6" x2="2643.9" y2="3361.1" class="edge-g"/>
<rect x="-10.9" y="354.7" width="910.0" height="148.0" transform="rotate(45,444.1,428.7)" class="board"/>
<line x1="174.7" y1="54.7" x2="818.1" y2="698.1" class="edge-t"/>
<line x1="70.0" y1="159.3" x2="713.5" y2="802.8" class="edge-g"/>
<rect x="151.7" y="940.2" width="910.0" height="148.0" transform="rotate(315,606.7,1014.2)" class="board"/>
<line x1="232.6" y1="1283.6" x2="876.1" y2="640.1" class="edge-t"/>
<line x1="337.3" y1="1388.3" x2="980.8" y2="744.8" class="edge-g"/>
<rect x="1469.7" y="370.3" width="910.0" height="148.0" transform="rotate(45,1924.7,444.3)" class="board"/>
<line x1="1655.3" y1="70.2" x2="2298.8" y2="713.7" class="edge-t"/>
<line x1="1550.7" y1="174.9" x2="2194.2" y2="818.3" class="edge-g"/>
<rect x="1365.1" y="474.9" width="910.0" height="148.0" transform="rotate(45,1820.1,548.9)" class="board"/>
<line x1="1550.7" y1="174.9" x2="2194.2" y2="818.3" class="edge-t"/>
<line x1="1446.0" y1="279.5" x2="2089.5" y2="923.0" class="edge-g"/>
<rect x="1260.4" y="579.6" width="910.0" height="148.0" transform="rotate(45,1715.4,653.6)" class="board"/>
<line x1="1446.0" y1="279.5" x2="2089.5" y2="923.0" class="edge-t"/>
<line x1="1341.4" y1="384.2" x2="1984.8" y2="1027.6" class="edge-g"/>
<rect x="1155.8" y="684.2" width="910.0" height="148.0" transform="rotate(45,1610.8,758.2)" class="board"/>
<line x1="1341.4" y1="384.2" x2="1984.8" y2="1027.6" class="edge-t"/>
<line x1="1236.7" y1="488.8" x2="1880.2" y2="1132.3" class="edge-g"/>
<rect x="1051.1" y="788.9" width="910.0" height="148.0" transform="rotate(45,1506.1,862.9)" class="board"/>
<line x1="1236.7" y1="488.8" x2="1880.2" y2="1132.3" class="edge-t"/>
<line x1="1132.1" y1="593.5" x2="1775.5" y2="1236.9" class="edge-g"/>
<rect x="946.5" y="893.5" width="910.0" height="148.0" transform="rotate(45,1401.5,967.5)" class="board"/>
<line x1="1132.1" y1="593.5" x2="1775.5" y2="1236.9" class="edge-t"/>
<line x1="1027.4" y1="698.1" x2="1670.9" y2="1341.6" class="edge-g"/>
<rect x="841.8" y="998.2" width="910.0" height="148.0" transform="rotate(45,1296.8,1072.2)" class="board"/>
<line x1="1027.4" y1="698.1" x2="1670.9" y2="1341.6" class="edge-t"/>
<line x1="922.8" y1="802.8" x2="1566.2" y2="1446.2" class="edge-g"/>
<rect x="737.2" y="1102.8" width="910.0" height="148.0" transform="rotate(45,1192.2,1176.8)" class="board"/>
<line x1="922.8" y1="802.8" x2="1566.2" y2="1446.2" class="edge-t"/>
<line x1="818.1" y1="907.4" x2="1461.6" y2="1550.9" class="edge-g"/>
<rect x="632.5" y="1207.5" width="910.0" height="148.0" transform="rotate(45,1087.5,1281.5)" class="board"/>
<line x1="818.1" y1="907.4" x2="1461.6" y2="1550.9" class="edge-t"/>
<line x1="713.5" y1="1012.1" x2="1356.9" y2="1655.5" class="edge-g"/>
<rect x="527.9" y="1312.1" width="910.0" height="148.0" transform="rotate(45,982.9,1386.1)" class="board"/>
<line x1="713.5" y1="1012.1" x2="1356.9" y2="1655.5" class="edge-t"/>
<line x1="608.8" y1="1116.7" x2="1252.3" y2="1760.2" class="edge-g"/>
<rect x="423.2" y="1416.8" width="910.0" height="148.0" transform="rotate(45,878.2,1490.8)" class="board"/>
<line x1="608.8" y1="1116.7" x2="1252.3" y2="1760.2" class="edge-t"/>
<line x1="504.2" y1="1221.4" x2="1147.6" y2="1864.8" class="edge-g"/>
<rect x="318.6" y="1521.4" width="910.0" height="148.0" transform="rotate(45,773.6,1595.4)" class="board"/>
<line x1="504.2" y1="1221.4" x2="1147.6" y2="1864.8" class="edge-t"/>
<line x1="399.5" y1="1326.0" x2="1043.0" y2="1969.5" class="edge-g"/>
<rect x="213.9" y="1626.1" width="910.0" height="148.0" transform="rotate(45,668.9,1700.1)" class="board"/>
<line x1="399.5" y1="1326.0" x2="1043.0" y2="1969.5" class="edge-t"/>
<line x1="294.9" y1="1430.7" x2="938.3" y2="2074.1" class="edge-g"/>
<rect x="109.3" y="1730.7" width="910.0" height="148.0" transform="rotate(45,564.3,1804.7)" class="board"/>
<line x1="294.9" y1="1430.7" x2="938.3" y2="2074.1" class="edge-t"/>
<line x1="190.2" y1="1535.3" x2="833.7" y2="2178.8" class="edge-g"/>
<rect x="4.6" y="1835.4" width="910.0" height="148.0" transform="rotate(45,459.6,1909.4)" class="board"/>
<line x1="190.2" y1="1535.3" x2="833.7" y2="2178.8" class="edge-t"/>
<line x1="85.6" y1="1640.0" x2="729.0" y2="2283.5" class="edge-g"/>
<rect x="1543.3" y="1044.8" width="910.0" height="148.0" transform="rotate(315,1998.3,1118.8)" class="board"/>
<line x1="1624.2" y1="1388.3" x2="2267.7" y2="744.8" class="edge-t"/>
<line x1="1728.9" y1="1492.9" x2="2372.3" y2="849.4" class="edge-g"/>
<rect x="899.8" y="1688.3" width="910.0" height="148.0" transform="rotate(315,1354.8,1762.3)" class="board"/>
<line x1="980.8" y1="2031.7" x2="1624.2" y2="1388.3" class="edge-t"/>
<line x1="1085.4" y1="2136.4" x2="1728.9" y2="1492.9" class="edge-g"/>
<rect x="256.3" y="2331.8" width="910.0" height="148.0" transform="rotate(315,711.3,2405.8)" class="board"/>
<line x1="337.3" y1="2675.2" x2="980.8" y2="2031.7" class="edge-t"/>
<line x1="441.9" y1="2779.8" x2="1085.4" y2="2136.4" class="edge-g"/>
<rect x="2008.6" y="1327.7" width="910.0" height="148.0" transform="rotate(45,2463.6,1401.7)" class="board"/>
<line x1="2194.2" y1="1027.6" x2="2837.6" y2="1671.1" class="edge-t"/>
<line x1="2089.5" y1="1132.3" x2="2733.0" y2="1775.7" class="edge-g"/>
<rect x="1903.9" y="1432.3" width="910.0" height="148.0" transform="rotate(45,2358.9,1506.3)" class="board"/>
<line x1="2089.5" y1="1132.3" x2="2733.0" y2="1775.7" class="edge-t"/>
<line x1="1984.8" y1="1236.9" x2="2628.3" y2="1880.4" class="edge-g"/>
<rect x="1799.3" y="1537.0" width="910.0" height="148.0" transform="rotate(45,2254.3,1611.0)" class="board"/>
<line x1="1984.8" y1="1236.9" x2="2628.3" y2="1880.4" class="edge-t"/>
<line x1="1880.2" y1="1341.6" x2="2523.7" y2="1985.1" class="edge-g"/>
<rect x="1694.6" y="1641.6" width="910.0" height="148.0" transform="rotate(45,2149.6,1715.6)" class="board"/>
<line x1="1880.2" y1="1341.6" x2="2523.7" y2="1985.1" class="edge-t"/>
<line x1="1775.5" y1="1446.2" x2="2419.0" y2="2089.7" class="edge-g"/>
<rect x="1590.0" y="1746.3" width="910.0" height="148.0" transform="rotate(45,2045.0,1820.3)" class="board"/>
<line x1="1775.5" y1="1446.2" x2="2419.0" y2="2089.7" class="edge-t"/>
<line x1="1670.9" y1="1550.9" x2="2314.4" y2="2194.4" class="edge-g"/>
<rect x="1485.3" y="1850.9" width="910.0" height="148.0" transform="rotate(45,1940.3,1924.9)" class="board"/>
<line x1="1670.9" y1="1550.9" x2="2314.4" y2="2194.4" class="edge-t"/>
<line x1="1566.2" y1="1655.5" x2="2209.7" y2="2299.0" class="edge-g"/>
<rect x="1380.6" y="1955.6" width="910.0" height="148.0" transform="rotate(45,1835.6,2029.6)" class="board"/>
<line x1="1566.2" y1="1655.5" x2="2209.7" y2="2299.0" class="edge-t"/>
<line x1="1461.6" y1="1760.2" x2="2105.1" y2="2403.7" class="edge-g"/>
<rect x="1276.0" y="2060.3" width="910.0" height="148.0" transform="rotate(45,1731.0,2134.3)" class="board"/>
<line x1="1461.6" y1="1760.2" x2="2105.1" y2="2403.7" class="edge-t"/>
<line x1="1356.9" y1="1864.8" x2="2000.4" y2="2508.3" class="edge-g"/>
<rect x="1171.3" y="2164.9" width="910.0" height="148.0" transform="rotate(45,1626.3,2238.9)" class="board"/>
<line x1="1356.9" y1="1864.8" x2="2000.4" y2="2508.3" class="edge-t"/>
<line x1="1252.3" y1="1969.5" x2="1895.8" y2="2613.0" class="edge-g"/>
<rect x="1066.7" y="2269.6" width="910.0" height="148.0" transform="rotate(45,1521.7,2343.6)" class="board"/>
<line x1="1252.3" y1="1969.5" x2="1895.8" y2="2613.0" class="edge-t"/>
<line x1="1147.6" y1="2074.1" x2="1791.1" y2="2717.6" class="edge-g"/>
<rect x="962.0" y="2374.2" width="910.0" height="148.0" transform="rotate(45,1417.0,2448.2)" class="board"/>
<line x1="1147.6" y1="2074.1" x2="1791.1" y2="2717.6" class="edge-t"/>
<line x1="1043.0" y1="2178.8" x2="1686.4" y2="2822.3" class="edge-g"/>
<rect x="857.4" y="2478.9" width="910.0" height="148.0" transform="rotate(45,1312.4,2552.9)" class="board"/>
<line x1="1043.0" y1="2178.8" x2="1686.4" y2="2822.3" class="edge-t"/>
<line x1="938.3" y1="2283.5" x2="1581.8" y2="2926.9" class="edge-g"/>
<rect x="752.7" y="2583.5" width="910.0" height="148.0" transform="rotate(45,1207.7,2657.5)" class="board"/>
<line x1="938.3" y1="2283.5" x2="1581.8" y2="2926.9" class="edge-t"/>
<line x1="833.7" y1="2388.1" x2="1477.1" y2="3031.6" class="edge-g"/>
<rect x="648.1" y="2688.2" width="910.0" height="148.0" transform="rotate(45,1103.1,2762.2)" class="board"/>
<line x1="833.7" y1="2388.1" x2="1477.1" y2="3031.6" class="edge-t"/>
<line x1="729.0" y1="2492.8" x2="1372.5" y2="3136.2" class="edge-g"/>
<rect x="543.4" y="2792.8" width="910.0" height="148.0" transform="rotate(45,998.4,2866.8)" class="board"/>
<line x1="729.0" y1="2492.8" x2="1372.5" y2="3136.2" class="edge-t"/>
<line x1="624.4" y1="2597.4" x2="1267.8" y2="3240.9" class="edge-g"/>
<rect x="438.8" y="2897.5" width="910.0" height="148.0" transform="rotate(45,893.8,2971.5)" class="board"/>
<line x1="624.4" y1="2597.4" x2="1267.8" y2="3240.9" class="edge-t"/>
<line x1="519.7" y1="2702.1" x2="1163.2" y2="3345.5" class="edge-g"/>
<rect x="334.1" y="3002.1" width="910.0" height="148.0" transform="rotate(45,789.1,3076.1)" class="board"/>
<line x1="519.7" y1="2702.1" x2="1163.2" y2="3345.5" class="edge-t"/>
<line x1="415.1" y1="2806.7" x2="1058.5" y2="3450.2" class="edge-g"/>
<rect x="1647.9" y="2436.4" width="910.0" height="148.0" transform="rotate(315,2102.9,2510.4)" class="board"/>
<line x1="1728.9" y1="2779.8" x2="2372.3" y2="2136.4" class="edge-t"/>
<line x1="1833.5" y1="2884.5" x2="2477.0" y2="2241.0" class="edge-g"/>
<rect x="2024.0" y="2808.3" width="910.0" height="148.0" transform="rotate(45,2479.0,2882.3)" class="board"/>
<line x1="2209.6" y1="2508.2" x2="2853.0" y2="3151.7" class="edge-t"/>
<line x1="2104.9" y1="2612.9" x2="2748.4" y2="3256.3" class="edge-g"/>
<rect x="794.8" y="297.2" width="910.0" height="148.0" transform="rotate(315,1249.8,371.2)" class="board"/>
<line x1="875.7" y1="640.6" x2="1519.2" y2="-2.8" class="edge-t"/>
<line x1="980.4" y1="745.3" x2="1623.9" y2="101.8" class="edge-g"/>
<rect x="1814.4" y="3017.2" width="910.0" height="148.0" transform="rotate(45,2269.4,3091.2)" class="board"/>
<line x1="2000.0" y1="2717.1" x2="2643.5" y2="3360.6" class="edge-t"/>
<line x1="1895.4" y1="2821.8" x2="2538.8" y2="3465.2" class="edge-g"/>
<rect x="-97.8" y="1941.7" width="910.0" height="148.0" transform="rotate(45,357.2,2015.7)" class="board"/>
<line x1="87.8" y1="1641.7" x2="731.3" y2="2285.2" class="edge-t"/>
<line x1="-16.9" y1="1746.3" x2="626.6" y2="2389.8" class="edge-g"/>
<polygon points="2407.5,614.1 2302.8,718.8 1659.3,75.3 1764.0,-29.3 2407.5,614.1" class="cut-full"/>
<polygon points="1715.5,10.0 1655.3,70.2 2298.8,713.7 2403.5,609.0 1804.4,10.0 1715.5,10.0" class="cut-used"/>
<polygon points="1715.5,10.0 1655.3,70.2 2298.8,713.7 2403.5,609.0 1804.4,10.0 1715.5,10.0" class="cut-hatch"/>
<line x1="1715.5" y1="10.0" x2="1655.3" y2="70.2" class="edge-cut"/>
<line x1="1655.3" y1="70.2" x2="2298.8" y2="713.7" class="edge-cut"/>
<line x1="2298.8" y1="713.7" x2="2403.5" y2="609.0" class="edge-cut"/>
<line x1="2403.5" y1="609.0" x2="1804.4" y2="10.0" class="edge-cut"/>
<line x1="1804.4" y1="10.0" x2="1715.5" y2="10.0" class="edge-cut"/>
<line x1="1764.0" y1="-29.3" x2="2407.5" y2="614.1" class="edge-t"/>
<line x1="1659.3" y1="75.3" x2="2302.8" y2="718.8" class="edge-g"/>
<polygon points="718.6,806.8 614.0,911.5 -29.5,268.0 75.2,163.4 718.6,806.8" class="cut-full"/>
<polygon points="10.0,308.6 608.8,907.4 713.5,802.8 70.0,159.3 10.0,219.3 10.0,308.6" class="cut-used"/>
<polygon points="10.0,308.6 608.8,907.4 713.5,802.8 70.0,159.3 10.0,219.3 10.0,308.6" class="cut-hatch"/>
<line x1="10.0" y1="308.6" x2="608.8" y2="907.4" class="edge-cut"/>
<line x1="608.8" y1="907.4" x2="713.5" y2="802.8" class="edge-cut"/>
<line x1="713.5" y1="802.8" x2="70.0" y2="159.3" class="edge-cut"/>
<line x1="70.0" y1="159.3" x2="10.0" y2="219.3" class="edge-cut"/>
<line x1="10.0" y1="219.3" x2="10.0" y2="308.6" class="edge-cut"/>
<line x1="75.2" y1="163.4" x2="718.6" y2="806.8" class="edge-t"/>
<line x1="-29.5" y1="268.0" x2="614.0" y2="911.5" class="edge-g"/>
<polygon points="930.2,602.6 825.5,707.3 182.1,63.8 286.7,-40.8 930.2,602.6" class="cut-full"/>
<polygon points="219.3,10.0 174.7,54.7 818.1,698.1 922.8,593.5 339.3,10.0 219.3,10.0" class="cut-used"/>
<polygon points="219.3,10.0 174.7,54.7 818.1,698.1 922.8,593.5 339.3,10.0 219.3,10.0" class="cut-hatch"/>
<line x1="219.3" y1="10.0" x2="174.7" y2="54.7" class="edge-cut"/>
<line x1="174.7" y1="54.7" x2="818.1" y2="698.1" class="edge-cut"/>
<line x1="818.1" y1="698.1" x2="922.8" y2="593.5" class="edge-cut"/>
<line x1="922.8" y1="593.5" x2="339.3" y2="10.0" class="edge-cut"/>
<line x1="339.3" y1="10.0" x2="219.3" y2="10.0" class="edge-cut"/>
<line x1="286.7" y1="-40.8" x2="930.2" y2="602.6" class="edge-t"/>
<line x1="182.1" y1="63.8" x2="825.5" y2="707.3" class="edge-g"/>
<polygon points="1740.9,2765.4 1845.6,2870.0 1202.1,3513.5 1097.5,3408.8 1740.9,2765.4" class="cut-full"/>
<polygon points="1266.0,3452.0 1833.5,2884.5 1728.9,2779.8 1085.4,3423.3 1114.1,3452.0 1266.0,3452.0" class="cut-used"/>
<polygon points="1266.0,3452.0 1833.5,2884.5 1728.9,2779.8 1085.4,3423.3 1114.1,3452.0 1266.0,3452.0" class="cut-hatch"/>
<line x1="1266.0" y1="3452.0" x2="1833.5" y2="2884.5" class="edge-cut"/>
<line x1="1833.5" y1="2884.5" x2="1728.9" y2="2779.8" class="edge-cut"/>
<line x1="1728.9" y1="2779.8" x2="1085.4" y2="3423.3" class="edge-cut"/>
<line x1="1085.4" y1="3423.3" x2="1114.1" y2="3452.0" class="edge-cut"/>
<line x1="1114.1" y1="3452.0" x2="1266.0" y2="3452.0" class="edge-cut"/>
<line x1="1097.5" y1="3408.8" x2="1740.9" y2="2765.4" class="edge-t"/>
<line x1="1202.1" y1="3513.5" x2="1845.6" y2="2870.0" class="edge-g"/>
<polygon points="2919.4,1546.5 2814.7,1651.2 2171.3,1007.7 2275.9,903.1 2919.4,1546.5" class="cut-full"/>
<polygon points="2846.0,1470.2 2298.8,923.0 2194.2,1027.6 2837.6,1671.1 2846.0,1662.7 2846.0,1470.2" class="cut-used"/>
<polygon points="2846.0,1470.2 2298.8,923.0 2194.2,1027.6 2837.6,1671.1 2846.0,1662.7 2846.0,1470.2" class="cut-hatch"/>
<line x1="2846.0" y1="1470.2" x2="2298.8" y2="923.0" class="edge-cut"/>
<line x1="2298.8" y1="923.0" x2="2194.2" y2="1027.6" class="edge-cut"/>
<line x1="2194.2" y1="1027.6" x2="2837.6" y2="1671.1" class="edge-cut"/>
<line x1="2837.6" y1="1671.1" x2="2846.0" y2="1662.7" class="edge-cut"/>
<line x1="2846.0" y1="1662.7" x2="2846.0" y2="1470.2" class="edge-cut"/>
<line x1="2275.9" y1="903.1" x2="2919.4" y2="1546.5" class="edge-t"/>
<line x1="2171.3" y1="1007.7" x2="2814.7" y2="1651.2" class="edge-g"/>
<polygon points="1035.6,3424.1 930.9,3528.8 287.5,2885.3 392.1,2780.7 1035.6,3424.1" class="cut-full"/>
<polygon points="1056.7,3452.0 1058.5,3450.2 415.1,2806.7 310.4,2911.4 851.1,3452.0 1056.7,3452.0" class="cut-used"/>
<polygon points="1056.7,3452.0 1058.5,3450.2 415.1,2806.7 310.4,2911.4 851.1,3452.0 1056.7,3452.0" class="cut-hatch"/>
<line x1="1056.7" y1="3452.0" x2="1058.5" y2="3450.2" class="edge-cut"/>
<line x1="1058.5" y1="3450.2" x2="415.1" y2="2806.7" class="edge-cut"/>
<line x1="415.1" y1="2806.7" x2="310.4" y2="2911.4" class="edge-cut"/>
<line x1="310.4" y1="2911.4" x2="851.1" y2="3452.0" class="edge-cut"/>
<line x1="851.1" y1="3452.0" x2="1056.7" y2="3452.0" class="edge-cut"/>
<line x1="392.1" y1="2780.7" x2="1035.6" y2="3424.1" class="edge-t"/>
<line x1="287.5" y1="2885.3" x2="930.9" y2="3528.8" class="edge-g"/>
<polygon points="2927.3,3019.7 2822.6,3124.4 2179.2,2480.9 2283.8,2376.3 2927.3,3019.7" class="cut-full"/>
<polygon points="2846.0,2935.3 2314.4,2403.7 2209.7,2508.3 2846.0,3144.6 2846.0,2935.3" class="cut-used"/>
<polygon points="2846.0,2935.3 2314.4,2403.7 2209.7,2508.3 2846.0,3144.6 2846.0,2935.3" class="cut-hatch"/>
<line x1="2846.0" y1="2935.3" x2="2314.4" y2="2403.7" class="edge-cut"/>
<line x1="2314.4" y1="2403.7" x2="2209.7" y2="2508.3" class="edge-cut"/>
<line x1="2209.7" y1="2508.3" x2="2846.0" y2="3144.6" class="edge-cut"/>
<line x1="2846.0" y1="3144.6" x2="2846.0" y2="2935.3" class="edge-cut"/>
<line x1="2283.8" y1="2376.3" x2="2927.3" y2="3019.7" class="edge-t"/>
<line x1="2179.2" y1="2480.9" x2="2822.6" y2="3124.4" class="edge-g"/>
<polygon points="2508.6,3431.9 2403.9,3536.6 1760.4,2893.1 1865.1,2788.4 2508.6,3431.9" class="cut-full"/>
<polygon points="2525.5,3452.0 1895.8,2822.3 1791.1,2926.9 2316.2,3452.0 2525.5,3452.0" class="cut-used"/>
<polygon points="2525.5,3452.0 1895.8,2822.3 1791.1,2926.9 2316.2,3452.0 2525.5,3452.0" class="cut-hatch"/>
<line x1="2525.5" y1="3452.0" x2="1895.8" y2="2822.3" class="edge-cut"/>
<line x1="1895.8" y1="2822.3" x2="1791.1" y2="2926.9" class="edge-cut"/>
<line x1="1791.1" y1="2926.9" x2="2316.2" y2="3452.0" class="edge-cut"/>
<line x1="2316.2" y1="3452.0" x2="2525.5" y2="3452.0" class="edge-cut"/>
<line x1="1865.1" y1="2788.4" x2="2508.6" y2="3431.9" class="edge-t"/>
<line x1="1760.4" y1="2893.1" x2="2403.9" y2="3536.6" class="edge-g"/>
<polygon points="665.9,2426.4 561.2,2531.0 -82.2,1887.6 22.4,1782.9 665.9,2426.4" class="cut-full"/>
<polygon points="10.0,1983.0 519.7,2492.8 624.4,2388.1 10.0,1773.7 10.0,1983.0" class="cut-used"/>
<polygon points="10.0,1983.0 519.7,2492.8 624.4,2388.1 10.0,1773.7 10.0,1983.0" class="cut-hatch"/>
<line x1="10.0" y1="1983.0" x2="519.7" y2="2492.8" class="edge-cut"/>
<line x1="519.7" y1="2492.8" x2="624.4" y2="2388.1" class="edge-cut"/>
<line x1="624.4" y1="2388.1" x2="10.0" y2="1773.7" class="edge-cut"/>
<line x1="10.0" y1="1773.7" x2="10.0" y2="1983.0" class="edge-cut"/>
<line x1="22.4" y1="1782.9" x2="665.9" y2="2426.4" class="edge-t"/>
<line x1="-82.2" y1="1887.6" x2="561.2" y2="2531.0" class="edge-g"/>
<polygon points="2554.0,553.6 2449.3,658.2 1805.9,14.8 1910.5,-89.9 2554.0,553.6" class="cut-full"/>
<polygon points="1804.4,10.0 2403.5,609.0 2508.1,504.4 2013.7,10.0 1804.4,10.0" class="cut-used"/>
<polygon points="1804.4,10.0 2403.5,609.0 2508.1,504.4 2013.7,10.0 1804.4,10.0" class="cut-hatch"/>
<line x1="1804.4" y1="10.0" x2="2403.5" y2="609.0" class="edge-cut"/>
<line x1="2403.5" y1="609.0" x2="2508.1" y2="504.4" class="edge-cut"/>
<line x1="2508.1" y1="504.4" x2="2013.7" y2="10.0" class="edge-cut"/>
<line x1="2013.7" y1="10.0" x2="1804.4" y2="10.0" class="edge-cut"/>
<line x1="1910.5" y1="-89.9" x2="2554.0" y2="553.6" class="edge-t"/>
<line x1="1805.9" y1="14.8" x2="2449.3" y2="658.2" class="edge-g"/>
<polygon points="658.1,953.4 553.5,1058.1 -90.0,414.6 14.7,309.9 658.1,953.4" class="cut-full"/>
<polygon points="10.0,517.9 504.2,1012.1 608.8,907.4 10.0,308.6 10.0,517.9" class="cut-used"/>
<polygon points="10.0,517.9 504.2,1012.1 608.8,907.4 10.0,308.6 10.0,517.9" class="cut-hatch"/>
<line x1="10.0" y1="517.9" x2="504.2" y2="1012.1" class="edge-cut"/>
<line x1="504.2" y1="1012.1" x2="608.8" y2="907.4" class="edge-cut"/>
<line x1="608.8" y1="907.4" x2="10.0" y2="308.6" class="edge-cut"/>
<line x1="10.0" y1="308.6" x2="10.0" y2="517.9" class="edge-cut"/>
<line x1="14.7" y1="309.9" x2="658.1" y2="953.4" class="edge-t"/>
<line x1="-90.0" y1="414.6" x2="553.5" y2="1058.1" class="edge-g"/>
<polygon points="1081.0,545.8 976.4,650.5 332.9,7.0 437.5,-97.6 1081.0,545.8" class="cut-full"/>
<polygon points="339.3,10.0 922.8,593.5 1027.4,488.8 548.6,10.0 339.3,10.0" class="cut-used"/>
<polygon points="339.3,10.0 922.8,593.5 1027.4,488.8 548.6,10.0 339.3,10.0" class="cut-hatch"/>
<line x1="339.3" y1="10.0" x2="922.8" y2="593.5" class="edge-cut"/>
<line x1="922.8" y1="593.5" x2="1027.4" y2="488.8" class="edge-cut"/>
<line x1="1027.4" y1="488.8" x2="548.6" y2="10.0" class="edge-cut"/>
<line x1="548.6" y1="10.0" x2="339.3" y2="10.0" class="edge-cut"/>
<line x1="437.5" y1="-97.6" x2="1081.0" y2="545.8" class="edge-t"/>
<line x1="332.9" y1="7.0" x2="976.4" y2="650.5" class="edge-g"/>
<polygon points="2851.5,157.5 2956.2,262.1 2312.7,905.6 2208.1,800.9 2851.5,157.5" class="cut-full"/>
<polygon points="2846.0,166.5 2267.7,744.8 2372.3,849.4 2846.0,375.8 2846.0,166.5" class="cut-used"/>
<polygon points="2846.0,166.5 2267.7,744.8 2372.3,849.4 2846.0,375.8 2846.0,166.5" class="cut-hatch"/>
<line x1="2846.0" y1="166.5" x2="2267.7" y2="744.8" class="edge-cut"/>
<line x1="2267.7" y1="744.8" x2="2372.3" y2="849.4" class="edge-cut"/>
<line x1="2372.3" y1="849.4" x2="2846.0" y2="375.8" class="edge-cut"/>
<line x1="2846.0" y1="375.8" x2="2846.0" y2="166.5" class="edge-cut"/>
<line x1="2208.1" y1="800.9" x2="2851.5" y2="157.5" class="edge-t"/>
<line x1="2312.7" y1="905.6" x2="2956.2" y2="262.1" class="edge-g"/>
<polygon points="2971.7,1390.3 2867.0,1494.9 2223.6,851.4 2328.2,746.8 2971.7,1390.3" class="cut-full"/>
<polygon points="2846.0,1260.9 2403.5,818.3 2298.8,923.0 2846.0,1470.2 2846.0,1260.9" class="cut-used"/>
<polygon points="2846.0,1260.9 2403.5,818.3 2298.8,923.0 2846.0,1470.2 2846.0,1260.9" class="cut-hatch"/>
<line x1="2846.0" y1="1260.9" x2="2403.5" y2="818.3" class="edge-cut"/>
<line x1="2403.5" y1="818.3" x2="2298.8" y2="923.0" class="edge-cut"/>
<line x1="2298.8" y1="923.0" x2="2846.0" y2="1470.2" class="edge-cut"/>
<line x1="2846.0" y1="1470.2" x2="2846.0" y2="1260.9" class="edge-cut"/>
<line x1="2328.2" y1="746.8" x2="2971.7" y2="1390.3" class="edge-t"/>
<line x1="2223.6" y1="851.4" x2="2867.0" y2="1494.9" class="edge-g"/>
<polygon points="879.1,3476.3 774.5,3581.0 131.0,2937.5 235.6,2832.8 879.1,3476.3" class="cut-full"/>
<polygon points="851.1,3452.0 310.4,2911.4 205.8,3016.0 641.8,3452.0 851.1,3452.0" class="cut-used"/>
<polygon points="851.1,3452.0 310.4,2911.4 205.8,3016.0 641.8,3452.0 851.1,3452.0" class="cut-hatch"/>
<line x1="851.1" y1="3452.0" x2="310.4" y2="2911.4" class="edge-cut"/>
<line x1="310.4" y1="2911.4" x2="205.8" y2="3016.0" class="edge-cut"/>
<line x1="205.8" y1="3016.0" x2="641.8" y2="3452.0" class="edge-cut"/>
<line x1="641.8" y1="3452.0" x2="851.1" y2="3452.0" class="edge-cut"/>
<line x1="235.6" y1="2832.8" x2="879.1" y2="3476.3" class="edge-t"/>
<line x1="131.0" y1="2937.5" x2="774.5" y2="3581.0" class="edge-g"/>
<polygon points="2979.4,2863.3 2874.8,2967.9 2231.3,2324.4 2336.0,2219.8 2979.4,2863.3" class="cut-full"/>
<polygon points="2846.0,2726.0 2419.0,2299.0 2314.4,2403.7 2846.0,2935.3 2846.0,2726.0" class="cut-used"/>
<polygon points="2846.0,2726.0 2419.0,2299.0 2314.4,2403.7 2846.0,2935.3 2846.0,2726.0" class="cut-hatch"/>
<line x1="2846.0" y1="2726.0" x2="2419.0" y2="2299.0" class="edge-cut"/>
<line x1="2419.0" y1="2299.0" x2="2314.4" y2="2403.7" class="edge-cut"/>
<line x1="2314.4" y1="2403.7" x2="2846.0" y2="2935.3" class="edge-cut"/>
<line x1="2846.0" y1="2935.3" x2="2846.0" y2="2726.0" class="edge-cut"/>
<line x1="2336.0" y1="2219.8" x2="2979.4" y2="2863.3" class="edge-t"/>
<line x1="2231.3" y1="2324.4" x2="2874.8" y2="2967.9" class="edge-g"/>
<polygon points="2352.1,3484.1 2247.5,3588.7 1604.0,2945.2 1708.6,2840.6 2352.1,3484.1" class="cut-full"/>
<polygon points="2316.2,3452.0 1791.1,2926.9 1686.4,3031.6 2106.9,3452.0 2316.2,3452.0" class="cut-used"/>
<polygon points="2316.2,3452.0 1791.1,2926.9 1686.4,3031.6 2106.9,3452.0 2316.2,3452.0" class="cut-hatch"/>
<line x1="2316.2" y1="3452.0" x2="1791.1" y2="2926.9" class="edge-cut"/>
<line x1="1791.1" y1="2926.9" x2="1686.4" y2="3031.6" class="edge-cut"/>
<line x1="1686.4" y1="3031.6" x2="2106.9" y2="3452.0" class="edge-cut"/>
<line x1="2106.9" y1="3452.0" x2="2316.2" y2="3452.0" class="edge-cut"/>
<line x1="1708.6" y1="2840.6" x2="2352.1" y2="3484.1" class="edge-t"/>
<line x1="1604.0" y1="2945.2" x2="2247.5" y2="3588.7" class="edge-g"/>
<polygon points="613.8,2582.8 509.1,2687.4 -134.4,2044.0 -29.7,1939.3 613.8,2582.8" class="cut-full"/>
<polygon points="10.0,2192.3 415.1,2597.4 519.7,2492.8 10.0,1983.0 10.0,2192.3" class="cut-used"/>
<polygon points="10.0,2192.3 415.1,2597.4 519.7,2492.8 10.0,1983.0 10.0,2192.3" class="cut-hatch"/>
<line x1="10.0" y1="2192.3" x2="415.1" y2="2597.4" class="edge-cut"/>
<line x1="415.1" y1="2597.4" x2="519.7" y2="2492.8" class="edge-cut"/>
<line x1="519.7" y1="2492.8" x2="10.0" y2="1983.0" class="edge-cut"/>
<line x1="10.0" y1="1983.0" x2="10.0" y2="2192.3" class="edge-cut"/>
<line x1="-29.7" y1="1939.3" x2="613.8" y2="2582.8" class="edge-t"/>
<line x1="-134.4" y1="2044.0" x2="509.1" y2="2687.4" class="edge-g"/>
<polygon points="2710.4,501.5 2605.7,606.1 1962.3,-37.4 2066.9,-142.0 2710.4,501.5" class="cut-full"/>
<polygon points="2013.7,10.0 2508.1,504.4 2612.8,399.7 2223.0,10.0 2013.7,10.0" class="cut-used"/>
<polygon points="2013.7,10.0 2508.1,504.4 2612.8,399.7 2223.0,10.0 2013.7,10.0" class="cut-hatch"/>
<line x1="2013.7" y1="10.0" x2="2508.1" y2="504.4" class="edge-cut"/>
<line x1="2508.1" y1="504.4" x2="2612.8" y2="399.7" class="edge-cut"/>
<line x1="2612.8" y1="399.7" x2="2223.0" y2="10.0" class="edge-cut"/>
<line x1="2223.0" y1="10.0" x2="2013.7" y2="10.0" class="edge-cut"/>
<line x1="2066.9" y1="-142.0" x2="2710.4" y2="501.5" class="edge-t"/>
<line x1="1962.3" y1="-37.4" x2="2605.7" y2="606.1" class="edge-g"/>
<polygon points="606.0,1109.8 501.4,1214.4 -142.1,571.0 -37.5,466.3 606.0,1109.8" class="cut-full"/>
<polygon points="10.0,727.2 399.5,1116.7 504.2,1012.1 10.0,517.9 10.0,727.2" class="cut-used"/>
<polygon points="10.0,727.2 399.5,1116.7 504.2,1012.1 10.0,517.9 10.0,727.2" class="cut-hatch"/>
<line x1="10.0" y1="727.2" x2="399.5" y2="1116.7" class="edge-cut"/>
<line x1="399.5" y1="1116.7" x2="504.2" y2="1012.1" class="edge-cut"/>
<line x1="504.2" y1="1012.1" x2="10.0" y2="517.9" class="edge-cut"/>
<line x1="10.0" y1="517.9" x2="10.0" y2="727.2" class="edge-cut"/>
<line x1="-37.5" y1="466.3" x2="606.0" y2="1109.8" class="edge-t"/>
<line x1="-142.1" y1="571.0" x2="501.4" y2="1214.4" class="edge-g"/>
<polygon points="1237.4,493.7 1132.7,598.4 489.2,-45.1 593.9,-149.7 1237.4,493.7" class="cut-full"/>
<polygon points="548.6,10.0 1027.4,488.8 1132.1,384.2 757.9,10.0 548.6,10.0" class="cut-used"/>
<polygon points="548.6,10.0 1027.4,488.8 1132.1,384.2 757.9,10.0 548.6,10.0" class="cut-hatch"/>
<line x1="548.6" y1="10.0" x2="1027.4" y2="488.8" class="edge-cut"/>
<line x1="1027.4" y1="488.8" x2="1132.1" y2="384.2" class="edge-cut"/>
<line x1="1132.1" y1="384.2" x2="757.9" y2="10.0" class="edge-cut"/>
<line x1="757.9" y1="10.0" x2="548.6" y2="10.0" class="edge-cut"/>
<line x1="593.9" y1="-149.7" x2="1237.4" y2="493.7" class="edge-t"/>
<line x1="489.2" y1="-45.1" x2="1132.7" y2="598.4" class="edge-g"/>
<polygon points="2903.7,1600.7 3008.3,1705.4 2364.8,2348.8 2260.2,2244.2 2903.7,1600.7" class="cut-full"/>
<polygon points="2846.0,1662.7 2372.3,2136.4 2477.0,2241.0 2846.0,1872.0 2846.0,1662.7" class="cut-used"/>
<polygon points="2846.0,1662.7 2372.3,2136.4 2477.0,2241.0 2846.0,1872.0 2846.0,1662.7" class="cut-hatch"/>
<line x1="2846.0" y1="1662.7" x2="2372.3" y2="2136.4" class="edge-cut"/>
<line x1="2372.3" y1="2136.4" x2="2477.0" y2="2241.0" class="edge-cut"/>
<line x1="2477.0" y1="2241.0" x2="2846.0" y2="1872.0" class="edge-cut"/>
<line x1="2846.0" y1="1872.0" x2="2846.0" y2="1662.7" class="edge-cut"/>
<line x1="2260.2" y1="2244.2" x2="2903.7" y2="1600.7" class="edge-t"/>
<line x1="2364.8" y1="2348.8" x2="3008.3" y2="1705.4" class="edge-g"/>
<polygon points="3023.8,1234.0 2919.1,1338.7 2275.7,695.2 2380.3,590.6 3023.8,1234.0" class="cut-full"/>
<polygon points="2846.0,1051.6 2508.1,713.7 2403.5,818.3 2846.0,1260.9 2846.0,1051.6" class="cut-used"/>
<polygon points="2846.0,1051.6 2508.1,713.7 2403.5,818.3 2846.0,1260.9 2846.0,1051.6" class="cut-hatch"/>
<line x1="2846.0" y1="1051.6" x2="2508.1" y2="713.7" class="edge-cut"/>
<line x1="2508.1" y1="713.7" x2="2403.5" y2="818.3" class="edge-cut"/>
<line x1="2403.5" y1="818.3" x2="2846.0" y2="1260.9" class="edge-cut"/>
<line x1="2846.0" y1="1260.9" x2="2846.0" y2="1051.6" class="edge-cut"/>
<line x1="2380.3" y1="590.6" x2="3023.8" y2="1234.0" class="edge-t"/>
<line x1="2275.7" y1="695.2" x2="2919.1" y2="1338.7" class="edge-g"/>
<polygon points="722.9,3528.4 618.2,3633.0 -25.2,2989.6 79.4,2884.9 722.9,3528.4" class="cut-full"/>
<polygon points="641.8,3452.0 205.8,3016.0 101.1,3120.7 432.4,3452.0 641.8,3452.0" class="cut-used"/>
<polygon points="641.8,3452.0 205.8,3016.0 101.1,3120.7 432.4,3452.0 641.8,3452.0" class="cut-hatch"/>
<line x1="641.8" y1="3452.0" x2="205.8" y2="3016.0" class="edge-cut"/>
<line x1="205.8" y1="3016.0" x2="101.1" y2="3120.7" class="edge-cut"/>
<line x1="101.1" y1="3120.7" x2="432.4" y2="3452.0" class="edge-cut"/>
<line x1="432.4" y1="3452.0" x2="641.8" y2="3452.0" class="edge-cut"/>
<line x1="79.4" y1="2884.9" x2="722.9" y2="3528.4" class="edge-t"/>
<line x1="-25.2" y1="2989.6" x2="618.2" y2="3633.0" class="edge-g"/>
<polygon points="470.4,2546.9 575.1,2651.5 -68.4,3295.0 -173.1,3190.3 470.4,2546.9" class="cut-full"/>
<polygon points="10.0,3211.8 441.9,2779.8 337.3,2675.2 10.0,3002.5 10.0,3211.8" class="cut-used"/>
<polygon points="10.0,3211.8 441.9,2779.8 337.3,2675.2 10.0,3002.5 10.0,3211.8" class="cut-hatch"/>
<line x1="10.0" y1="3211.8" x2="441.9" y2="2779.8" class="edge-cut"/>
<line x1="441.9" y1="2779.8" x2="337.3" y2="2675.2" class="edge-cut"/>
<line x1="337.3" y1="2675.2" x2="10.0" y2="3002.5" class="edge-cut"/>
<line x1="10.0" y1="3002.5" x2="10.0" y2="3211.8" class="edge-cut"/>
<line x1="-173.1" y1="3190.3" x2="470.4" y2="2546.9" class="edge-t"/>
<line x1="-68.4" y1="3295.0" x2="575.1" y2="2651.5" class="edge-g"/>
<polygon points="3031.5,2707.1 2926.9,2811.7 2283.4,2168.3 2388.0,2063.6 3031.5,2707.1" class="cut-full"/>
<polygon points="2846.0,2516.7 2523.7,2194.4 2419.0,2299.0 2846.0,2726.0 2846.0,2516.7" class="cut-used"/>
<polygon points="2846.0,2516.7 2523.7,2194.4 2419.0,2299.0 2846.0,2726.0 2846.0,2516.7" class="cut-hatch"/>
<line x1="2846.0" y1="2516.7" x2="2523.7" y2="2194.4" class="edge-cut"/>
<line x1="2523.7" y1="2194.4" x2="2419.0" y2="2299.0" class="edge-cut"/>
<line x1="2419.0" y1="2299.0" x2="2846.0" y2="2726.0" class="edge-cut"/>
<line x1="2846.0" y1="2726.0" x2="2846.0" y2="2516.7" class="edge-cut"/>
<line x1="2388.0" y1="2063.6" x2="3031.5" y2="2707.1" class="edge-t"/>
<line x1="2283.4" y1="2168.3" x2="2926.9" y2="2811.7" class="edge-g"/>
<polygon points="2196.0,3536.1 2091.3,3640.8 1447.8,2997.3 1552.5,2892.6 2196.0,3536.1" class="cut-full"/>
<polygon points="2106.9,3452.0 1686.4,3031.6 1581.8,3136.2 1897.6,3452.0 2106.9,3452.0" class="cut-used"/>
<polygon points="2106.9,3452.0 1686.4,3031.6 1581.8,3136.2 1897.6,3452.0 2106.9,3452.0" class="cut-hatch"/>
<line x1="2106.9" y1="3452.0" x2="1686.4" y2="3031.6" class="edge-cut"/>
<line x1="1686.4" y1="3031.6" x2="1581.8" y2="3136.2" class="edge-cut"/>
<line x1="1581.8" y1="3136.2" x2="1897.6" y2="3452.0" class="edge-cut"/>
<line x1="1897.6" y1="3452.0" x2="2106.9" y2="3452.0" class="edge-cut"/>
<line x1="1552.5" y1="2892.6" x2="2196.0" y2="3536.1" class="edge-t"/>
<line x1="1447.8" y1="2997.3" x2="2091.3" y2="3640.8" class="edge-g"/>
<polygon points="561.7,2738.9 457.1,2843.5 -186.4,2200.1 -81.7,2095.4 561.7,2738.9" class="cut-full"/>
<polygon points="10.0,2401.6 310.4,2702.1 415.1,2597.4 10.0,2192.3 10.0,2401.6" class="cut-used"/>
<polygon points="10.0,2401.6 310.4,2702.1 415.1,2597.4 10.0,2192.3 10.0,2401.6" class="cut-hatch"/>
<line x1="10.0" y1="2401.6" x2="310.4" y2="2702.1" class="edge-cut"/>
<line x1="310.4" y1="2702.1" x2="415.1" y2="2597.4" class="edge-cut"/>
<line x1="415.1" y1="2597.4" x2="10.0" y2="2192.3" class="edge-cut"/>
<line x1="10.0" y1="2192.3" x2="10.0" y2="2401.6" class="edge-cut"/>
<line x1="-81.7" y1="2095.4" x2="561.7" y2="2738.9" class="edge-t"/>
<line x1="-186.4" y1="2200.1" x2="457.1" y2="2843.5" class="edge-g"/>
<polygon points="2866.4,449.5 2761.7,554.1 2118.3,-89.4 2222.9,-194.0 2866.4,449.5" class="cut-full"/>
<polygon points="2223.0,10.0 2612.8,399.7 2717.4,295.1 2432.3,10.0 2223.0,10.0" class="cut-used"/>
<polygon points="2223.0,10.0 2612.8,399.7 2717.4,295.1 2432.3,10.0 2223.0,10.0" class="cut-hatch"/>
<line x1="2223.0" y1="10.0" x2="2612.8" y2="399.7" class="edge-cut"/>
<line x1="2612.8" y1="399.7" x2="2717.4" y2="295.1" class="edge-cut"/>
<line x1="2717.4" y1="295.1" x2="2432.3" y2="10.0" class="edge-cut"/>
<line x1="2432.3" y1="10.0" x2="2223.0" y2="10.0" class="edge-cut"/>
<line x1="2222.9" y1="-194.0" x2="2866.4" y2="449.5" class="edge-t"/>
<line x1="2118.3" y1="-89.4" x2="2761.7" y2="554.1" class="edge-g"/>
<polygon points="554.0,1265.8 449.4,1370.5 -194.1,727.0 -89.5,622.3 554.0,1265.8" class="cut-full"/>
<polygon points="10.0,936.5 294.9,1221.4 399.5,1116.7 10.0,727.2 10.0,936.5" class="cut-used"/>
<polygon points="10.0,936.5 294.9,1221.4 399.5,1116.7 10.0,727.2 10.0,936.5" class="cut-hatch"/>
<line x1="10.0" y1="936.5" x2="294.9" y2="1221.4" class="edge-cut"/>
<line x1="294.9" y1="1221.4" x2="399.5" y2="1116.7" class="edge-cut"/>
<line x1="399.5" y1="1116.7" x2="10.0" y2="727.2" class="edge-cut"/>
<line x1="10.0" y1="727.2" x2="10.0" y2="936.5" class="edge-cut"/>
<line x1="-89.5" y1="622.3" x2="554.0" y2="1265.8" class="edge-t"/>
<line x1="-194.1" y1="727.0" x2="449.4" y2="1370.5" class="edge-g"/>
<polygon points="1393.3,441.7 1288.6,546.4 645.2,-97.1 749.8,-201.7 1393.3,441.7" class="cut-full"/>
<polygon points="757.9,10.0 1132.1,384.2 1236.7,279.5 967.2,10.0 757.9,10.0" class="cut-used"/>
<polygon points="757.9,10.0 1132.1,384.2 1236.7,279.5 967.2,10.0 757.9,10.0" class="cut-hatch"/>
<line x1="757.9" y1="10.0" x2="1132.1" y2="384.2" class="edge-cut"/>
<line x1="1132.1" y1="384.2" x2="1236.7" y2="279.5" class="edge-cut"/>
<line x1="1236.7" y1="279.5" x2="967.2" y2="10.0" class="edge-cut"/>
<line x1="967.2" y1="10.0" x2="757.9" y2="10.0" class="edge-cut"/>
<line x1="749.8" y1="-201.7" x2="1393.3" y2="441.7" class="edge-t"/>
<line x1="645.2" y1="-97.1" x2="1288.6" y2="546.4" class="edge-g"/>
<polygon points="3075.7,1078.3 2971.0,1183.0 2327.6,539.5 2432.2,434.9 3075.7,1078.3" class="cut-full"/>
<polygon points="2846.0,842.3 2612.8,609.0 2508.1,713.7 2846.0,1051.6 2846.0,842.3" class="cut-used"/>
<polygon points="2846.0,842.3 2612.8,609.0 2508.1,713.7 2846.0,1051.6 2846.0,842.3" class="cut-hatch"/>
<line x1="2846.0" y1="842.3" x2="2612.8" y2="609.0" class="edge-cut"/>
<line x1="2612.8" y1="609.0" x2="2508.1" y2="713.7" class="edge-cut"/>
<line x1="2508.1" y1="713.7" x2="2846.0" y2="1051.6" class="edge-cut"/>
<line x1="2846.0" y1="1051.6" x2="2846.0" y2="842.3" class="edge-cut"/>
<line x1="2432.2" y1="434.9" x2="3075.7" y2="1078.3" class="edge-t"/>
<line x1="2327.6" y1="539.5" x2="2971.0" y2="1183.0" class="edge-g"/>
<polygon points="567.8,3580.5 463.2,3685.2 -180.3,3041.7 -75.6,2937.1 567.8,3580.5" class="cut-full"/>
<polygon points="10.0,3238.9 223.1,3452.0 432.4,3452.0 101.1,3120.7 10.0,3211.8 10.0,3238.9" class="cut-used"/>
<polygon points="10.0,3238.9 223.1,3452.0 432.4,3452.0 101.1,3120.7 10.0,3211.8 10.0,3238.9" class="cut-hatch"/>
<line x1="10.0" y1="3238.9" x2="223.1" y2="3452.0" class="edge-cut"/>
<line x1="223.1" y1="3452.0" x2="432.4" y2="3452.0" class="edge-cut"/>
<line x1="432.4" y1="3452.0" x2="101.1" y2="3120.7" class="edge-cut"/>
<line x1="101.1" y1="3120.7" x2="10.0" y2="3211.8" class="edge-cut"/>
<line x1="10.0" y1="3211.8" x2="10.0" y2="3238.9" class="edge-cut"/>
<line x1="-75.6" y1="2937.1" x2="567.8" y2="3580.5" class="edge-t"/>
<line x1="-180.3" y1="3041.7" x2="463.2" y2="3685.2" class="edge-g"/>
<polygon points="418.5,1104.3 523.2,1209.0 -120.3,1852.4 -224.9,1747.8 418.5,1104.3" class="cut-full"/>
<polygon points="10.0,1715.5 337.3,1388.3 232.6,1283.6 10.0,1506.2 10.0,1715.5" class="cut-used"/>
<polygon points="10.0,1715.5 337.3,1388.3 232.6,1283.6 10.0,1506.2 10.0,1715.5" class="cut-hatch"/>
<line x1="10.0" y1="1715.5" x2="337.3" y2="1388.3" class="edge-cut"/>
<line x1="337.3" y1="1388.3" x2="232.6" y2="1283.6" class="edge-cut"/>
<line x1="232.6" y1="1283.6" x2="10.0" y2="1506.2" class="edge-cut"/>
<line x1="10.0" y1="1506.2" x2="10.0" y2="1715.5" class="edge-cut"/>
<line x1="-224.9" y1="1747.8" x2="418.5" y2="1104.3" class="edge-t"/>
<line x1="-120.3" y1="1852.4" x2="523.2" y2="1209.0" class="edge-g"/>
<polygon points="3083.4,2551.5 2978.7,2656.2 2335.2,2012.7 2439.9,1908.0 3083.4,2551.5" class="cut-full"/>
<polygon points="2846.0,2307.4 2628.3,2089.7 2523.7,2194.4 2846.0,2516.7 2846.0,2307.4" class="cut-used"/>
<polygon points="2846.0,2307.4 2628.3,2089.7 2523.7,2194.4 2846.0,2516.7 2846.0,2307.4" class="cut-hatch"/>
<line x1="2846.0" y1="2307.4" x2="2628.3" y2="2089.7" class="edge-cut"/>
<line x1="2628.3" y1="2089.7" x2="2523.7" y2="2194.4" class="edge-cut"/>
<line x1="2523.7" y1="2194.4" x2="2846.0" y2="2516.7" class="edge-cut"/>
<line x1="2846.0" y1="2516.7" x2="2846.0" y2="2307.4" class="edge-cut"/>
<line x1="2439.9" y1="1908.0" x2="3083.4" y2="2551.5" class="edge-t"/>
<line x1="2335.2" y1="2012.7" x2="2978.7" y2="2656.2" class="edge-g"/>
<polygon points="2040.5,3587.9 1935.8,3692.6 1292.3,3049.1 1397.0,2944.5 2040.5,3587.9" class="cut-full"/>
<polygon points="1897.6,3452.0 1581.8,3136.2 1477.1,3240.9 1688.3,3452.0 1897.6,3452.0" class="cut-used"/>
<polygon points="1897.6,3452.0 1581.8,3136.2 1477.1,3240.9 1688.3,3452.0 1897.6,3452.0" class="cut-hatch"/>
<line x1="1897.6" y1="3452.0" x2="1581.8" y2="3136.2" class="edge-cut"/>
<line x1="1581.8" y1="3136.2" x2="1477.1" y2="3240.9" class="edge-cut"/>
<line x1="1477.1" y1="3240.9" x2="1688.3" y2="3452.0" class="edge-cut"/>
<line x1="1688.3" y1="3452.0" x2="1897.6" y2="3452.0" class="edge-cut"/>
<line x1="1397.0" y1="2944.5" x2="2040.5" y2="3587.9" class="edge-t"/>
<line x1="1292.3" y1="3049.1" x2="1935.8" y2="3692.6" class="edge-g"/>
<polygon points="509.9,2894.2 405.3,2998.9 -238.2,2355.4 -133.5,2250.8 509.9,2894.2" class="cut-full"/>
<polygon points="10.0,2610.9 205.8,2806.7 310.4,2702.1 10.0,2401.6 10.0,2610.9" class="cut-used"/>
<polygon points="10.0,2610.9 205.8,2806.7 310.4,2702.1 10.0,2401.6 10.0,2610.9" class="cut-hatch"/>
<line x1="10.0" y1="2610.9" x2="205.8" y2="2806.7" class="edge-cut"/>
<line x1="205.8" y1="2806.7" x2="310.4" y2="2702.1" class="edge-cut"/>
<line x1="310.4" y1="2702.1" x2="10.0" y2="2401.6" class="edge-cut"/>
<line x1="10.0" y1="2401.6" x2="10.0" y2="2610.9" class="edge-cut"/>
<line x1="-133.5" y1="2250.8" x2="509.9" y2="2894.2" class="edge-t"/>
<line x1="-238.2" y1="2355.4" x2="405.3" y2="2998.9" class="edge-g"/>
<polygon points="3021.5,397.7 2916.9,502.4 2273.4,-141.1 2378.1,-245.7 3021.5,397.7" class="cut-full"/>
<polygon points="2432.3,10.0 2717.4,295.1 2822.1,190.4 2641.6,10.0 2432.3,10.0" class="cut-used"/>
<polygon points="2432.3,10.0 2717.4,295.1 2822.1,190.4 2641.6,10.0 2432.3,10.0" class="cut-hatch"/>
<line x1="2432.3" y1="10.0" x2="2717.4" y2="295.1" class="edge-cut"/>
<line x1="2717.4" y1="295.1" x2="2822.1" y2="190.4" class="edge-cut"/>
<line x1="2822.1" y1="190.4" x2="2641.6" y2="10.0" class="edge-cut"/>
<line x1="2641.6" y1="10.0" x2="2432.3" y2="10.0" class="edge-cut"/>
<line x1="2378.1" y1="-245.7" x2="3021.5" y2="397.7" class="edge-t"/>
<line x1="2273.4" y1="-141.1" x2="2916.9" y2="502.4" class="edge-g"/>
<polygon points="502.3,1421.0 397.6,1525.6 -245.8,882.1 -141.2,777.5 502.3,1421.0" class="cut-full"/>
<polygon points="10.0,1145.8 190.2,1326.0 294.9,1221.4 10.0,936.5 10.0,1145.8" class="cut-used"/>
<polygon points="10.0,1145.8 190.2,1326.0 294.9,1221.4 10.0,936.5 10.0,1145.8" class="cut-hatch"/>
<line x1="10.0" y1="1145.8" x2="190.2" y2="1326.0" class="edge-cut"/>
<line x1="190.2" y1="1326.0" x2="294.9" y2="1221.4" class="edge-cut"/>
<line x1="294.9" y1="1221.4" x2="10.0" y2="936.5" class="edge-cut"/>
<line x1="10.0" y1="936.5" x2="10.0" y2="1145.8" class="edge-cut"/>
<line x1="-141.2" y1="777.5" x2="502.3" y2="1421.0" class="edge-t"/>
<line x1="-245.8" y1="882.1" x2="397.6" y2="1525.6" class="edge-g"/>
<polygon points="1548.2,390.1 1443.6,494.8 800.1,-148.7 904.8,-253.4 1548.2,390.1" class="cut-full"/>
<polygon points="967.2,10.0 1236.7,279.5 1341.4,174.9 1176.5,10.0 967.2,10.0" class="cut-used"/>
<polygon points="967.2,10.0 1236.7,279.5 1341.4,174.9 1176.5,10.0 967.2,10.0" class="cut-hatch"/>
<line x1="967.2" y1="10.0" x2="1236.7" y2="279.5" class="edge-cut"/>
<line x1="1236.7" y1="279.5" x2="1341.4" y2="174.9" class="edge-cut"/>
<line x1="1341.4" y1="174.9" x2="1176.5" y2="10.0" class="edge-cut"/>
<line x1="1176.5" y1="10.0" x2="967.2" y2="10.0" class="edge-cut"/>
<line x1="904.8" y1="-253.4" x2="1548.2" y2="390.1" class="edge-t"/>
<line x1="800.1" y1="-148.7" x2="1443.6" y2="494.8" class="edge-g"/>
<polygon points="3011.5,2974.1 3116.2,3078.7 2472.7,3722.2 2368.1,3617.5 3011.5,2974.1" class="cut-full"/>
<polygon points="2762.3,3452.0 2846.0,3368.3 2846.0,3159.0 2553.0,3452.0 2762.3,3452.0" class="cut-used"/>
<polygon points="2762.3,3452.0 2846.0,3368.3 2846.0,3159.0 2553.0,3452.0 2762.3,3452.0" class="cut-hatch"/>
<line x1="2762.3" y1="3452.0" x2="2846.0" y2="3368.3" class="edge-cut"/>
<line x1="2846.0" y1="3368.3" x2="2846.0" y2="3159.0" class="edge-cut"/>
<line x1="2846.0" y1="3159.0" x2="2553.0" y2="3452.0" class="edge-cut"/>
<line x1="2553.0" y1="3452.0" x2="2762.3" y2="3452.0" class="edge-cut"/>
<line x1="2368.1" y1="3617.5" x2="3011.5" y2="2974.1" class="edge-t"/>
<line x1="2472.7" y1="3722.2" x2="3116.2" y2="3078.7" class="edge-g"/>
<polygon points="3127.1,924.1 3022.4,1028.8 2379.0,385.3 2483.6,280.7 3127.1,924.1" class="cut-full"/>
<polygon points="2846.0,633.0 2717.4,504.4 2612.8,609.0 2846.0,842.3 2846.0,633.0" class="cut-used"/>
<polygon points="2846.0,633.0 2717.4,504.4 2612.8,609.0 2846.0,842.3 2846.0,633.0" class="cut-hatch"/>
<line x1="2846.0" y1="633.0" x2="2717.4" y2="504.4" class="edge-cut"/>
<line x1="2717.4" y1="504.4" x2="2612.8" y2="609.0" class="edge-cut"/>
<line x1="2612.8" y1="609.0" x2="2846.0" y2="842.3" class="edge-cut"/>
<line x1="2846.0" y1="842.3" x2="2846.0" y2="633.0" class="edge-cut"/>
<line x1="2483.6" y1="280.7" x2="3127.1" y2="924.1" class="edge-t"/>
<line x1="2379.0" y1="385.3" x2="3022.4" y2="1028.8" class="edge-g"/>
<polygon points="3134.6,2397.7 3030.0,2502.4 2386.5,1858.9 2491.2,1754.3 3134.6,2397.7" class="cut-full"/>
<polygon points="2846.0,2098.1 2733.0,1985.1 2628.3,2089.7 2846.0,2307.4 2846.0,2098.1" class="cut-used"/>
<polygon points="2846.0,2098.1 2733.0,1985.1 2628.3,2089.7 2846.0,2307.4 2846.0,2098.1" class="cut-hatch"/>
<line x1="2846.0" y1="2098.1" x2="2733.0" y2="1985.1" class="edge-cut"/>
<line x1="2733.0" y1="1985.1" x2="2628.3" y2="2089.7" class="edge-cut"/>
<line x1="2628.3" y1="2089.7" x2="2846.0" y2="2307.4" class="edge-cut"/>
<line x1="2846.0" y1="2307.4" x2="2846.0" y2="2098.1" class="edge-cut"/>
<line x1="2491.2" y1="1754.3" x2="3134.6" y2="2397.7" class="edge-t"/>
<line x1="2386.5" y1="1858.9" x2="3030.0" y2="2502.4" class="edge-g"/>
<polygon points="1886.9,3639.1 1782.2,3743.8 1138.8,3100.3 1243.4,2995.7 1886.9,3639.1" class="cut-full"/>
<polygon points="1688.3,3452.0 1477.1,3240.9 1372.5,3345.5 1479.0,3452.0 1688.3,3452.0" class="cut-used"/>
<polygon points="1688.3,3452.0 1477.1,3240.9 1372.5,3345.5 1479.0,3452.0 1688.3,3452.0" class="cut-hatch"/>
<line x1="1688.3" y1="3452.0" x2="1477.1" y2="3240.9" class="edge-cut"/>
<line x1="1477.1" y1="3240.9" x2="1372.5" y2="3345.5" class="edge-cut"/>
<line x1="1372.5" y1="3345.5" x2="1479.0" y2="3452.0" class="edge-cut"/>
<line x1="1479.0" y1="3452.0" x2="1688.3" y2="3452.0" class="edge-cut"/>
<line x1="1243.4" y1="2995.7" x2="1886.9" y2="3639.1" class="edge-t"/>
<line x1="1138.8" y1="3100.3" x2="1782.2" y2="3743.8" class="edge-g"/>
<polygon points="459.0,3047.2 354.3,3151.8 -289.2,2508.4 -184.5,2403.7 459.0,3047.2" class="cut-full"/>
<polygon points="10.0,2820.2 101.1,2911.4 205.8,2806.7 10.0,2610.9 10.0,2820.2" class="cut-used"/>
<polygon points="10.0,2820.2 101.1,2911.4 205.8,2806.7 10.0,2610.9 10.0,2820.2" class="cut-hatch"/>
<line x1="10.0" y1="2820.2" x2="101.1" y2="2911.4" class="edge-cut"/>
<line x1="101.1" y1="2911.4" x2="205.8" y2="2806.7" class="edge-cut"/>
<line x1="205.8" y1="2806.7" x2="10.0" y2="2610.9" class="edge-cut"/>
<line x1="10.0" y1="2610.9" x2="10.0" y2="2820.2" class="edge-cut"/>
<line x1="-184.5" y1="2403.7" x2="459.0" y2="3047.2" class="edge-t"/>
<line x1="-289.2" y1="2508.4" x2="354.3" y2="3151.8" class="edge-g"/>
<polygon points="451.6,1573.1 346.9,1677.8 -296.5,1034.3 -191.9,929.6 451.6,1573.1" class="cut-full"/>
<polygon points="10.0,1355.1 85.6,1430.7 190.2,1326.0 10.0,1145.8 10.0,1355.1" class="cut-used"/>
<polygon points="10.0,1355.1 85.6,1430.7 190.2,1326.0 10.0,1145.8 10.0,1355.1" class="cut-hatch"/>
<line x1="10.0" y1="1355.1" x2="85.6" y2="1430.7" class="edge-cut"/>
<line x1="85.6" y1="1430.7" x2="190.2" y2="1326.0" class="edge-cut"/>
<line x1="190.2" y1="1326.0" x2="10.0" y2="1145.8" class="edge-cut"/>
<line x1="10.0" y1="1145.8" x2="10.0" y2="1355.1" class="edge-cut"/>
<line x1="-191.9" y1="929.6" x2="451.6" y2="1573.1" class="edge-t"/>
<line x1="-296.5" y1="1034.3" x2="346.9" y2="1677.8" class="edge-g"/>
<polygon points="1699.3,339.7 1594.7,444.4 951.2,-199.1 1055.9,-303.7 1699.3,339.7" class="cut-full"/>
<polygon points="1176.5,10.0 1341.4,174.9 1446.0,70.2 1385.8,10.0 1176.5,10.0" class="cut-used"/>
<polygon points="1176.5,10.0 1341.4,174.9 1446.0,70.2 1385.8,10.0 1176.5,10.0" class="cut-hatch"/>
<line x1="1176.5" y1="10.0" x2="1341.4" y2="174.9" class="edge-cut"/>
<line x1="1341.4" y1="174.9" x2="1446.0" y2="70.2" class="edge-cut"/>
<line x1="1446.0" y1="70.2" x2="1385.8" y2="10.0" class="edge-cut"/>
<line x1="1385.8" y1="10.0" x2="1176.5" y2="10.0" class="edge-cut"/>
<line x1="1055.9" y1="-303.7" x2="1699.3" y2="339.7" class="edge-t"/>
<line x1="951.2" y1="-199.1" x2="1594.7" y2="444.4" class="edge-g"/>
<polygon points="455.1,3650.3 350.5,3755.0 -293.0,3111.5 -188.3,3006.9 455.1,3650.3" class="cut-full"/>
<polygon points="10.0,3448.2 13.8,3452.0 223.1,3452.0 10.0,3238.9 10.0,3448.2" class="cut-used"/>
<polygon points="10.0,3448.2 13.8,3452.0 223.1,3452.0 10.0,3238.9 10.0,3448.2" class="cut-hatch"/>
<line x1="10.0" y1="3448.2" x2="13.8" y2="3452.0" class="edge-cut"/>
<line x1="13.8" y1="3452.0" x2="223.1" y2="3452.0" class="edge-cut"/>
<line x1="223.1" y1="3452.0" x2="10.0" y2="3238.9" class="edge-cut"/>
<line x1="10.0" y1="3238.9" x2="10.0" y2="3448.2" class="edge-cut"/>
<line x1="-188.3" y1="3006.9" x2="455.1" y2="3650.3" class="edge-t"/>
<line x1="-293.0" y1="3111.5" x2="350.5" y2="3755.0" class="edge-g"/>
<polygon points="349.2,-294.3 453.8,-189.6 -189.6,453.8 -294.3,349.2 349.2,-294.3" class="cut-full"/>
<polygon points="10.0,219.3 219.3,10.0 10.0,10.0 10.0,219.3" class="cut-used"/>
<polygon points="10.0,219.3 219.3,10.0 10.0,10.0 10.0,219.3" class="cut-hatch"/>
<line x1="10.0" y1="219.3" x2="219.3" y2="10.0" class="edge-cut"/>
<line x1="219.3" y1="10.0" x2="10.0" y2="10.0" class="edge-cut"/>
<line x1="10.0" y1="10.0" x2="10.0" y2="219.3" class="edge-cut"/>
<line x1="-294.3" y1="349.2" x2="349.2" y2="-294.3" class="edge-t"/>
<line x1="-189.6" y1="453.8" x2="453.8" y2="-189.6" class="edge-g"/>
<polygon points="3150.2,344.4 3045.6,449.0 2402.1,-194.5 2506.8,-299.1 3150.2,344.4" class="cut-full"/>
<polygon points="2846.0,10.0 2641.6,10.0 2822.1,190.4 2846.0,166.5 2846.0,10.0" class="cut-used"/>
<polygon points="2846.0,10.0 2641.6,10.0 2822.1,190.4 2846.0,166.5 2846.0,10.0" class="cut-hatch"/>
<line x1="2846.0" y1="10.0" x2="2641.6" y2="10.0" class="edge-cut"/>
<line x1="2641.6" y1="10.0" x2="2822.1" y2="190.4" class="edge-cut"/>
<line x1="2822.1" y1="190.4" x2="2846.0" y2="166.5" class="edge-cut"/>
<line x1="2846.0" y1="166.5" x2="2846.0" y2="10.0" class="edge-cut"/>
<line x1="2506.8" y1="-299.1" x2="3150.2" y2="344.4" class="edge-t"/>
<line x1="2402.1" y1="-194.5" x2="3045.6" y2="449.0" class="edge-g"/>
<polygon points="3175.9,777.5 3071.3,882.2 2427.8,238.7 2532.5,134.1 3175.9,777.5" class="cut-full"/>
<polygon points="2846.0,423.7 2822.1,399.7 2717.4,504.4 2846.0,633.0 2846.0,423.7" class="cut-used"/>
<polygon points="2846.0,423.7 2822.1,399.7 2717.4,504.4 2846.0,633.0 2846.0,423.7" class="cut-hatch"/>
<line x1="2846.0" y1="423.7" x2="2822.1" y2="399.7" class="edge-cut"/>
<line x1="2822.1" y1="399.7" x2="2717.4" y2="504.4" class="edge-cut"/>
<line x1="2717.4" y1="504.4" x2="2846.0" y2="633.0" class="edge-cut"/>
<line x1="2846.0" y1="633.0" x2="2846.0" y2="423.7" class="edge-cut"/>
<line x1="2532.5" y1="134.1" x2="3175.9" y2="777.5" class="edge-t"/>
<line x1="2427.8" y1="238.7" x2="3071.3" y2="882.2" class="edge-g"/>
<polygon points="3182.2,2255.0 3077.5,2359.7 2434.1,1716.2 2538.7,1611.6 3182.2,2255.0" class="cut-full"/>
<polygon points="2846.0,1888.8 2837.6,1880.4 2733.0,1985.1 2846.0,2098.1 2846.0,1888.8" class="cut-used"/>
<polygon points="2846.0,1888.8 2837.6,1880.4 2733.0,1985.1 2846.0,2098.1 2846.0,1888.8" class="cut-hatch"/>
<line x1="2846.0" y1="1888.8" x2="2837.6" y2="1880.4" class="edge-cut"/>
<line x1="2837.6" y1="1880.4" x2="2733.0" y2="1985.1" class="edge-cut"/>
<line x1="2733.0" y1="1985.1" x2="2846.0" y2="2098.1" class="edge-cut"/>
<line x1="2846.0" y1="2098.1" x2="2846.0" y2="1888.8" class="edge-cut"/>
<line x1="2538.7" y1="1611.6" x2="3182.2" y2="2255.0" class="edge-t"/>
<line x1="2434.1" y1="1716.2" x2="3077.5" y2="2359.7" class="edge-g"/>
<polygon points="1746.6,3685.9 1641.9,3790.6 998.5,3147.1 1103.1,3042.4 1746.6,3685.9" class="cut-full"/>
<polygon points="1479.0,3452.0 1372.5,3345.5 1267.8,3450.2 1269.7,3452.0 1479.0,3452.0" class="cut-used"/>
<polygon points="1479.0,3452.0 1372.5,3345.5 1267.8,3450.2 1269.7,3452.0 1479.0,3452.0" class="cut-hatch"/>
<line x1="1479.0" y1="3452.0" x2="1372.5" y2="3345.5" class="edge-cut"/>
<line x1="1372.5" y1="3345.5" x2="1267.8" y2="3450.2" class="edge-cut"/>
<line x1="1267.8" y1="3450.2" x2="1269.7" y2="3452.0" class="edge-cut"/>
<line x1="1269.7" y1="3452.0" x2="1479.0" y2="3452.0" class="edge-cut"/>
<line x1="1103.1" y1="3042.4" x2="1746.6" y2="3685.9" class="edge-t"/>
<line x1="998.5" y1="3147.1" x2="1641.9" y2="3790.6" class="edge-g"/>
<polygon points="1893.6,-333.6 1998.3,-229.0 1354.8,414.5 1250.2,309.8 1893.6,-333.6" class="cut-full"/>
<polygon points="1532.9,10.0 1624.2,101.3 1715.5,10.0 1532.9,10.0" class="cut-used"/>
<polygon points="1532.9,10.0 1624.2,101.3 1715.5,10.0 1532.9,10.0" class="cut-hatch"/>
<line x1="1532.9" y1="10.0" x2="1624.2" y2="101.3" class="edge-cut"/>
<line x1="1624.2" y1="101.3" x2="1715.5" y2="10.0" class="edge-cut"/>
<line x1="1715.5" y1="10.0" x2="1532.9" y2="10.0" class="edge-cut"/>
<line x1="1250.2" y1="309.8" x2="1893.6" y2="-333.6" class="edge-t"/>
<line x1="1354.8" y1="414.5" x2="1998.3" y2="-229.0" class="edge-g"/>
<polygon points="414.4,3180.8 309.8,3285.4 -333.7,2642.0 -229.0,2537.3 414.4,3180.8" class="cut-full"/>
<polygon points="10.0,3002.5 101.1,2911.4 10.0,2820.2 10.0,3002.5" class="cut-used"/>
<polygon points="10.0,3002.5 101.1,2911.4 10.0,2820.2 10.0,3002.5" class="cut-hatch"/>
<line x1="10.0" y1="3002.5" x2="101.1" y2="2911.4" class="edge-cut"/>
<line x1="101.1" y1="2911.4" x2="10.0" y2="2820.2" class="edge-cut"/>
<line x1="10.0" y1="2820.2" x2="10.0" y2="3002.5" class="edge-cut"/>
<line x1="-229.0" y1="2537.3" x2="414.4" y2="3180.8" class="edge-t"/>
<line x1="-333.7" y1="2642.0" x2="309.8" y2="3285.4" class="edge-g"/>
<polygon points="409.2,1700.1 304.6,1804.7 -338.9,1161.3 -234.2,1056.6 409.2,1700.1" class="cut-full"/>
<polygon points="10.0,1506.2 85.6,1430.7 10.0,1355.1 10.0,1506.2" class="cut-used"/>
<polygon points="10.0,1506.2 85.6,1430.7 10.0,1355.1 10.0,1506.2" class="cut-hatch"/>
<line x1="10.0" y1="1506.2" x2="85.6" y2="1430.7" class="edge-cut"/>
<line x1="85.6" y1="1430.7" x2="10.0" y2="1355.1" class="edge-cut"/>
<line x1="10.0" y1="1355.1" x2="10.0" y2="1506.2" class="edge-cut"/>
<line x1="-234.2" y1="1056.6" x2="409.2" y2="1700.1" class="edge-t"/>
<line x1="-338.9" y1="1161.3" x2="304.6" y2="1804.7" class="edge-g"/>
<polygon points="1820.1,299.5 1715.4,404.1 1072.0,-239.3 1176.6,-344.0 1820.1,299.5" class="cut-full"/>
<polygon points="1385.8,10.0 1446.0,70.2 1506.2,10.0 1385.8,10.0" class="cut-used"/>
<polygon points="1385.8,10.0 1446.0,70.2 1506.2,10.0 1385.8,10.0" class="cut-hatch"/>
<line x1="1385.8" y1="10.0" x2="1446.0" y2="70.2" class="edge-cut"/>
<line x1="1446.0" y1="70.2" x2="1506.2" y2="10.0" class="edge-cut"/>
<line x1="1506.2" y1="10.0" x2="1385.8" y2="10.0" class="edge-cut"/>
<line x1="1176.6" y1="-344.0" x2="1820.1" y2="299.5" class="edge-t"/>
<line x1="1072.0" y1="-239.3" x2="1715.4" y2="404.1" class="edge-g"/>
<polygon points="3192.1,3693.5 3087.5,3798.1 2444.0,3154.7 2548.7,3050.0 3192.1,3693.5" class="cut-full"/>
<polygon points="2846.0,3452.0 2846.0,3368.3 2762.3,3452.0 2846.0,3452.0" class="cut-used"/>
<polygon points="2846.0,3452.0 2846.0,3368.3 2762.3,3452.0 2846.0,3452.0" class="cut-hatch"/>
<line x1="2846.0" y1="3452.0" x2="2846.0" y2="3368.3" class="edge-cut"/>
<line x1="2846.0" y1="3368.3" x2="2762.3" y2="3452.0" class="edge-cut"/>
<line x1="2762.3" y1="3452.0" x2="2846.0" y2="3452.0" class="edge-cut"/>
<line x1="2548.7" y1="3050.0" x2="3192.1" y2="3693.5" class="edge-t"/>
<line x1="2444.0" y1="3154.7" x2="3087.5" y2="3798.1" class="edge-g"/>
</g>
<text x="726.1" y="1610.7" class="dim">2856mm</text>
<text x="1356.1" y="853.4" class="dim" transform="rotate(-90,1356.1,853.4)">3462mm</text>
<g>
<rect x="1113.7" y="320.6" width="20" height="10" rx="2" class="lbl-bg"/>
<text x="1123.7" y="325.6" class="lbl">1</text>
<rect x="302.6" y="1395.5" width="20" height="10" rx="2" class="lbl-bg"/>
<text x="312.6" y="1400.5" class="lbl">2</text>
<rect x="371.0" y="1149.5" width="20" height="10" rx="2" class="lbl-bg"/>
<text x="381.0" y="1154.5" class="lbl">3</text>
<rect x="924.8" y="1389.0" width="20" height="10" rx="2" class="lbl-bg"/>
<text x="934.8" y="1394.0" class="lbl">4</text>
<rect x="880.8" y="1345.0" width="20" height="10" rx="2" class="lbl-bg"/>
<text x="890.8" y="1350.0" class="lbl">5</text>
<rect x="836.8" y="1301.1" width="20" height="10" rx="2" class="lbl-bg"/>
<text x="846.8" y="1306.1" class="lbl">6</text>
<rect x="792.9" y="1257.1" width="20" height="10" rx="2" class="lbl-bg"/>
<text x="802.9" y="1262.1" class="lbl">7</text>
<rect x="748.9" y="1213.1" width="20" height="10" rx="2" class="lbl-bg"/>
<text x="758.9" y="1218.1" class="lbl">8</text>
<rect x="704.9" y="1169.1" width="20" height="10" rx="2" class="lbl-bg"/>
<text x="714.9" y="1174.1" class="lbl">9</text>
<rect x="660.9" y="1125.2" width="20" height="10" rx="2" class="lbl-bg"/>
<text x="670.9" y="1130.2" class="lbl">10</text>
<rect x="617.0" y="1081.2" width="20" height="10" rx="2" class="lbl-bg"/>
<text x="627.0" y="1086.2" class="lbl">11</text>
<rect x="573.0" y="1037.2" width="20" height="10" rx="2" class="lbl-bg"/>
<text x="583.0" y="1042.2" class="lbl">12</text>
<rect x="529.0" y="993.3" width="20" height="10" rx="2" class="lbl-bg"/>
<text x="539.0" y="998.3" class="lbl">13</text>
<rect x="485.1" y="949.3" width="20" height="10" rx="2" class="lbl-bg"/>
<text x="495.1" y="954.3" class="lbl">14</text>
<rect x="441.1" y="905.3" width="20" height="10" rx="2" class="lbl-bg"/>
<text x="451.1" y="910.3" class="lbl">15</text>
<rect x="397.1" y="861.3" width="20" height="10" rx="2" class="lbl-bg"/>
<text x="407.1" y="866.3" class="lbl">16</text>
<rect x="353.1" y="817.4" width="20" height="10" rx="2" class="lbl-bg"/>
<text x="363.1" y="822.4" class="lbl">17</text>
<rect x="309.2" y="773.4" width="20" height="10" rx="2" class="lbl-bg"/>
<text x="319.2" y="778.4" class="lbl">18</text>
<rect x="955.7" y="1105.6" width="20" height="10" rx="2" class="lbl-bg"/>
<text x="965.7" y="1110.6" class="lbl">19</text>
<rect x="685.3" y="835.2" width="20" height="10" rx="2" class="lbl-bg"/>
<text x="695.3" y="840.2" class="lbl">20</text>
<rect x="414.9" y="564.8" width="20" height="10" rx="2" class="lbl-bg"/>
<text x="424.9" y="569.8" class="lbl">21</text>
<rect x="1151.2" y="986.7" width="20" height="10" rx="2" class="lbl-bg"/>
<text x="1161.2" y="991.7" class="lbl">22</text>
<rect x="1107.2" y="942.8" width="20" height="10" rx="2" class="lbl-bg"/>
<text x="1117.2" y="947.8" class="lbl">23</text>
<rect x="1063.2" y="898.8" width="20" height="10" rx="2" class="lbl-bg"/>
<text x="1073.2" y="903.8" class="lbl">24</text>
<rect x="1019.2" y="854.8" width="20" height="10" rx="2" class="lbl-bg"/>
<text x="1029.2" y="859.8" class="lbl">25</text>
<rect x="975.3" y="810.8" width="20" height="10" rx="2" class="lbl-bg"/>
<text x="985.3" y="815.8" class="lbl">26</text>
<rect x="931.3" y="766.9" width="20" height="10" rx="2" class="lbl-bg"/>
<text x="941.3" y="771.9" class="lbl">27</text>
<rect x="887.3" y="722.9" width="20" height="10" rx="2" class="lbl-bg"/>
<text x="897.3" y="727.9" class="lbl">28</text>
<rect x="843.4" y="678.9" width="20" height="10" rx="2" class="lbl-bg"/>
<text x="853.4" y="683.9" class="lbl">29</text>
<rect x="799.4" y="635.0" width="20" height="10" rx="2" class="lbl-bg"/>
<text x="809.4" y="640.0" class="lbl">30</text>
<rect x="755.4" y="591.0" width="20" height="10" rx="2" class="lbl-bg"/>
<text x="765.4" y="596.0" class="lbl">31</text>
<rect x="711.4" y="547.0" width="20" height="10" rx="2" class="lbl-bg"/>
<text x="721.4" y="552.0" class="lbl">32</text>
<rect x="667.5" y="503.0" width="20" height="10" rx="2" class="lbl-bg"/>
<text x="677.5" y="508.0" class="lbl">33</text>
<rect x="623.5" y="459.1" width="20" height="10" rx="2" class="lbl-bg"/>
<text x="633.5" y="464.1" class="lbl">34</text>
<rect x="579.5" y="415.1" width="20" height="10" rx="2" class="lbl-bg"/>
<text x="589.5" y="420.1" class="lbl">35</text>
<rect x="535.6" y="371.1" width="20" height="10" rx="2" class="lbl-bg"/>
<text x="545.6" y="376.1" class="lbl">36</text>
<rect x="491.6" y="327.2" width="20" height="10" rx="2" class="lbl-bg"/>
<text x="501.6" y="332.2" class="lbl">37</text>
<rect x="447.6" y="283.2" width="20" height="10" rx="2" class="lbl-bg"/>
<text x="457.6" y="288.2" class="lbl">38</text>
<rect x="999.6" y="520.9" width="20" height="10" rx="2" class="lbl-bg"/>
<text x="1009.6" y="525.9" class="lbl">39</text>
<rect x="1157.6" y="364.6" width="20" height="10" rx="2" class="lbl-bg"/>
<text x="1167.6" y="369.6" class="lbl">40</text>
<rect x="641.2" y="1419.7" width="20" height="10" rx="2" class="lbl-bg"/>
<text x="651.2" y="1424.7" class="lbl">41</text>
<rect x="1069.6" y="276.9" width="20" height="10" rx="2" class="lbl-bg"/>
<text x="1079.6" y="281.9" class="lbl">42</text>
<rect x="266.1" y="728.7" width="20" height="10" rx="2" class="lbl-bg"/>
<text x="276.1" y="733.7" class="lbl">43</text>
<rect x="970.4" y="1430.8" width="20" height="10" rx="2" class="lbl-bg"/>
<text x="980.4" y="1435.8" class="lbl-cut">44</text>
<rect x="260.8" y="1349.9" width="20" height="10" rx="2" class="lbl-bg"/>
<text x="270.8" y="1354.9" class="lbl-cut">45</text>
<rect x="349.7" y="1435.7" width="20" height="10" rx="2" class="lbl-bg"/>
<text x="359.7" y="1440.7" class="lbl-cut">46</text>
<rect x="734.3" y="256.6" width="20" height="10" rx="2" class="lbl-bg"/>
<text x="744.3" y="261.6" class="lbl-cut">47</text>
<rect x="1185.5" y="1039.1" width="20" height="10" rx="2" class="lbl-bg"/>
<text x="1195.5" y="1044.1" class="lbl-cut">48</text>
<rect x="394.0" y="250.2" width="20" height="10" rx="2" class="lbl-bg"/>
<text x="404.0" y="255.2" class="lbl-cut">49</text>
<rect x="1188.8" y="420.1" width="20" height="10" rx="2" class="lbl-bg"/>
<text x="1198.8" y="425.1" class="lbl-cut">50</text>
<rect x="1012.9" y="246.9" width="20" height="10" rx="2" class="lbl-bg"/>
<text x="1022.9" y="251.9" class="lbl-cut">51</text>
<rect x="238.7" y="669.4" width="20" height="10" rx="2" class="lbl-bg"/>
<text x="248.7" y="674.4" class="lbl-cut">52</text>
<rect x="1032.0" y="1456.3" width="20" height="10" rx="2" class="lbl-bg"/>
<text x="1042.0" y="1461.3" class="lbl-cut">53</text>
<rect x="235.4" y="1288.3" width="20" height="10" rx="2" class="lbl-bg"/>
<text x="245.4" y="1293.3" class="lbl-cut">54</text>
<rect x="413.1" y="1459.5" width="20" height="10" rx="2" class="lbl-bg"/>
<text x="423.1" y="1464.5" class="lbl-cut">55</text>
<rect x="1201.0" y="1352.3" width="20" height="10" rx="2" class="lbl-bg"/>
<text x="1211.0" y="1357.3" class="lbl-cut">56</text>
<rect x="1207.5" y="1104.7" width="20" height="10" rx="2" class="lbl-bg"/>
<text x="1217.5" y="1109.7" class="lbl-cut">57</text>
<rect x="328.3" y="228.2" width="20" height="10" rx="2" class="lbl-bg"/>
<text x="338.3" y="233.2" class="lbl-cut">58</text>
<rect x="1210.8" y="485.8" width="20" height="10" rx="2" class="lbl-bg"/>
<text x="1220.8" y="490.8" class="lbl-cut">59</text>
<rect x="947.2" y="225.0" width="20" height="10" rx="2" class="lbl-bg"/>
<text x="957.2" y="230.0" class="lbl-cut">60</text>
<rect x="216.8" y="603.7" width="20" height="10" rx="2" class="lbl-bg"/>
<text x="226.8" y="608.7" class="lbl-cut">61</text>
<rect x="1097.7" y="1478.2" width="20" height="10" rx="2" class="lbl-bg"/>
<text x="1107.7" y="1483.2" class="lbl-cut">62</text>
<rect x="213.5" y="1222.6" width="20" height="10" rx="2" class="lbl-bg"/>
<text x="223.5" y="1227.6" class="lbl-cut">63</text>
<rect x="478.8" y="1481.4" width="20" height="10" rx="2" class="lbl-bg"/>
<text x="488.8" y="1486.4" class="lbl-cut">64</text>
<rect x="1222.9" y="745.9" width="20" height="10" rx="2" class="lbl-bg"/>
<text x="1232.9" y="750.9" class="lbl-cut">65</text>
<rect x="1229.4" y="1170.4" width="20" height="10" rx="2" class="lbl-bg"/>
<text x="1239.4" y="1175.4" class="lbl-cut">66</text>
<rect x="262.6" y="206.4" width="20" height="10" rx="2" class="lbl-bg"/>
<text x="272.6" y="211.4" class="lbl-cut">67</text>
<rect x="200.5" y="348.4" width="20" height="10" rx="2" class="lbl-bg"/>
<text x="210.5" y="353.4" class="lbl-cut">68</text>
<rect x="1232.6" y="551.4" width="20" height="10" rx="2" class="lbl-bg"/>
<text x="1242.6" y="556.4" class="lbl-cut">69</text>
<rect x="881.6" y="203.1" width="20" height="10" rx="2" class="lbl-bg"/>
<text x="891.6" y="208.1" class="lbl-cut">70</text>
<rect x="194.9" y="538.1" width="20" height="10" rx="2" class="lbl-bg"/>
<text x="204.9" y="543.1" class="lbl-cut">71</text>
<rect x="1163.2" y="1500.0" width="20" height="10" rx="2" class="lbl-bg"/>
<text x="1173.2" y="1505.0" class="lbl-cut">72</text>
<rect x="191.7" y="1157.0" width="20" height="10" rx="2" class="lbl-bg"/>
<text x="201.7" y="1162.0" class="lbl-cut">73</text>
<rect x="544.3" y="1503.3" width="20" height="10" rx="2" class="lbl-bg"/>
<text x="554.3" y="1508.3" class="lbl-cut">74</text>
<rect x="1251.2" y="1235.8" width="20" height="10" rx="2" class="lbl-bg"/>
<text x="1261.2" y="1240.8" class="lbl-cut">75</text>
<rect x="197.5" y="184.4" width="20" height="10" rx="2" class="lbl-bg"/>
<text x="207.5" y="189.4" class="lbl-cut">76</text>
<rect x="178.7" y="954.5" width="20" height="10" rx="2" class="lbl-bg"/>
<text x="188.7" y="959.5" class="lbl-cut">77</text>
<rect x="1254.4" y="616.8" width="20" height="10" rx="2" class="lbl-bg"/>
<text x="1264.4" y="621.8" class="lbl-cut">78</text>
<rect x="816.2" y="181.3" width="20" height="10" rx="2" class="lbl-bg"/>
<text x="826.2" y="186.3" class="lbl-cut">79</text>
<rect x="173.1" y="472.8" width="20" height="10" rx="2" class="lbl-bg"/>
<text x="183.1" y="477.8" class="lbl-cut">80</text>
<rect x="1228.4" y="1521.8" width="20" height="10" rx="2" class="lbl-bg"/>
<text x="1238.4" y="1526.8" class="lbl-cut">81</text>
<rect x="169.9" y="1091.8" width="20" height="10" rx="2" class="lbl-bg"/>
<text x="179.9" y="1096.8" class="lbl-cut">82</text>
<rect x="609.4" y="1525.0" width="20" height="10" rx="2" class="lbl-bg"/>
<text x="619.4" y="1530.0" class="lbl-cut">83</text>
<rect x="1268.2" y="168.9" width="20" height="10" rx="2" class="lbl-bg"/>
<text x="1278.2" y="173.9" class="lbl-cut">84</text>
<rect x="1272.8" y="1300.6" width="20" height="10" rx="2" class="lbl-bg"/>
<text x="1282.8" y="1305.6" class="lbl-cut">85</text>
<rect x="1275.9" y="681.4" width="20" height="10" rx="2" class="lbl-bg"/>
<text x="1285.9" y="686.4" class="lbl-cut">86</text>
<rect x="751.7" y="159.8" width="20" height="10" rx="2" class="lbl-bg"/>
<text x="761.7" y="164.8" class="lbl-cut">87</text>
<rect x="151.7" y="408.5" width="20" height="10" rx="2" class="lbl-bg"/>
<text x="161.7" y="413.5" class="lbl-cut">88</text>
<rect x="148.6" y="1027.9" width="20" height="10" rx="2" class="lbl-bg"/>
<text x="158.6" y="1032.9" class="lbl-cut">89</text>
<rect x="672.9" y="1546.1" width="20" height="10" rx="2" class="lbl-bg"/>
<text x="682.9" y="1551.1" class="lbl-cut">90</text>
<rect x="150.1" y="155.1" width="20" height="10" rx="2" class="lbl-bg"/>
<text x="160.1" y="160.1" class="lbl-cut">91</text>
<rect x="149.6" y="1542.2" width="20" height="10" rx="2" class="lbl-bg"/>
<text x="159.6" y="1547.2" class="lbl-cut">92</text>
<rect x="1282.5" y="1544.2" width="20" height="10" rx="2" class="lbl-bg"/>
<text x="1292.5" y="1549.2" class="lbl-cut">93</text>
<rect x="1293.3" y="1362.2" width="20" height="10" rx="2" class="lbl-bg"/>
<text x="1303.3" y="1367.2" class="lbl-cut">94</text>
<rect x="1295.9" y="741.4" width="20" height="10" rx="2" class="lbl-bg"/>
<text x="1305.9" y="746.4" class="lbl-cut">95</text>
<rect x="692.7" y="140.2" width="20" height="10" rx="2" class="lbl-bg"/>
<text x="702.7" y="145.2" class="lbl-cut">96</text>
<rect x="798.5" y="1558.7" width="20" height="10" rx="2" class="lbl-bg"/>
<text x="808.5" y="1563.7" class="lbl-cut">97</text>
<rect x="133.0" y="352.4" width="20" height="10" rx="2" class="lbl-bg"/>
<text x="143.0" y="357.4" class="lbl-cut">98</text>
<rect x="130.8" y="974.5" width="20" height="10" rx="2" class="lbl-bg"/>
<text x="140.8" y="979.5" class="lbl-cut">99</text>
<rect x="723.6" y="1563.0" width="20" height="10" rx="2" class="lbl-bg"/>
<text x="733.6" y="1568.0" class="lbl-cut">100</text>
<rect x="1300.1" y="137.0" width="20" height="10" rx="2" class="lbl-bg"/>
<text x="1310.1" y="142.0" class="lbl-cut">101</text>
</g>
<rect x="1262.1008403361345" y="1596.7226890756303" width="170" height="60" rx="4" class="legend"/><g transform="translate(1272.1008403361345,1606.7226890756303)"><line x1="0" y1="0" x2="30" y2="0" class="edge-t"/></g><text x="1312.1008403361345" y="1611.7226890756303" class="legend-t">公榫</text><g transform="translate(1272.1008403361345,1624.7226890756303)"><line x1="0" y1="10" x2="30" y2="10" class="edge-g"/></g><text x="1312.1008403361345" y="1629.7226890756303" class="legend-t">母榫</text><g transform="translate(1272.1008403361345,1642.7226890756303)"><line x1="0" y1="20" x2="30" y2="20" class="edge-cut"/></g><text x="1312.1008403361345" y="1647.7226890756303" class="legend-t">切割边</text>
</svg>