<?xml version="1.0" encoding="UTF-8"?>
<svg xmlns="http://www.w3.org/2000/svg" viewBox="0 0 1452 1707" width="1452" height="1707">
<defs>
<pattern id="hatch" width="6" height="6" patternTransform="rotate(45)" patternUnits="userSpaceOnUse">
<line x1="0" y1="0" x2="0" y2="6" stroke="#e44" stroke-width="1.5" opacity="0.35"/>
</pattern>
</defs>
<style>
  .room      { fill: #fafafa; stroke: #333; stroke-width: 3; }
  .area      { fill: none; stroke: #999; stroke-width: 1.5; stroke-dasharray: 8,4; }
  .board     { fill: #e8d5b0; stroke: #b8945c; stroke-width: 1; }
  .cut-full  { fill: none; stroke: #bbb; stroke-width: 0.8; stroke-dasharray: 3,3; }
  .cut-used  { fill: #d4b896; stroke: #c44; stroke-width: 2; }
  .cut-hatch { fill: url(#hatch); stroke: none; }
  .edge-t    { fill: none; stroke: #4a8; stroke-width: 2; }
  .edge-g    { fill: none; stroke: #c84; stroke-width: 2; stroke-dasharray: 5,3; }
  .edge-cut  { fill: none; stroke: #e44; stroke-width: 2.5; }
  .dim       { fill: #666; font-size: 11px; font-family: sans-serif; text-anchor: middle; }
  .lbl       { fill: #333; font-size: 9px; font-family: sans-serif; text-anchor: middle; dominant-baseline: central; }
  .lbl-cut   { fill: #c00; font-size: 9px; font-family: sans-serif; text-anchor: middle; dominant-baseline: central; font-weight: bold; }
  .lbl-bg    { fill: #fff; fill-opacity: 0.8; }
  .legend    { fill: #fff; stroke: #ccc; stroke-width: 1; }
  .legend-t  { font-size: 10px; font-family: sans-serif; fill: #333; }
</style>
<g transform="translate(126.1,1580.7) scale(0.4202,-0.4202)">
<polygon points="10.0,10.0 10.0,3452.0 2846.0,3452.0 2846.0,10.0 10.0,10.0" class="area"/>
<polygon points="0.0,0.0 2856.0,0.0 2856.0,3462.0 0.0,3462.0 0.0,0.0" class="room"/>
<rect x="-265.0" y="285.0" width="700.0" height="150.0" transform="rotate(90.0,85.0,360.0)" class="board"/>
<line x1="160.0" y1="10.0" x2="160.0" y2="710.0" class="edge-t"/>
<line x1="10.0" y1="10.0" x2="10.0" y2="710.0" class="edge-g"/>
<rect x="-265.0" y="985.0" width="700.0" height="150.0" transform="rotate(90.0,85.0,1060.0)" class="board"/>
<line x1="160.0" y1="710.0" x2="160.0" y2="1410.0" class="edge-t"/>
<line x1="10.0" y1="710.0" x2="10.0" y2="1410.0" class="edge-g"/>
<rect x="-265.0" y="1685.0" width="700.0" height="150.0" transform="rotate(90.0,85.0,1760.0)" class="board"/>
<line x1="160.0" y1="1410.0" x2="160.0" y2="2110.0" class="edge-t"/>
<line x1="10.0" y1="1410.0" x2="10.0" y2="2110.0" class="edge-g"/>
<rect x="-265.0" y="2385.0" width="700.0" height="150.0" transform="rotate(90.0,85.0,2460.0)" class="board"/>
<line x1="160.0" y1="2110.0" x2="160.0" y2="2810.0" class="edge-t"/>
<line x1="10.0" y1="2110.0" x2="10.0" y2="2810.0" class="edge-g"/>
<polygon points="160.0,3452.0 10.0,3452.0 10.0,2810.0 160.0,2810.0 160.0,3452.0" class="cut-full"/>
<polygon points="10.0,3452.0 160.0,3452.0 160.0,2810.0 10.0,2810.0 10.0,3452.0" class="cut-used"/>
<polygon points="10.0,3452.0 160.0,3452.0 160.0,2810.0 10.0,2810.0 10.0,3452.0" class="cut-hatch"/>
<line x1="10.0" y1="3452.0" x2="160.0" y2="3452.0" class="edge-cut"/>
<line x1="160.0" y1="3452.0" x2="160.0" y2="2810.0" class="edge-cut"/>
<line x1="160.0" y1="2810.0" x2="10.0" y2="2810.0" class="edge-cut"/>
<line x1="10.0" y1="2810.0" x2="10.0" y2="3452.0" class="edge-cut"/>
<line x1="160.0" y1="2810.0" x2="160.0" y2="3452.0" class="edge-t"/>
<line x1="10.0" y1="2810.0" x2="10.0" y2="3452.0" class="edge-g"/>
<polygon points="237.5,360.0 87.5,360.0 87.5,10.0 237.5,10.0 237.5,360.0" class="cut-full"/>
<polygon points="87.5,10.0 87.5,360.0 237.5,360.0 237.5,10.0 87.5,10.0" class="cut-used"/>
<polygon points="87.5,10.0 87.5,360.0 237.5,360.0 237.5,10.0 87.5,10.0" class="cut-hatch"/>
<line x1="87.5" y1="10.0" x2="87.5" y2="360.0" class="edge-cut"/>
<line x1="87.5" y1="360.0" x2="237.5" y2="360.0" class="edge-cut"/>
<line x1="237.5" y1="360.0" x2="237.5" y2="10.0" class="edge-cut"/>
<line x1="237.5" y1="10.0" x2="87.5" y2="10.0" class="edge-cut"/>
<line x1="237.5" y1="10.0" x2="237.5" y2="360.0" class="edge-t"/>
<line x1="87.5" y1="10.0" x2="87.5" y2="360.0" class="edge-g"/>
<rect x="-187.5" y="635.0" width="700.0" height="150.0" transform="rotate(90.0,162.5,710.0)" class="board"/>
<line x1="237.5" y1="360.0" x2="237.5" y2="1060.0" class="edge-t"/>
<line x1="87.5" y1="360.0" x2="87.5" y2="1060.0" class="edge-g"/>
<rect x="-187.5" y="1335.0" width="700.0" height="150.0" transform="rotate(90.0,162.5,1410.0)" class="board"/>
<line x1="237.5" y1="1060.0" x2="237.5" y2="1760.0" class="edge-t"/>
<line x1="87.5" y1="1060.0" x2="87.5" y2="1760.0" class="edge-g"/>
<rect x="-187.5" y="2035.0" width="700.0" height="150.0" transform="rotate(90.0,162.5,2110.0)" class="board"/>
<line x1="237.5" y1="1760.0" x2="237.5" y2="2460.0" class="edge-t"/>
<line x1="87.5" y1="1760.0" x2="87.5" y2="2460.0" class="edge-g"/>
<rect x="-187.5" y="2735.0" width="700.0" height="150.0" transform="rotate(90.0,162.5,2810.0)" class="board"/>
<line x1="237.5" y1="2460.0" x2="237.5" y2="3160.0" class="edge-t"/>
<line x1="87.5" y1="2460.0" x2="87.5" y2="3160.0" class="edge-g"/>
<polygon points="237.5,3452.0 87.5,3452.0 87.5,3160.0 237.5,3160.0 237.5,3452.0" class="cut-full"/>
<polygon points="237.5,3452.0 237.5,3160.0 87.5,3160.0 87.5,3452.0 237.5,3452.0" class="cut-used"/>
<polygon points="237.5,3452.0 237.5,3160.0 87.5,3160.0 87.5,3452.0 237.5,3452.0" class="cut-hatch"/>
<line x1="237.5" y1="3452.0" x2="237.5" y2="3160.0" class="edge-cut"/>
<line x1="237.5" y1="3160.0" x2="87.5" y2="3160.0" class="edge-cut"/>
<line x1="87.5" y1="3160.0" x2="87.5" y2="3452.0" class="edge-cut"/>
<line x1="87.5" y1="3452.0" x2="237.5" y2="3452.0" class="edge-cut"/>
<line x1="237.5" y1="3160.0" x2="237.5" y2="3452.0" class="edge-t"/>
<line x1="87.5" y1="3160.0" x2="87.5" y2="3452.0" class="edge-g"/>
<rect x="-37.5" y="285.0" width="700.0" height="150.0" transform="rotate(90.0,312.5,360.0)" class="board"/>
<line x1="387.5" y1="10.0" x2="387.5" y2="710.0" class="edge-t"/>
<line x1="237.5" y1="10.0" x2="237.5" y2="710.0" class="edge-g"/>
<rect x="-37.5" y="985.0" width="700.0" height="150.0" transform="rotate(90.0,312.5,1060.0)" class="board"/>
<line x1="387.5" y1="710.0" x2="387.5" y2="1410.0" class="edge-t"/>
<line x1="237.5" y1="710.0" x2="237.5" y2="1410.0" class="edge-g"/>
<rect x="-37.5" y="1685.0" width="700.0" height="150.0" transform="rotate(90.0,312.5,1760.0)" class="board"/>
<line x1="387.5" y1="1410.0" x2="387.5" y2="2110.0" class="edge-t"/>
<line x1="237.5" y1="1410.0" x2="237.5" y2="2110.0" class="edge-g"/>
<rect x="-37.5" y="2385.0" width="700.0" height="150.0" transform="rotate(90.0,312.5,2460.0)" class="board"/>
<line x1="387.5" y1="2110.0" x2="387.5" y2="2810.0" class="edge-t"/>
<line x1="237.5" y1="2110.0" x2="237.5" y2="2810.0" class="edge-g"/>
<polygon points="387.5,3452.0 237.5,3452.0 237.5,2810.0 387.5,2810.0 387.5,3452.0" class="cut-full"/>
<polygon points="387.5,3452.0 387.5,2810.0 237.5,2810.0 237.5,3452.0 387.5,3452.0" class="cut-used"/>
<polygon points="387.5,3452.0 387.5,2810.0 237.5,2810.0 237.5,3452.0 387.5,3452.0" class="cut-hatch"/>
<line x1="387.5" y1="3452.0" x2="387.5" y2="2810.0" class="edge-cut"/>
<line x1="387.5" y1="2810.0" x2="237.5" y2="2810.0" class="edge-cut"/>
<line x1="237.5" y1="2810.0" x2="237.5" y2="3452.0" class="edge-cut"/>
<line x1="237.5" y1="3452.0" x2="387.5" y2="3452.0" class="edge-cut"/>
<line x1="387.5" y1="2810.0" x2="387.5" y2="3452.0" class="edge-t"/>
<line x1="237.5" y1="2810.0" x2="237.5" y2="3452.0" class="edge-g"/>
<polygon points="537.5,360.0 387.5,360.0 387.5,10.0 537.5,10.0 537.5,360.0" class="cut-full"/>
<polygon points="387.5,10.0 387.5,360.0 537.5,360.0 537.5,10.0 387.5,10.0" class="cut-used"/>
<polygon points="387.5,10.0 387.5,360.0 537.5,360.0 537.5,10.0 387.5,10.0" class="cut-hatch"/>
<line x1="387.5" y1="10.0" x2="387.5" y2="360.0" class="edge-cut"/>
<line x1="387.5" y1="360.0" x2="537.5" y2="360.0" class="edge-cut"/>
<line x1="537.5" y1="360.0" x2="537.5" y2="10.0" class="edge-cut"/>
<line x1="537.5" y1="10.0" x2="387.5" y2="10.0" class="edge-cut"/>
<line x1="537.5" y1="10.0" x2="537.5" y2="360.0" class="edge-t"/>
<line x1="387.5" y1="10.0" x2="387.5" y2="360.0" class="edge-g"/>
<rect x="112.5" y="635.0" width="700.0" height="150.0" transform="rotate(90.0,462.5,710.0)" class="board"/>
<line x1="537.5" y1="360.0" x2="537.5" y2="1060.0" class="edge-t"/>
<line x1="387.5" y1="360.0" x2="387.5" y2="1060.0" class="edge-g"/>
<rect x="112.5" y="1335.0" width="700.0" height="150.0" transform="rotate(90.0,462.5,1410.0)" class="board"/>
<line x1="537.5" y1="1060.0" x2="537.5" y2="1760.0" class="edge-t"/>
<line x1="387.5" y1="1060.0" x2="387.5" y2="1760.0" class="edge-g"/>
<rect x="112.5" y="2035.0" width="700.0" height="150.0" transform="rotate(90.0,462.5,2110.0)" class="board"/>
<line x1="537.5" y1="1760.0" x2="537.5" y2="2460.0" class="edge-t"/>
<line x1="387.5" y1="1760.0" x2="387.5" y2="2460.0" class="edge-g"/>
<rect x="112.5" y="2735.0" width="700.0" height="150.0" transform="rotate(90.0,462.5,2810.0)" class="board"/>
<line x1="537.5" y1="2460.0" x2="537.5" y2="3160.0" class="edge-t"/>
<line x1="387.5" y1="2460.0" x2="387.5" y2="3160.0" class="edge-g"/>
<polygon points="537.5,3452.0 387.5,3452.0 387.5,3160.0 537.5,3160.0 537.5,3452.0" class="cut-full"/>
<polygon points="537.5,3452.0 537.5,3160.0 387.5,3160.0 387.5,3452.0 537.5,3452.0" class="cut-used"/>
<polygon points="537.5,3452.0 537.5,3160.0 387.5,3160.0 387.5,3452.0 537.5,3452.0" class="cut-hatch"/>
<line x1="537.5" y1="3452.0" x2="537.5" y2="3160.0" class="edge-cut"/>
<line x1="537.5" y1="3160.0" x2="387.5" y2="3160.0" class="edge-cut"/>
<line x1="387.5" y1="3160.0" x2="387.5" y2="3452.0" class="edge-cut"/>
<line x1="387.5" y1="3452.0" x2="537.5" y2="3452.0" class="edge-cut"/>
<line x1="537.5" y1="3160.0" x2="537.5" y2="3452.0" class="edge-t"/>
<line x1="387.5" y1="3160.0" x2="387.5" y2="3452.0" class="edge-g"/>
<rect x="262.5" y="285.0" width="700.0" height="150.0" transform="rotate(90.0,612.5,360.0)" class="board"/>
<line x1="687.5" y1="10.0" x2="687.5" y2="710.0" class="edge-t"/>
<line x1="537.5" y1="10.0" x2="537.5" y2="710.0" class="edge-g"/>
<rect x="262.5" y="985.0" width="700.0" height="150.0" transform="rotate(90.0,612.5,1060.0)" class="board"/>
<line x1="687.5" y1="710.0" x2="687.5" y2="1410.0" class="edge-t"/>
<line x1="537.5" y1="710.0" x2="537.5" y2="1410.0" class="edge-g"/>
<rect x="262.5" y="1685.0" width="700.0" height="150.0" transform="rotate(90.0,612.5,1760.0)" class="board"/>
<line x1="687.5" y1="1410.0" x2="687.5" y2="2110.0" class="edge-t"/>
<line x1="537.5" y1="1410.0" x2="537.5" y2="2110.0" class="edge-g"/>
<rect x="262.5" y="2385.0" width="700.0" height="150.0" transform="rotate(90.0,612.5,2460.0)" class="board"/>
<line x1="687.5" y1="2110.0" x2="687.5" y2="2810.0" class="edge-t"/>
<line x1="537.5" y1="2110.0" x2="537.5" y2="2810.0" class="edge-g"/>
<polygon points="687.5,3452.0 537.5,3452.0 537.5,2810.0 687.5,2810.0 687.5,3452.0" class="cut-full"/>
<polygon points="687.5,3452.0 687.5,2810.0 537.5,2810.0 537.5,3452.0 687.5,3452.0" class="cut-used"/>
<polygon points="687.5,3452.0 687.5,2810.0 537.5,2810.0 537.5,3452.0 687.5,3452.0" class="cut-hatch"/>
<line x1="687.5" y1="3452.0" x2="687.5" y2="2810.0" class="edge-cut"/>
<line x1="687.5" y1="2810.0" x2="537.5" y2="2810.0" class="edge-cut"/>
<line x1="537.5" y1="2810.0" x2="537.5" y2="3452.0" class="edge-cut"/>
<line x1="537.5" y1="3452.0" x2="687.5" y2="3452.0" class="edge-cut"/>
<line x1="687.5" y1="2810.0" x2="687.5" y2="3452.0" class="edge-t"/>
<line x1="537.5" y1="2810.0" x2="537.5" y2="3452.0" class="edge-g"/>
<polygon points="837.5,360.0 687.5,360.0 687.5,10.0 837.5,10.0 837.5,360.0" class="cut-full"/>
<polygon points="687.5,10.0 687.5,360.0 837.5,360.0 837.5,10.0 687.5,10.0" class="cut-used"/>
<polygon points="687.5,10.0 687.5,360.0 837.5,360.0 837.5,10.0 687.5,10.0" class="cut-hatch"/>
<line x1="687.5" y1="10.0" x2="687.5" y2="360.0" class="edge-cut"/>
<line x1="687.5" y1="360.0" x2="837.5" y2="360.0" class="edge-cut"/>
<line x1="837.5" y1="360.0" x2="837.5" y2="10.0" class="edge-cut"/>
<line x1="837.5" y1="10.0" x2="687.5" y2="10.0" class="edge-cut"/>
<line x1="837.5" y1="10.0" x2="837.5" y2="360.0" class="edge-t"/>
<line x1="687.5" y1="10.0" x2="687.5" y2="360.0" class="edge-g"/>
<rect x="412.5" y="635.0" width="700.0" height="150.0" transform="rotate(90.0,762.5,710.0)" class="board"/>
<line x1="837.5" y1="360.0" x2="837.5" y2="1060.0" class="edge-t"/>
<line x1="687.5" y1="360.0" x2="687.5" y2="1060.0" class="edge-g"/>
<rect x="412.5" y="1335.0" width="700.0" height="150.0" transform="rotate(90.0,762.5,1410.0)" class="board"/>
<line x1="837.5" y1="1060.0" x2="837.5" y2="1760.0" class="edge-t"/>
<line x1="687.5" y1="1060.0" x2="687.5" y2="1760.0" class="edge-g"/>
<rect x="412.5" y="2035.0" width="700.0" height="150.0" transform="rotate(90.0,762.5,2110.0)" class="board"/>
<line x1="837.5" y1="1760.0" x2="837.5" y2="2460.0" class="edge-t"/>
<line x1="687.5" y1="1760.0" x2="687.5" y2="2460.0" class="edge-g"/>
<rect x="412.5" y="2735.0" width="700.0" height="150.0" transform="rotate(90.0,762.5,2810.0)" class="board"/>
<line x1="837.5" y1="2460.0" x2="837.5" y2="3160.0" class="edge-t"/>
<line x1="687.5" y1="2460.0" x2="687.5" y2="3160.0" class="edge-g"/>
<polygon points="837.5,3452.0 687.5,3452.0 687.5,3160.0 837.5,3160.0 837.5,3452.0" class="cut-full"/>
<polygon points="837.5,3452.0 837.5,3160.0 687.5,3160.0 687.5,3452.0 837.5,3452.0" class="cut-used"/>
<polygon points="837.5,3452.0 837.5,3160.0 687.5,3160.0 687.5,3452.0 837.5,3452.0" class="cut-hatch"/>
<line x1="837.5" y1="3452.0" x2="837.5" y2="3160.0" class="edge-cut"/>
<line x1="837.5" y1="3160.0" x2="687.5" y2="3160.0" class="edge-cut"/>
<line x1="687.5" y1="3160.0" x2="687.5" y2="3452.0" class="edge-cut"/>
<line x1="687.5" y1="3452.0" x2="837.5" y2="3452.0" class="edge-cut"/>
<line x1="837.5" y1="3160.0" x2="837.5" y2="3452.0" class="edge-t"/>
<line x1="687.5" y1="3160.0" x2="687.5" y2="3452.0" class="edge-g"/>
<rect x="562.5" y="285.0" width="700.0" height="150.0" transform="rotate(90.0,912.5,360.0)" class="board"/>
<line x1="987.5" y1="10.0" x2="987.5" y2="710.0" class="edge-t"/>
<line x1="837.5" y1="10.0" x2="837.5" y2="710.0" class="edge-g"/>
<rect x="562.5" y="985.0" width="700.0" height="150.0" transform="rotate(90.0,912.5,1060.0)" class="board"/>
<line x1="987.5" y1="710.0" x2="987.5" y2="1410.0" class="edge-t"/>
<line x1="837.5" y1="710.0" x2="837.5" y2="1410.0" class="edge-g"/>
<rect x="562.5" y="1685.0" width="700.0" height="150.0" transform="rotate(90.0,912.5,1760.0)" class="board"/>
<line x1="987.5" y1="1410.0" x2="987.5" y2="2110.0" class="edge-t"/>
<line x1="837.5" y1="1410.0" x2="837.5" y2="2110.0" class="edge-g"/>
<rect x="562.5" y="2385.0" width="700.0" height="150.0" transform="rotate(90.0,912.5,2460.0)" class="board"/>
<line x1="987.5" y1="2110.0" x2="987.5" y2="2810.0" class="edge-t"/>
<line x1="837.5" y1="2110.0" x2="837.5" y2="2810.0" class="edge-g"/>
<polygon points="987.5,3452.0 837.5,3452.0 837.5,2810.0 987.5,2810.0 987.5,3452.0" class="cut-full"/>
<polygon points="987.5,3452.0 987.5,2810.0 837.5,2810.0 837.5,3452.0 987.5,3452.0" class="cut-used"/>
<polygon points="987.5,3452.0 987.5,2810.0 837.5,2810.0 837.5,3452.0 987.5,3452.0" class="cut-hatch"/>
<line x1="987.5" y1="3452.0" x2="987.5" y2="2810.0" class="edge-cut"/>
<line x1="987.5" y1="2810.0" x2="837.5" y2="2810.0" class="edge-cut"/>
<line x1="837.5" y1="2810.0" x2="837.5" y2="3452.0" class="edge-cut"/>
<line x1="837.5" y1="3452.0" x2="987.5" y2="3452.0" class="edge-cut"/>
<line x1="987.5" y1="2810.0" x2="987.5" y2="3452.0" class="edge-t"/>
<line x1="837.5" y1="2810.0" x2="837.5" y2="3452.0" class="edge-g"/>
<polygon points="1137.5,360.0 987.5,360.0 987.5,10.0 1137.5,10.0 1137.5,360.0" class="cut-full"/>
<polygon points="987.5,10.0 987.5,360.0 1137.5,360.0 1137.5,10.0 987.5,10.0" class="cut-used"/>
<polygon points="987.5,10.0 987.5,360.0 1137.5,360.0 1137.5,10.0 987.5,10.0" class="cut-hatch"/>
<line x1="987.5" y1="10.0" x2="987.5" y2="360.0" class="edge-cut"/>
<line x1="987.5" y1="360.0" x2="1137.5" y2="360.0" class="edge-cut"/>
<line x1="1137.5" y1="360.0" x2="1137.5" y2="10.0" class="edge-cut"/>
<line x1="1137.5" y1="10.0" x2="987.5" y2="10.0" class="edge-cut"/>
<line x1="1137.5" y1="10.0" x2="1137.5" y2="360.0" class="edge-t"/>
<line x1="987.5" y1="10.0" x2="987.5" y2="360.0" class="edge-g"/>
<rect x="712.5" y="635.0" width="700.0" height="150.0" transform="rotate(90.0,1062.5,710.0)" class="board"/>
<line x1="1137.5" y1="360.0" x2="1137.5" y2="1060.0" class="edge-t"/>
<line x1="987.5" y1="360.0" x2="987.5" y2="1060.0" class="edge-g"/>
<rect x="712.5" y="1335.0" width="700.0" height="150.0" transform="rotate(90.0,1062.5,1410.0)" class="board"/>
<line x1="1137.5" y1="1060.0" x2="1137.5" y2="1760.0" class="edge-t"/>
<line x1="987.5" y1="1060.0" x2="987.5" y2="1760.0" class="edge-g"/>
<rect x="712.5" y="2035.0" width="700.0" height="150.0" transform="rotate(90.0,1062.5,2110.0)" class="board"/>
<line x1="1137.5" y1="1760.0" x2="1137.5" y2="2460.0" class="edge-t"/>
<line x1="987.5" y1="1760.0" x2="987.5" y2="2460.0" class="edge-g"/>
<rect x="712.5" y="2735.0" width="700.0" height="150.0" transform="rotate(90.0,1062.5,2810.0)" class="board"/>
<line x1="1137.5" y1="2460.0" x2="1137.5" y2="3160.0" class="edge-t"/>
<line x1="987.5" y1="2460.0" x2="987.5" y2="3160.0" class="edge-g"/>
<polygon points="1137.5,3452.0 987.5,3452.0 987.5,3160.0 1137.5,3160.0 1137.5,3452.0" class="cut-full"/>
<polygon points="1137.5,3452.0 1137.5,3160.0 987.5,3160.0 987.5,3452.0 1137.5,3452.0" class="cut-used"/>
<polygon points="1137.5,3452.0 1137.5,3160.0 987.5,3160.0 987.5,3452.0 1137.5,3452.0" class="cut-hatch"/>
<line x1="1137.5" y1="3452.0" x2="1137.5" y2="3160.0" class="edge-cut"/>
<line x1="1137.5" y1="3160.0" x2="987.5" y2="3160.0" class="edge-cut"/>
<line x1="987.5" y1="3160.0" x2="987.5" y2="3452.0" class="edge-cut"/>
<line x1="987.5" y1="3452.0" x2="1137.5" y2="3452.0" class="edge-cut"/>
<line x1="1137.5" y1="3160.0" x2="1137.5" y2="3452.0" class="edge-t"/>
<line x1="987.5" y1="3160.0" x2="987.5" y2="3452.0" class="edge-g"/>
<rect x="862.5" y="285.0" width="700.0" height="150.0" transform="rotate(90.0,1212.5,360.0)" class="board"/>
<line x1="1287.5" y1="10.0" x2="1287.5" y2="710.0" class="edge-t"/>
<line x1="1137.5" y1="10.0" x2="1137.5" y2="710.0" class="edge-g"/>
<rect x="862.5" y="985.0" width="700.0" height="150.0" transform="rotate(90.0,1212.5,1060.0)" class="board"/>
<line x1="1287.5" y1="710.0" x2="1287.5" y2="1410.0" class="edge-t"/>
<line x1="1137.5" y1="710.0" x2="1137.5" y2="1410.0" class="edge-g"/>
<rect x="862.5" y="1685.0" width="700.0" height="150.0" transform="rotate(90.0,1212.5,1760.0)" class="board"/>
<line x1="1287.5" y1="1410.0" x2="1287.5" y2="2110.0" class="edge-t"/>
<line x1="1137.5" y1="1410.0" x2="1137.5" y2="2110.0" class="edge-g"/>
<rect x="862.5" y="2385.0" width="700.0" height="150.0" transform="rotate(90.0,1212.5,2460.0)" class="board"/>
<line x1="1287.5" y1="2110.0" x2="1287.5" y2="2810.0" class="edge-t"/>
<line x1="1137.5" y1="2110.0" x2="1137.5" y2="2810.0" class="edge-g"/>
<polygon points="1287.5,3452.0 1137.5,3452.0 1137.5,2810.0 1287.5,2810.0 1287.5,3452.0" class="cut-full"/>
<polygon points="1287.5,3452.0 1287.5,2810.0 1137.5,2810.0 1137.5,3452.0 1287.5,3452.0" class="cut-used"/>
<polygon points="1287.5,3452.0 1287.5,2810.0 1137.5,2810.0 1137.5,3452.0 1287.5,3452.0" class="cut-hatch"/>
<line x1="1287.5" y1="3452.0" x2="1287.5" y2="2810.0" class="edge-cut"/>
<line x1="1287.5" y1="2810.0" x2="1137.5" y2="2810.0" class="edge-cut"/>
<line x1="1137.5" y1="2810.0" x2="1137.5" y2="3452.0" class="edge-cut"/>
<line x1="1137.5" y1="3452.0" x2="1287.5" y2="3452.0" class="edge-cut"/>
<line x1="1287.5" y1="2810.0" x2="1287.5" y2="3452.0" class="edge-t"/>
<line x1="1137.5" y1="2810.0" x2="1137.5" y2="3452.0" class="edge-g"/>
<polygon points="1437.5,360.0 1287.5,360.0 1287.5,10.0 1437.5,10.0 1437.5,360.0" class="cut-full"/>
<polygon points="1287.5,10.0 1287.5,360.0 1437.5,360.0 1437.5,10.0 1287.5,10.0" class="cut-used"/>
<polygon points="1287.5,10.0 1287.5,360.0 1437.5,360.0 1437.5,10.0 1287.5,10.0" class="cut-hatch"/>
<line x1="1287.5" y1="10.0" x2="1287.5" y2="360.0" class="edge-cut"/>
<line x1="1287.5" y1="360.0" x2="1437.5" y2="360.0" class="edge-cut"/>
<line x1="1437.5" y1="360.0" x2="1437.5" y2="10.0" class="edge-cut"/>
<line x1="1437.5" y1="10.0" x2="1287.5" y2="10.0" class="edge-cut"/>
<line x1="1437.5" y1="10.0" x2="1437.5" y2="360.0" class="edge-t"/>
<line x1="1287.5" y1="10.0" x2="1287.5" y2="360.0" class="edge-g"/>
<rect x="1012.5" y="635.0" width="700.0" height="150.0" transform="rotate(90.0,1362.5,710.0)" class="board"/>
<line x1="1437.5" y1="360.0" x2="1437.5" y2="1060.0" class="edge-t"/>
<line x1="1287.5" y1="360.0" x2="1287.5" y2="1060.0" class="edge-g"/>
<rect x="1012.5" y="1335.0" width="700.0" height="150.0" transform="rotate(90.0,1362.5,1410.0)" class="board"/>
<line x1="1437.5" y1="1060.0" x2="1437.5" y2="1760.0" class="edge-t"/>
<line x1="1287.5" y1="1060.0" x2="1287.5" y2="1760.0" class="edge-g"/>
<rect x="1012.5" y="2035.0" width="700.0" height="150.0" transform="rotate(90.0,1362.5,2110.0)" class="board"/>
<line x1="1437.5" y1="1760.0" x2="1437.5" y2="2460.0" class="edge-t"/>
<line x1="1287.5" y1="1760.0" x2="1287.5" y2="2460.0" class="edge-g"/>
<rect x="1012.5" y="2735.0" width="700.0" height="150.0" transform="rotate(90.0,1362.5,2810.0)" class="board"/>
<line x1="1437.5" y1="2460.0" x2="1437.5" y2="3160.0" class="edge-t"/>
<line x1="1287.5" y1="2460.0" x2="1287.5" y2="3160.0" class="edge-g"/>
<polygon points="1437.5,3452.0 1287.5,3452.0 1287.5,3160.0 1437.5,3160.0 1437.5,3452.0" class="cut-full"/>
<polygon points="1437.5,3452.0 1437.5,3160.0 1287.5,3160.0 1287.5,3452.0 1437.5,3452.0" class="cut-used"/>
<polygon points="1437.5,3452.0 1437.5,3160.0 1287.5,3160.0 1287.5,3452.0 1437.5,3452.0" class="cut-hatch"/>
<line x1="1437.5" y1="3452.0" x2="1437.5" y2="3160.0" class="edge-cut"/>
<line x1="1437.5" y1="3160.0" x2="1287.5" y2="3160.0" class="edge-cut"/>
<line x1="1287.5" y1="3160.0" x2="1287.5" y2="3452.0" class="edge-cut"/>
<line x1="1287.5" y1="3452.0" x2="1437.5" y2="3452.0" class="edge-cut"/>
<line x1="1437.5" y1="3160.0" x2="1437.5" y2="3452.0" class="edge-t"/>
<line x1="1287.5" y1="3160.0" x2="1287.5" y2="3452.0" class="edge-g"/>
<rect x="1162.5" y="285.0" width="700.0" height="150.0" transform="rotate(90.0,1512.5,360.0)" class="board"/>
<line x1="1587.5" y1="10.0" x2="1587.5" y2="710.0" class="edge-t"/>
<line x1="1437.5" y1="10.0" x2="1437.5" y2="710.0" class="edge-g"/>
<rect x="1162.5" y="985.0" width="700.0" height="150.0" transform="rotate(90.0,1512.5,1060.0)" class="board"/>
<line x1="1587.5" y1="710.0" x2="1587.5" y2="1410.0" class="edge-t"/>
<line x1="1437.5" y1="710.0" x2="1437.5" y2="1410.0" class="edge-g"/>
<rect x="1162.5" y="1685.0" width="700.0" height="150.0" transform="rotate(90.0,1512.5,1760.0)" class="board"/>
<line x1="1587.5" y1="1410.0" x2="1587.5" y2="2110.0" class="edge-t"/>
<line x1="1437.5" y1="1410.0" x2="1437.5" y2="2110.0" class="edge-g"/>
<rect x="1162.5" y="2385.0" width="700.0" height="150.0" transform="rotate(90.0,1512.5,2460.0)" class="board"/>
<line x1="1587.5" y1="2110.0" x2="1587.5" y2="2810.0" class="edge-t"/>
<line x1="1437.5" y1="2110.0" x2="1437.5" y2="2810.0" class="edge-g"/>
<polygon points="1587.5,3452.0 1437.5,3452.0 1437.5,2810.0 1587.5,2810.0 1587.5,3452.0" class="cut-full"/>
<polygon points="1587.5,3452.0 1587.5,2810.0 1437.5,2810.0 1437.5,3452.0 1587.5,3452.0" class="cut-used"/>
<polygon points="1587.5,3452.0 1587.5,2810.0 1437.5,2810.0 1437.5,3452.0 1587.5,3452.0" class="cut-hatch"/>
<line x1="1587.5" y1="3452.0" x2="1587.5" y2="2810.0" class="edge-cut"/>
<line x1="1587.5" y1="2810.0" x2="1437.5" y2="2810.0" class="edge-cut"/>
<line x1="1437.5" y1="2810.0" x2="1437.5" y2="3452.0" class="edge-cut"/>
<line x1="1437.5" y1="3452.0" x2="1587.5" y2="3452.0" class="edge-cut"/>
<line x1="1587.5" y1="2810.0" x2="1587.5" y2="3452.0" class="edge-t"/>
<line x1="1437.5" y1="2810.0" x2="1437.5" y2="3452.0" class="edge-g"/>
<polygon points="1737.5,360.0 1587.5,360.0 1587.5,10.0 1737.5,10.0 1737.5,360.0" class="cut-full"/>
<polygon points="1587.5,10.0 1587.5,360.0 1737.5,360.0 1737.5,10.0 1587.5,10.0" class="cut-used"/>
<polygon points="1587.5,10.0 1587.5,360.0 1737.5,360.0 1737.5,10.0 1587.5,10.0" class="cut-hatch"/>
<line x1="1587.5" y1="10.0" x2="1587.5" y2="360.0" class="edge-cut"/>
<line x1="1587.5" y1="360.0" x2="1737.5" y2="360.0" class="edge-cut"/>
<line x1="1737.5" y1="360.0" x2="1737.5" y2="10.0" class="edge-cut"/>
<line x1="1737.5" y1="10.0" x2="1587.5" y2="10.0" class="edge-cut"/>
<line x1="1737.5" y1="10.0" x2="1737.5" y2="360.0" class="edge-t"/>
<line x1="1587.5" y1="10.0" x2="1587.5" y2="360.0" class="edge-g"/>
<rect x="1312.5" y="635.0" width="700.0" height="150.0" transform="rotate(90.0,1662.5,710.0)" class="board"/>
<line x1="1737.5" y1="360.0" x2="1737.5" y2="1060.0" class="edge-t"/>
<line x1="1587.5" y1="360.0" x2="1587.5" y2="1060.0" class="edge-g"/>
<rect x="1312.5" y="1335.0" width="700.0" height="150.0" transform="rotate(90.0,1662.5,1410.0)" class="board"/>
<line x1="1737.5" y1="1060.0" x2="1737.5" y2="1760.0" class="edge-t"/>
<line x1="1587.5" y1="1060.0" x2="1587.5" y2="1760.0" class="edge-g"/>
<rect x="1312.5" y="2035.0" width="700.0" height="150.0" transform="rotate(90.0,1662.5,2110.0)" class="board"/>
<line x1="1737.5" y1="1760.0" x2="1737.5" y2="2460.0" class="edge-t"/>
<line x1="1587.5" y1="1760.0" x2="1587.5" y2="2460.0" class="edge-g"/>
<rect x="1312.5" y="2735.0" width="700.0" height="150.0" transform="rotate(90.0,1662.5,2810.0)" class="board"/>
<line x1="1737.5" y1="2460.0" x2="1737.5" y2="3160.0" class="edge-t"/>
<line x1="1587.5" y1="2460.0" x2="1587.5" y2="3160.0" class="edge-g"/>
<polygon points="1737.5,3452.0 1587.5,3452.0 1587.5,3160.0 1737.5,3160.0 1737.5,3452.0" class="cut-full"/>
<polygon points="1737.5,3452.0 1737.5,3160.0 1587.5,3160.0 1587.5,3452.0 1737.5,3452.0" class="cut-used"/>
<polygon points="1737.5,3452.0 1737.5,3160.0 1587.5,3160.0 1587.5,3452.0 1737.5,3452.0" class="cut-hatch"/>
<line x1="1737.5" y1="3452.0" x2="1737.5" y2="3160.0" class="edge-cut"/>
<line x1="1737.5" y1="3160.0" x2="1587.5" y2="3160.0" class="edge-cut"/>
<line x1="1587.5" y1="3160.0" x2="1587.5" y2="3452.0" class="edge-cut"/>
<line x1="1587.5" y1="3452.0" x2="1737.5" y2="3452.0" class="edge-cut"/>
<line x1="1737.5" y1="3160.0" x2="1737.5" y2="3452.0" class="edge-t"/>
<line x1="1587.5" y1="3160.0" x2="1587.5" y2="3452.0" class="edge-g"/>
<rect x="1462.5" y="285.0" width="700.0" height="150.0" transform="rotate(90.0,1812.5,360.0)" class="board"/>
<line x1="1887.5" y1="10.0" x2="1887.5" y2="710.0" class="edge-t"/>
<line x1="1737.5" y1="10.0" x2="1737.5" y2="710.0" class="edge-g"/>
<rect x="1462.5" y="985.0" width="700.0" height="150.0" transform="rotate(90.0,1812.5,1060.0)" class="board"/>
<line x1="1887.5" y1="710.0" x2="1887.5" y2="1410.0" class="edge-t"/>
<line x1="1737.5" y1="710.0" x2="1737.5" y2="1410.0" class="edge-g"/>
<rect x="1462.5" y="1685.0" width="700.0" height="150.0" transform="rotate(90.0,1812.5,1760.0)" class="board"/>
<line x1="1887.5" y1="1410.0" x2="1887.5" y2="2110.0" class="edge-t"/>
<line x1="1737.5" y1="1410.0" x2="1737.5" y2="2110.0" class="edge-g"/>
<rect x="1462.5" y="2385.0" width="700.0" height="150.0" transform="rotate(90.0,1812.5,2460.0)" class="board"/>
<line x1="1887.5" y1="2110.0" x2="1887.5" y2="2810.0" class="edge-t"/>
<line x1="1737.5" y1="2110.0" x2="1737.5" y2="2810.0" class="edge-g"/>
<polygon points="1887.5,3452.0 1737.5,3452.0 1737.5,2810.0 1887.5,2810.0 1887.5,3452.0" class="cut-full"/>
<polygon points="1887.5,3452.0 1887.5,2810.0 1737.5,2810.0 1737.5,3452.0 1887.5,3452.0" class="cut-used"/>
<polygon points="1887.5,3452.0 1887.5,2810.0 1737.5,2810.0 1737.5,3452.0 1887.5,3452.0" class="cut-hatch"/>
<line x1="1887.5" y1="3452.0" x2="1887.5" y2="2810.0" class="edge-cut"/>
<line x1="1887.5" y1="2810.0" x2="1737.5" y2="2810.0" class="edge-cut"/>
<line x1="1737.5" y1="2810.0" x2="1737.5" y2="3452.0" class="edge-cut"/>
<line x1="1737.5" y1="3452.0" x2="1887.5" y2="3452.0" class="edge-cut"/>
<line x1="1887.5" y1="2810.0" x2="1887.5" y2="3452.0" class="edge-t"/>
<line x1="1737.5" y1="2810.0" x2="1737.5" y2="3452.0" class="edge-g"/>
<polygon points="2037.5,360.0 1887.5,360.0 1887.5,10.0 2037.5,10.0 2037.5,360.0" class="cut-full"/>
<polygon points="1887.5,10.0 1887.5,360.0 2037.5,360.0 2037.5,10.0 1887.5,10.0" class="cut-used"/>
<polygon points="1887.5,10.0 1887.5,360.0 2037.5,360.0 2037.5,10.0 1887.5,10.0" class="cut-hatch"/>
<line x1="1887.5" y1="10.0" x2="1887.5" y2="360.0" class="edge-cut"/>
<line x1="1887.5" y1="360.0" x2="2037.5" y2="360.0" class="edge-cut"/>
<line x1="2037.5" y1="360.0" x2="2037.5" y2="10.0" class="edge-cut"/>
<line x1="2037.5" y1="10.0" x2="1887.5" y2="10.0" class="edge-cut"/>
<line x1="2037.5" y1="10.0" x2="2037.5" y2="360.0" class="edge-t"/>
<line x1="1887.5" y1="10.0" x2="1887.5" y2="360.0" class="edge-g"/>
<rect x="1612.5" y="635.0" width="700.0" height="150.0" transform="rotate(90.0,1962.5,710.0)" class="board"/>
<line x1="2037.5" y1="360.0" x2="2037.5" y2="1060.0" class="edge-t"/>
<line x1="1887.5" y1="360.0" x2="1887.5" y2="1060.0" class="edge-g"/>
<rect x="1612.5" y="1335.0" width="700.0" height="150.0" transform="rotate(90.0,1962.5,1410.0)" class="board"/>
<line x1="2037.5" y1="1060.0" x2="2037.5" y2="1760.0" class="edge-t"/>
<line x1="1887.5" y1="1060.0" x2="1887.5" y2="1760.0" class="edge-g"/>
<rect x="1612.5" y="2035.0" width="700.0" height="150.0" transform="rotate(90.0,1962.5,2110.0)" class="board"/>
<line x1="2037.5" y1="1760.0" x2="2037.5" y2="2460.0" class="edge-t"/>
<line x1="1887.5" y1="1760.0" x2="1887.5" y2="2460.0" class="edge-g"/>
<rect x="1612.5" y="2735.0" width="700.0" height="150.0" transform="rotate(90.0,1962.5,2810.0)" class="board"/>
<line x1="2037.5" y1="2460.0" x2="2037.5" y2="3160.0" class="edge-t"/>
<line x1="1887.5" y1="2460.0" x2="1887.5" y2="3160.0" class="edge-g"/>
<polygon points="2037.5,3452.0 1887.5,3452.0 1887.5,3160.0 2037.5,3160.0 2037.5,3452.0" class="cut-full"/>
<polygon points="2037.5,3452.0 2037.5,3160.0 1887.5,3160.0 1887.5,3452.0 2037.5,3452.0" class="cut-used"/>
<polygon points="2037.5,3452.0 2037.5,3160.0 1887.5,3160.0 1887.5,3452.0 2037.5,3452.0" class="cut-hatch"/>
<line x1="2037.5" y1="3452.0" x2="2037.5" y2="3160.0" class="edge-cut"/>
<line x1="2037.5" y1="3160.0" x2="1887.5" y2="3160.0" class="edge-cut"/>
<line x1="1887.5" y1="3160.0" x2="1887.5" y2="3452.0" class="edge-cut"/>
<line x1="1887.5" y1="3452.0" x2="2037.5" y2="3452.0" class="edge-cut"/>
<line x1="2037.5" y1="3160.0" x2="2037.5" y2="3452.0" class="edge-t"/>
<line x1="1887.5" y1="3160.0" x2="1887.5" y2="3452.0" class="edge-g"/>
<rect x="1762.5" y="285.0" width="700.0" height="150.0" transform="rotate(90.0,2112.5,360.0)" class="board"/>
<line x1="2187.5" y1="10.0" x2="2187.5" y2="710.0" class="edge-t"/>
<line x1="2037.5" y1="10.0" x2="2037.5" y2="710.0" class="edge-g"/>
<rect x="1762.5" y="985.0" width="700.0" height="150.0" transform="rotate(90.0,2112.5,1060.0)" class="board"/>
<line x1="2187.5" y1="710.0" x2="2187.5" y2="1410.0" class="edge-t"/>
<line x1="2037.5" y1="710.0" x2="2037.5" y2="1410.0" class="edge-g"/>
<rect x="1762.5" y="1685.0" width="700.0" height="150.0" transform="rotate(90.0,2112.5,1760.0)" class="board"/>
<line x1="2187.5" y1="1410.0" x2="2187.5" y2="2110.0" class="edge-t"/>
<line x1="2037.5" y1="1410.0" x2="2037.5" y2="2110.0" class="edge-g"/>
<rect x="1762.5" y="2385.0" width="700.0" height="150.0" transform="rotate(90.0,2112.5,2460.0)" class="board"/>
<line x1="2187.5" y1="2110.0" x2="2187.5" y2="2810.0" class="edge-t"/>
<line x1="2037.5" y1="2110.0" x2="2037.5" y2="2810.0" class="edge-g"/>
<polygon points="2187.5,3452.0 2037.5,3452.0 2037.5,2810.0 2187.5,2810.0 2187.5,3452.0" class="cut-full"/>
<polygon points="2187.5,3452.0 2187.5,2810.0 2037.5,2810.0 2037.5,3452.0 2187.5,3452.0" class="cut-used"/>
<polygon points="2187.5,3452.0 2187.5,2810.0 2037.5,2810.0 2037.5,3452.0 2187.5,3452.0" class="cut-hatch"/>
<line x1="2187.5" y1="3452.0" x2="2187.5" y2="2810.0" class="edge-cut"/>
<line x1="2187.5" y1="2810.0" x2="2037.5" y2="2810.0" class="edge-cut"/>
<line x1="2037.5" y1="2810.0" x2="2037.5" y2="3452.0" class="edge-cut"/>
<line x1="2037.5" y1="3452.0" x2="2187.5" y2="3452.0" class="edge-cut"/>
<line x1="2187.5" y1="2810.0" x2="2187.5" y2="3452.0" class="edge-t"/>
<line x1="2037.5" y1="2810.0" x2="2037.5" y2="3452.0" class="edge-g"/>
<polygon points="2337.5,360.0 2187.5,360.0 2187.5,10.0 2337.5,10.0 2337.5,360.0" class="cut-full"/>
<polygon points="2187.5,10.0 2187.5,360.0 2337.5,360.0 2337.5,10.0 2187.5,10.0" class="cut-used"/>
<polygon points="2187.5,10.0 2187.5,360.0 2337.5,360.0 2337.5,10.0 2187.5,10.0" class="cut-hatch"/>
<line x1="2187.5" y1="10.0" x2="2187.5" y2="360.0" class="edge-cut"/>
<line x1="2187.5" y1="360.0" x2="2337.5" y2="360.0" class="edge-cut"/>
<line x1="2337.5" y1="360.0" x2="2337.5" y2="10.0" class="edge-cut"/>
<line x1="2337.5" y1="10.0" x2="2187.5" y2="10.0" class="edge-cut"/>
<line x1="2337.5" y1="10.0" x2="2337.5" y2="360.0" class="edge-t"/>
<line x1="2187.5" y1="10.0" x2="2187.5" y2="360.0" class="edge-g"/>
<rect x="1912.5" y="635.0" width="700.0" height="150.0" transform="rotate(90.0,2262.5,710.0)" class="board"/>
<line x1="2337.5" y1="360.0" x2="2337.5" y2="1060.0" class="edge-t"/>
<line x1="2187.5" y1="360.0" x2="2187.5" y2="1060.0" class="edge-g"/>
<rect x="1912.5" y="1335.0" width="700.0" height="150.0" transform="rotate(90.0,2262.5,1410.0)" class="board"/>
<line x1="2337.5" y1="1060.0" x2="2337.5" y2="1760.0" class="edge-t"/>
<line x1="2187.5" y1="1060.0" x2="2187.5" y2="1760.0" class="edge-g"/>
<rect x="1912.5" y="2035.0" width="700.0" height="150.0" transform="rotate(90.0,2262.5,2110.0)" class="board"/>
<line x1="2337.5" y1="1760.0" x2="2337.5" y2="2460.0" class="edge-t"/>
<line x1="2187.5" y1="1760.0" x2="2187.5" y2="2460.0" class="edge-g"/>
<rect x="1912.5" y="2735.0" width="700.0" height="150.0" transform="rotate(90.0,2262.5,2810.0)" class="board"/>
<line x1="2337.5" y1="2460.0" x2="2337.5" y2="3160.0" class="edge-t"/>
<line x1="2187.5" y1="2460.0" x2="2187.5" y2="3160.0" class="edge-g"/>
<polygon points="2337.5,3452.0 2187.5,3452.0 2187.5,3160.0 2337.5,3160.0 2337.5,3452.0" class="cut-full"/>
<polygon points="2337.5,3452.0 2337.5,3160.0 2187.5,3160.0 2187.5,3452.0 2337.5,3452.0" class="cut-used"/>
<polygon points="2337.5,3452.0 2337.5,3160.0 2187.5,3160.0 2187.5,3452.0 2337.5,3452.0" class="cut-hatch"/>
<line x1="2337.5" y1="3452.0" x2="2337.5" y2="3160.0" class="edge-cut"/>
<line x1="2337.5" y1="3160.0" x2="2187.5" y2="3160.0" class="edge-cut"/>
<line x1="2187.5" y1="3160.0" x2="2187.5" y2="3452.0" class="edge-cut"/>
<line x1="2187.5" y1="3452.0" x2="2337.5" y2="3452.0" class="edge-cut"/>
<line x1="2337.5" y1="3160.0" x2="2337.5" y2="3452.0" class="edge-t"/>
<line x1="2187.5" y1="3160.0" x2="2187.5" y2="3452.0" class="edge-g"/>
<rect x="2062.5" y="285.0" width="700.0" height="150.0" transform="rotate(90.0,2412.5,360.0)" class="board"/>
<line x1="2487.5" y1="10.0" x2="2487.5" y2="710.0" class="edge-t"/>
<line x1="2337.5" y1="10.0" x2="2337.5" y2="710.0" class="edge-g"/>
<rect x="2062.5" y="985.0" width="700.0" height="150.0" transform="rotate(90.0,2412.5,1060.0)" class="board"/>
<line x1="2487.5" y1="710.0" x2="2487.5" y2="1410.0" class="edge-t"/>
<line x1="2337.5" y1="710.0" x2="2337.5" y2="1410.0" class="edge-g"/>
<rect x="2062.5" y="1685.0" width="700.0" height="150.0" transform="rotate(90.0,2412.5,1760.0)" class="board"/>
<line x1="2487.5" y1="1410.0" x2="2487.5" y2="2110.0" class="edge-t"/>
<line x1="2337.5" y1="1410.0" x2="2337.5" y2="2110.0" class="edge-g"/>
<rect x="2062.5" y="2385.0" width="700.0" height="150.0" transform="rotate(90.0,2412.5,2460.0)" class="board"/>
<line x1="2487.5" y1="2110.0" x2="2487.5" y2="2810.0" class="edge-t"/>
<line x1="2337.5" y1="2110.0" x2="2337.5" y2="2810.0" class="edge-g"/>
<polygon points="2487.5,3452.0 2337.5,3452.0 2337.5,2810.0 2487.5,2810.0 2487.5,3452.0" class="cut-full"/>
<polygon points="2487.5,3452.0 2487.5,2810.0 2337.5,2810.0 2337.5,3452.0 2487.5,3452.0" class="cut-used"/>
<polygon points="2487.5,3452.0 2487.5,2810.0 2337.5,2810.0 2337.5,3452.0 2487.5,3452.0" class="cut-hatch"/>
<line x1="2487.5" y1="3452.0" x2="2487.5" y2="2810.0" class="edge-cut"/>
<line x1="2487.5" y1="2810.0" x2="2337.5" y2="2810.0" class="edge-cut"/>
<line x1="2337.5" y1="2810.0" x2="2337.5" y2="3452.0" class="edge-cut"/>
<line x1="2337.5" y1="3452.0" x2="2487.5" y2="3452.0" class="edge-cut"/>
<line x1="2487.5" y1="2810.0" x2="2487.5" y2="3452.0" class="edge-t"/>
<line x1="2337.5" y1="2810.0" x2="2337.5" y2="3452.0" class="edge-g"/>
<polygon points="2637.5,360.0 2487.5,360.0 2487.5,10.0 2637.5,10.0 2637.5,360.0" class="cut-full"/>
<polygon points="2487.5,10.0 2487.5,360.0 2637.5,360.0 2637.5,10.0 2487.5,10.0" class="cut-used"/>
<polygon points="2487.5,10.0 2487.5,360.0 2637.5,360.0 2637.5,10.0 2487.5,10.0" class="cut-hatch"/>
<line x1="2487.5" y1="10.0" x2="2487.5" y2="360.0" class="edge-cut"/>
<line x1="2487.5" y1="360.0" x2="2637.5" y2="360.0" class="edge-cut"/>
<line x1="2637.5" y1="360.0" x2="2637.5" y2="10.0" class="edge-cut"/>
<line x1="2637.5" y1="10.0" x2="2487.5" y2="10.0" class="edge-cut"/>
<line x1="2637.5" y1="10.0" x2="2637.5" y2="360.0" class="edge-t"/>
<line x1="2487.5" y1="10.0" x2="2487.5" y2="360.0" class="edge-g"/>
<rect x="2212.5" y="635.0" width="700.0" height="150.0" transform="rotate(90.0,2562.5,710.0)" class="board"/>
<line x1="2637.5" y1="360.0" x2="2637.5" y2="1060.0" class="edge-t"/>
<line x1="2487.5" y1="360.0" x2="2487.5" y2="1060.0" class="edge-g"/>
<rect x="2212.5" y="1335.0" width="700.0" height="150.0" transform="rotate(90.0,2562.5,1410.0)" class="board"/>
<line x1="2637.5" y1="1060.0" x2="2637.5" y2="1760.0" class="edge-t"/>
<line x1="2487.5" y1="1060.0" x2="2487.5" y2="1760.0" class="edge-g"/>
<rect x="2212.5" y="2035.0" width="700.0" height="150.0" transform="rotate(90.0,2562.5,2110.0)" class="board"/>
<line x1="2637.5" y1="1760.0" x2="2637.5" y2="2460.0" class="edge-t"/>
<line x1="2487.5" y1="1760.0" x2="2487.5" y2="2460.0" class="edge-g"/>
<rect x="2212.5" y="2735.0" width="700.0" height="150.0" transform="rotate(90.0,2562.5,2810.0)" class="board"/>
<line x1="2637.5" y1="2460.0" x2="2637.5" y2="3160.0" class="edge-t"/>
<line x1="2487.5" y1="2460.0" x2="2487.5" y2="3160.0" class="edge-g"/>
<polygon points="2637.5,3452.0 2487.5,3452.0 2487.5,3160.0 2637.5,3160.0 2637.5,3452.0" class="cut-full"/>
<polygon points="2637.5,3452.0 2637.5,3160.0 2487.5,3160.0 2487.5,3452.0 2637.5,3452.0" class="cut-used"/>
<polygon points="2637.5,3452.0 2637.5,3160.0 2487.5,3160.0 2487.5,3452.0 2637.5,3452.0" class="cut-hatch"/>
<line x1="2637.5" y1="3452.0" x2="2637.5" y2="3160.0" class="edge-cut"/>
<line x1="2637.5" y1="3160.0" x2="2487.5" y2="3160.0" class="edge-cut"/>
<line x1="2487.5" y1="3160.0" x2="2487.5" y2="3452.0" class="edge-cut"/>
<line x1="2487.5" y1="3452.0" x2="2637.5" y2="3452.0" class="edge-cut"/>
<line x1="2637.5" y1="3160.0" x2="2637.5" y2="3452.0" class="edge-t"/>
<line x1="2487.5" y1="3160.0" x2="2487.5" y2="3452.0" class="edge-g"/>
<rect x="2362.5" y="285.0" width="700.0" height="150.0" transform="rotate(90.0,2712.5,360.0)" class="board"/>
<line x1="2787.5" y1="10.0" x2="2787.5" y2="710.0" class="edge-t"/>
<line x1="2637.5" y1="10.0" x2="2637.5" y2="710.0" class="edge-g"/>
<rect x="2362.5" y="985.0" width="700.0" height="150.0" transform="rotate(90.0,2712.5,1060.0)" class="board"/>
<line x1="2787.5" y1="710.0" x2="2787.5" y2="1410.0" class="edge-t"/>
<line x1="2637.5" y1="710.0" x2="2637.5" y2="1410.0" class="edge-g"/>
<rect x="2362.5" y="1685.0" width="700.0" height="150.0" transform="rotate(90.0,2712.5,1760.0)" class="board"/>
<line x1="2787.5" y1="1410.0" x2="2787.5" y2="2110.0" class="edge-t"/>
<line x1="2637.5" y1="1410.0" x2="2637.5" y2="2110.0" class="edge-g"/>
<rect x="2362.5" y="2385.0" width="700.0" height="150.0" transform="rotate(90.0,2712.5,2460.0)" class="board"/>
<line x1="2787.5" y1="2110.0" x2="2787.5" y2="2810.0" class="edge-t"/>
<line x1="2637.5" y1="2110.0" x2="2637.5" y2="2810.0" class="edge-g"/>
<polygon points="2787.5,3452.0 2637.5,3452.0 2637.5,2810.0 2787.5,2810.0 2787.5,3452.0" class="cut-full"/>
<polygon points="2787.5,3452.0 2787.5,2810.0 2637.5,2810.0 2637.5,3452.0 2787.5,3452.0" class="cut-used"/>
<polygon points="2787.5,3452.0 2787.5,2810.0 2637.5,2810.0 2637.5,3452.0 2787.5,3452.0" class="cut-hatch"/>
<line x1="2787.5" y1="3452.0" x2="2787.5" y2="2810.0" class="edge-cut"/>
<line x1="2787.5" y1="2810.0" x2="2637.5" y2="2810.0" class="edge-cut"/>
<line x1="2637.5" y1="2810.0" x2="2637.5" y2="3452.0" class="edge-cut"/>
<line x1="2637.5" y1="3452.0" x2="2787.5" y2="3452.0" class="edge-cut"/>
<line x1="2787.5" y1="2810.0" x2="2787.5" y2="3452.0" class="edge-t"/>
<line x1="2637.5" y1="2810.0" x2="2637.5" y2="3452.0" class="edge-g"/>
<polygon points="2937.5,360.0 2787.5,360.0 2787.5,10.0 2937.5,10.0 2937.5,360.0" class="cut-full"/>
<polygon points="2846.0,10.0 2787.5,10.0 2787.5,360.0 2846.0,360.0 2846.0,10.0" class="cut-used"/>
<polygon points="2846.0,10.0 2787.5,10.0 2787.5,360.0 2846.0,360.0 2846.0,10.0" class="cut-hatch"/>
<line x1="2846.0" y1="10.0" x2="2787.5" y2="10.0" class="edge-cut"/>
<line x1="2787.5" y1="10.0" x2="2787.5" y2="360.0" class="edge-cut"/>
<line x1="2787.5" y1="360.0" x2="2846.0" y2="360.0" class="edge-cut"/>
<line x1="2846.0" y1="360.0" x2="2846.0" y2="10.0" class="edge-cut"/>
<line x1="2937.5" y1="10.0" x2="2937.5" y2="360.0" class="edge-t"/>
<line x1="2787.5" y1="10.0" x2="2787.5" y2="360.0" class="edge-g"/>
<polygon points="2937.5,1060.0 2787.5,1060.0 2787.5,360.0 2937.5,360.0 2937.5,1060.0" class="cut-full"/>
<polygon points="2846.0,360.0 2787.5,360.0 2787.5,1060.0 2846.0,1060.0 2846.0,360.0" class="cut-used"/>
<polygon points="2846.0,360.0 2787.5,360.0 2787.5,1060.0 2846.0,1060.0 2846.0,360.0" class="cut-hatch"/>
<line x1="2846.0" y1="360.0" x2="2787.5" y2="360.0" class="edge-cut"/>
<line x1="2787.5" y1="360.0" x2="2787.5" y2="1060.0" class="edge-cut"/>
<line x1="2787.5" y1="1060.0" x2="2846.0" y2="1060.0" class="edge-cut"/>
<line x1="2846.0" y1="1060.0" x2="2846.0" y2="360.0" class="edge-cut"/>
<line x1="2937.5" y1="360.0" x2="2937.5" y2="1060.0" class="edge-t"/>
<line x1="2787.5" y1="360.0" x2="2787.5" y2="1060.0" class="edge-g"/>
<polygon points="2937.5,1760.0 2787.5,1760.0 2787.5,1060.0 2937.5,1060.0 2937.5,1760.0" class="cut-full"/>
<polygon points="2846.0,1060.0 2787.5,1060.0 2787.5,1760.0 2846.0,1760.0 2846.0,1060.0" class="cut-used"/>
<polygon points="2846.0,1060.0 2787.5,1060.0 2787.5,1760.0 2846.0,1760.0 2846.0,1060.0" class="cut-hatch"/>
<line x1="2846.0" y1="1060.0" x2="2787.5" y2="1060.0" class="edge-cut"/>
<line x1="2787.5" y1="1060.0" x2="2787.5" y2="1760.0" class="edge-cut"/>
<line x1="2787.5" y1="1760.0" x2="2846.0" y2="1760.0" class="edge-cut"/>
<line x1="2846.0" y1="1760.0" x2="2846.0" y2="1060.0" class="edge-cut"/>
<line x1="2937.5" y1="1060.0" x2="2937.5" y2="1760.0" class="edge-t"/>
<line x1="2787.5" y1="1060.0" x2="2787.5" y2="1760.0" class="edge-g"/>
<polygon points="2937.5,2460.0 2787.5,2460.0 2787.5,1760.0 2937.5,1760.0 2937.5,2460.0" class="cut-full"/>
<polygon points="2846.0,1760.0 2787.5,1760.0 2787.5,2460.0 2846.0,2460.0 2846.0,1760.0" class="cut-used"/>
<polygon points="2846.0,1760.0 2787.5,1760.0 2787.5,2460.0 2846.0,2460.0 2846.0,1760.0" class="cut-hatch"/>
<line x1="2846.0" y1="1760.0" x2="2787.5" y2="1760.0" class="edge-cut"/>
<line x1="2787.5" y1="1760.0" x2="2787.5" y2="2460.0" class="edge-cut"/>
<line x1="2787.5" y1="2460.0" x2="2846.0" y2="2460.0" class="edge-cut"/>
<line x1="2846.0" y1="2460.0" x2="2846.0" y2="1760.0" class="edge-cut"/>
<line x1="2937.5" y1="1760.0" x2="2937.5" y2="2460.0" class="edge-t"/>
<line x1="2787.5" y1="1760.0" x2="2787.5" y2="2460.0" class="edge-g"/>
<polygon points="2937.5,3160.0 2787.5,3160.0 2787.5,2460.0 2937.5,2460.0 2937.5,3160.0" class="cut-full"/>
<polygon points="2846.0,2460.0 2787.5,2460.0 2787.5,3160.0 2846.0,3160.0 2846.0,2460.0" class="cut-used"/>
<polygon points="2846.0,2460.0 2787.5,2460.0 2787.5,3160.0 2846.0,3160.0 2846.0,2460.0" class="cut-hatch"/>
<line x1="2846.0" y1="2460.0" x2="2787.5" y2="2460.0" class="edge-cut"/>
<line x1="2787.5" y1="2460.0" x2="2787.5" y2="3160.0" class="edge-cut"/>
<line x1="2787.5" y1="3160.0" x2="2846.0" y2="3160.0" class="edge-cut"/>
<line x1="2846.0" y1="3160.0" x2="2846.0" y2="2460.0" class="edge-cut"/>
<line x1="2937.5" y1="2460.0" x2="2937.5" y2="3160.0" class="edge-t"/>
<line x1="2787.5" y1="2460.0" x2="2787.5" y2="3160.0" class="edge-g"/>
<polygon points="2937.5,3452.0 2787.5,3452.0 2787.5,3160.0 2937.5,3160.0 2937.5,3452.0" class="cut-full"/>
<polygon points="2846.0,3452.0 2846.0,3160.0 2787.5,3160.0 2787.5,3452.0 2846.0,3452.0" class="cut-used"/>
<polygon points="2846.0,3452.0 2846.0,3160.0 2787.5,3160.0 2787.5,3452.0 2846.0,3452.0" class="cut-hatch"/>
<line x1="2846.0" y1="3452.0" x2="2846.0" y2="3160.0" class="edge-cut"/>
<line x1="2846.0" y1="3160.0" x2="2787.5" y2="3160.0" class="edge-cut"/>
<line x1="2787.5" y1="3160.0" x2="2787.5" y2="3452.0" class="edge-cut"/>
<line x1="2787.5" y1="3452.0" x2="2846.0" y2="3452.0" class="edge-cut"/>
<line x1="2937.5" y1="3160.0" x2="2937.5" y2="3452.0" class="edge-t"/>
<line x1="2787.5" y1="3160.0" x2="2787.5" y2="3452.0" class="edge-g"/>
</g>
<text x="726.1" y="1610.7" class="dim">2856mm</text>
<text x="1356.1" y="853.4" class="dim" transform="rotate(-90,1356.1,853.4)">3462mm</text>
<g>
<rect x="151.8" y="1424.4" width="20" height="10" rx="2" class="lbl-bg"/>
<text x="161.8" y="1429.4" class="lbl">1</text>
<rect x="151.8" y="1130.3" width="20" height="10" rx="2" class="lbl-bg"/>
<text x="161.8" y="1135.3" class="lbl">2</text>
<rect x="151.8" y="836.2" width="20" height="10" rx="2" class="lbl-bg"/>
<text x="161.8" y="841.2" class="lbl">3</text>
<rect x="151.8" y="542.1" width="20" height="10" rx="2" class="lbl-bg"/>
<text x="161.8" y="547.1" class="lbl">4</text>
<rect x="151.8" y="260.1" width="20" height="10" rx="2" class="lbl-bg"/>
<text x="161.8" y="265.1" class="lbl-cut">5</text>
<rect x="184.3" y="1497.9" width="20" height="10" rx="2" class="lbl-bg"/>
<text x="194.3" y="1502.9" class="lbl-cut">6</text>
<rect x="184.3" y="1277.4" width="20" height="10" rx="2" class="lbl-bg"/>
<text x="194.3" y="1282.4" class="lbl">7</text>
<rect x="184.3" y="983.2" width="20" height="10" rx="2" class="lbl-bg"/>
<text x="194.3" y="988.2" class="lbl">8</text>
<rect x="184.3" y="689.1" width="20" height="10" rx="2" class="lbl-bg"/>
<text x="194.3" y="694.1" class="lbl">9</text>
<rect x="184.3" y="395.0" width="20" height="10" rx="2" class="lbl-bg"/>
<text x="194.3" y="400.0" class="lbl">10</text>
<rect x="184.3" y="186.6" width="20" height="10" rx="2" class="lbl-bg"/>
<text x="194.3" y="191.6" class="lbl-cut">6</text>
<rect x="247.4" y="1424.4" width="20" height="10" rx="2" class="lbl-bg"/>
<text x="257.4" y="1429.4" class="lbl">11</text>
<rect x="247.4" y="1130.3" width="20" height="10" rx="2" class="lbl-bg"/>
<text x="257.4" y="1135.3" class="lbl">12</text>
<rect x="247.4" y="836.2" width="20" height="10" rx="2" class="lbl-bg"/>
<text x="257.4" y="841.2" class="lbl">13</text>
<rect x="247.4" y="542.1" width="20" height="10" rx="2" class="lbl-bg"/>
<text x="257.4" y="547.1" class="lbl">14</text>
<rect x="247.4" y="260.1" width="20" height="10" rx="2" class="lbl-bg"/>
<text x="257.4" y="265.1" class="lbl-cut">15</text>
<rect x="310.4" y="1497.9" width="20" height="10" rx="2" class="lbl-bg"/>
<text x="320.4" y="1502.9" class="lbl-cut">16</text>
<rect x="310.4" y="1277.4" width="20" height="10" rx="2" class="lbl-bg"/>
<text x="320.4" y="1282.4" class="lbl">17</text>
<rect x="310.4" y="983.2" width="20" height="10" rx="2" class="lbl-bg"/>
<text x="320.4" y="988.2" class="lbl">18</text>
<rect x="310.4" y="689.1" width="20" height="10" rx="2" class="lbl-bg"/>
<text x="320.4" y="694.1" class="lbl">19</text>
<rect x="310.4" y="395.0" width="20" height="10" rx="2" class="lbl-bg"/>
<text x="320.4" y="400.0" class="lbl">20</text>
<rect x="310.4" y="186.6" width="20" height="10" rx="2" class="lbl-bg"/>
<text x="320.4" y="191.6" class="lbl-cut">16</text>
<rect x="373.4" y="1424.4" width="20" height="10" rx="2" class="lbl-bg"/>
<text x="383.4" y="1429.4" class="lbl">21</text>
<rect x="373.4" y="1130.3" width="20" height="10" rx="2" class="lbl-bg"/>
<text x="383.4" y="1135.3" class="lbl">22</text>
<rect x="373.4" y="836.2" width="20" height="10" rx="2" class="lbl-bg"/>
<text x="383.4" y="841.2" class="lbl">23</text>
<rect x="373.4" y="542.1" width="20" height="10" rx="2" class="lbl-bg"/>
<text x="383.4" y="547.1" class="lbl">24</text>
<rect x="373.4" y="260.1" width="20" height="10" rx="2" class="lbl-bg"/>
<text x="383.4" y="265.1" class="lbl-cut">25</text>
<rect x="436.4" y="1497.9" width="20" height="10" rx="2" class="lbl-bg"/>
<text x="446.4" y="1502.9" class="lbl-cut">26</text>
<rect x="436.4" y="1277.4" width="20" height="10" rx="2" class="lbl-bg"/>
<text x="446.4" y="1282.4" class="lbl">27</text>
<rect x="436.4" y="983.2" width="20" height="10" rx="2" class="lbl-bg"/>
<text x="446.4" y="988.2" class="lbl">28</text>
<rect x="436.4" y="689.1" width="20" height="10" rx="2" class="lbl-bg"/>
<text x="446.4" y="694.1" class="lbl">29</text>
<rect x="436.4" y="395.0" width="20" height="10" rx="2" class="lbl-bg"/>
<text x="446.4" y="400.0" class="lbl">30</text>
<rect x="436.4" y="186.6" width="20" height="10" rx="2" class="lbl-bg"/>
<text x="446.4" y="191.6" class="lbl-cut">26</text>
<rect x="499.5" y="1424.4" width="20" height="10" rx="2" class="lbl-bg"/>
<text x="509.5" y="1429.4" class="lbl">31</text>
<rect x="499.5" y="1130.3" width="20" height="10" rx="2" class="lbl-bg"/>
<text x="509.5" y="1135.3" class="lbl">32</text>
<rect x="499.5" y="836.2" width="20" height="10" rx="2" class="lbl-bg"/>
<text x="509.5" y="841.2" class="lbl">33</text>
<rect x="499.5" y="542.1" width="20" height="10" rx="2" class="lbl-bg"/>
<text x="509.5" y="547.1" class="lbl">34</text>
<rect x="499.5" y="260.1" width="20" height="10" rx="2" class="lbl-bg"/>
<text x="509.5" y="265.1" class="lbl-cut">35</text>
<rect x="562.5" y="1497.9" width="20" height="10" rx="2" class="lbl-bg"/>
<text x="572.5" y="1502.9" class="lbl-cut">36</text>
<rect x="562.5" y="1277.4" width="20" height="10" rx="2" class="lbl-bg"/>
<text x="572.5" y="1282.4" class="lbl">37</text>
<rect x="562.5" y="983.2" width="20" height="10" rx="2" class="lbl-bg"/>
<text x="572.5" y="988.2" class="lbl">38</text>
<rect x="562.5" y="689.1" width="20" height="10" rx="2" class="lbl-bg"/>
<text x="572.5" y="694.1" class="lbl">39</text>
<rect x="562.5" y="395.0" width="20" height="10" rx="2" class="lbl-bg"/>
<text x="572.5" y="400.0" class="lbl">40</text>
<rect x="562.5" y="186.6" width="20" height="10" rx="2" class="lbl-bg"/>
<text x="572.5" y="191.6" class="lbl-cut">36</text>
<rect x="625.5" y="1424.4" width="20" height="10" rx="2" class="lbl-bg"/>
<text x="635.5" y="1429.4" class="lbl">41</text>
<rect x="625.5" y="1130.3" width="20" height="10" rx="2" class="lbl-bg"/>
<text x="635.5" y="1135.3" class="lbl">42</text>
<rect x="625.5" y="836.2" width="20" height="10" rx="2" class="lbl-bg"/>
<text x="635.5" y="841.2" class="lbl">43</text>
<rect x="625.5" y="542.1" width="20" height="10" rx="2" class="lbl-bg"/>
<text x="635.5" y="547.1" class="lbl">44</text>
<rect x="625.5" y="260.1" width="20" height="10" rx="2" class="lbl-bg"/>
<text x="635.5" y="265.1" class="lbl-cut">45</text>
<rect x="688.5" y="1497.9" width="20" height="10" rx="2" class="lbl-bg"/>
<text x="698.5" y="1502.9" class="lbl-cut">46</text>
<rect x="688.5" y="1277.4" width="20" height="10" rx="2" class="lbl-bg"/>
<text x="698.5" y="1282.4" class="lbl">47</text>
<rect x="688.5" y="983.2" width="20" height="10" rx="2" class="lbl-bg"/>
<text x="698.5" y="988.2" class="lbl">48</text>
<rect x="688.5" y="689.1" width="20" height="10" rx="2" class="lbl-bg"/>
<text x="698.5" y="694.1" class="lbl">49</text>
<rect x="688.5" y="395.0" width="20" height="10" rx="2" class="lbl-bg"/>
<text x="698.5" y="400.0" class="lbl">50</text>
<rect x="688.5" y="186.6" width="20" height="10" rx="2" class="lbl-bg"/>
<text x="698.5" y="191.6" class="lbl-cut">46</text>
<rect x="751.6" y="1424.4" width="20" height="10" rx="2" class="lbl-bg"/>
<text x="761.6" y="1429.4" class="lbl">51</text>
<rect x="751.6" y="1130.3" width="20" height="10" rx="2" class="lbl-bg"/>
<text x="761.6" y="1135.3" class="lbl">52</text>
<rect x="751.6" y="836.2" width="20" height="10" rx="2" class="lbl-bg"/>
<text x="761.6" y="841.2" class="lbl">53</text>
<rect x="751.6" y="542.1" width="20" height="10" rx="2" class="lbl-bg"/>
<text x="761.6" y="547.1" class="lbl">54</text>
<rect x="751.6" y="260.1" width="20" height="10" rx="2" class="lbl-bg"/>
<text x="761.6" y="265.1" class="lbl-cut">55</text>
<rect x="814.6" y="1497.9" width="20" height="10" rx="2" class="lbl-bg"/>
<text x="824.6" y="1502.9" class="lbl-cut">56</text>
<rect x="814.6" y="1277.4" width="20" height="10" rx="2" class="lbl-bg"/>
<text x="824.6" y="1282.4" class="lbl">57</text>
<rect x="814.6" y="983.2" width="20" height="10" rx="2" class="lbl-bg"/>
<text x="824.6" y="988.2" class="lbl">58</text>
<rect x="814.6" y="689.1" width="20" height="10" rx="2" class="lbl-bg"/>
<text x="824.6" y="694.1" class="lbl">59</text>
<rect x="814.6" y="395.0" width="20" height="10" rx="2" class="lbl-bg"/>
<text x="824.6" y="400.0" class="lbl">60</text>
<rect x="814.6" y="186.6" width="20" height="10" rx="2" class="lbl-bg"/>
<text x="824.6" y="191.6" class="lbl-cut">56</text>
<rect x="877.6" y="1424.4" width="20" height="10" rx="2" class="lbl-bg"/>
<text x="887.6" y="1429.4" class="lbl">61</text>
<rect x="877.6" y="1130.3" width="20" height="10" rx="2" class="lbl-bg"/>
<text x="887.6" y="1135.3" class="lbl">62</text>
<rect x="877.6" y="836.2" width="20" height="10" rx="2" class="lbl-bg"/>
<text x="887.6" y="841.2" class="lbl">63</text>
<rect x="877.6" y="542.1" width="20" height="10" rx="2" class="lbl-bg"/>
<text x="887.6" y="547.1" class="lbl">64</text>
<rect x="877.6" y="260.1" width="20" height="10" rx="2" class="lbl-bg"/>
<text x="887.6" y="265.1" class="lbl-cut">65</text>
<rect x="940.6" y="1497.9" width="20" height="10" rx="2" class="lbl-bg"/>
<text x="950.6" y="1502.9" class="lbl-cut">66</text>
<rect x="940.6" y="1277.4" width="20" height="10" rx="2" class="lbl-bg"/>
<text x="950.6" y="1282.4" class="lbl">67</text>
<rect x="940.6" y="983.2" width="20" height="10" rx="2" class="lbl-bg"/>
<text x="950.6" y="988.2" class="lbl">68</text>
<rect x="940.6" y="689.1" width="20" height="10" rx="2" class="lbl-bg"/>
<text x="950.6" y="694.1" class="lbl">69</text>
<rect x="940.6" y="395.0" width="20" height="10" rx="2" class="lbl-bg"/>
<text x="950.6" y="400.0" class="lbl">70</text>
<rect x="940.6" y="186.6" width="20" height="10" rx="2" class="lbl-bg"/>
<text x="950.6" y="191.6" class="lbl-cut">66</text>
<rect x="1003.7" y="1424.4" width="20" height="10" rx="2" class="lbl-bg"/>
<text x="1013.7" y="1429.4" class="lbl">71</text>
<rect x="1003.7" y="1130.3" width="20" height="10" rx="2" class="lbl-bg"/>
<text x="1013.7" y="1135.3" class="lbl">72</text>
<rect x="1003.7" y="836.2" width="20" height="10" rx="2" class="lbl-bg"/>
<text x="1013.7" y="841.2" class="lbl">73</text>
<rect x="1003.7" y="542.1" width="20" height="10" rx="2" class="lbl-bg"/>
<text x="1013.7" y="547.1" class="lbl">74</text>
<rect x="1003.7" y="260.1" width="20" height="10" rx="2" class="lbl-bg"/>
<text x="1013.7" y="265.1" class="lbl-cut">75</text>
<rect x="1066.7" y="1497.9" width="20" height="10" rx="2" class="lbl-bg"/>
<text x="1076.7" y="1502.9" class="lbl-cut">76</text>
<rect x="1066.7" y="1277.4" width="20" height="10" rx="2" class="lbl-bg"/>
<text x="1076.7" y="1282.4" class="lbl">77</text>
<rect x="1066.7" y="983.2" width="20" height="10" rx="2" class="lbl-bg"/>
<text x="1076.7" y="988.2" class="lbl">78</text>
<rect x="1066.7" y="689.1" width="20" height="10" rx="2" class="lbl-bg"/>
<text x="1076.7" y="694.1" class="lbl">79</text>
<rect x="1066.7" y="395.0" width="20" height="10" rx="2" class="lbl-bg"/>
<text x="1076.7" y="400.0" class="lbl">80</text>
<rect x="1066.7" y="186.6" width="20" height="10" rx="2" class="lbl-bg"/>
<text x="1076.7" y="191.6" class="lbl-cut">76</text>
<rect x="1129.7" y="1424.4" width="20" height="10" rx="2" class="lbl-bg"/>
<text x="1139.7" y="1429.4" class="lbl">81</text>
<rect x="1129.7" y="1130.3" width="20" height="10" rx="2" class="lbl-bg"/>
<text x="1139.7" y="1135.3" class="lbl">82</text>
<rect x="1129.7" y="836.2" width="20" height="10" rx="2" class="lbl-bg"/>
<text x="1139.7" y="841.2" class="lbl">83</text>
<rect x="1129.7" y="542.1" width="20" height="10" rx="2" class="lbl-bg"/>
<text x="1139.7" y="547.1" class="lbl">84</text>
<rect x="1129.7" y="260.1" width="20" height="10" rx="2" class="lbl-bg"/>
<text x="1139.7" y="265.1" class="lbl-cut">85</text>
<rect x="1192.7" y="1497.9" width="20" height="10" rx="2" class="lbl-bg"/>
<text x="1202.7" y="1502.9" class="lbl-cut">86</text>
<rect x="1192.7" y="1277.4" width="20" height="10" rx="2" class="lbl-bg"/>
<text x="1202.7" y="1282.4" class="lbl">87</text>
<rect x="1192.7" y="983.2" width="20" height="10" rx="2" class="lbl-bg"/>
<text x="1202.7" y="988.2" class="lbl">88</text>
<rect x="1192.7" y="689.1" width="20" height="10" rx="2" class="lbl-bg"/>
<text x="1202.7" y="694.1" class="lbl">89</text>
<rect x="1192.7" y="395.0" width="20" height="10" rx="2" class="lbl-bg"/>
<text x="1202.7" y="400.0" class="lbl">90</text>
<rect x="1192.7" y="186.6" width="20" height="10" rx="2" class="lbl-bg"/>
<text x="1202.7" y="191.6" class="lbl-cut">86</text>
<rect x="1255.8" y="1424.4" width="20" height="10" rx="2" class="lbl-bg"/>
<text x="1265.8" y="1429.4" class="lbl">91</text>
<rect x="1255.8" y="1130.3" width="20" height="10" rx="2" class="lbl-bg"/>
<text x="1265.8" y="1135.3" class="lbl">92</text>
<rect x="1255.8" y="836.2" width="20" height="10" rx="2" class="lbl-bg"/>
<text x="1265.8" y="841.2" class="lbl">93</text>
<rect x="1255.8" y="542.1" width="20" height="10" rx="2" class="lbl-bg"/>
<text x="1265.8" y="547.1" class="lbl">94</text>
<rect x="1255.8" y="260.1" width="20" height="10" rx="2" class="lbl-bg"/>
<text x="1265.8" y="265.1" class="lbl-cut">95</text>
<rect x="1318.8" y="1497.9" width="20" height="10" rx="2" class="lbl-bg"/>
<text x="1328.8" y="1502.9" class="lbl-cut">96</text>
<rect x="1318.8" y="1277.4" width="20" height="10" rx="2" class="lbl-bg"/>
<text x="1328.8" y="1282.4" class="lbl-cut">97</text>
<rect x="1318.8" y="983.2" width="20" height="10" rx="2" class="lbl-bg"/>
<text x="1328.8" y="988.2" class="lbl-cut">98</text>
<rect x="1318.8" y="689.1" width="20" height="10" rx="2" class="lbl-bg"/>
<text x="1328.8" y="694.1" class="lbl-cut">99</text>
<rect x="1318.8" y="395.0" width="20" height="10" rx="2" class="lbl-bg"/>
<text x="1328.8" y="400.0" class="lbl-cut">100</text>
<rect x="1318.8" y="186.6" width="20" height="10" rx="2" class="lbl-bg"/>
<text x="1328.8" y="191.6" class="lbl-cut">96</text>
</g>
<rect x="1262.1008403361345" y="1596.7226890756303" width="170" height="60" rx="4" class="legend"/><g transform="translate(1272.1008403361345,1606.7226890756303)"><line x1="0" y1="0" x2="30" y2="0" class="edge-t"/></g><text x="1312.1008403361345" y="1611.7226890756303" class="legend-t">公榫</text><g transform="translate(1272.1008403361345,1624.7226890756303)"><line x1="0" y1="10" x2="30" y2="10" class="edge-g"/></g><text x="1312.1008403361345" y="1629.7226890756303" class="legend-t">母榫</text><g transform="translate(1272.1008403361345,1642.7226890756303)"><line x1="0" y1="20" x2="30" y2="20" class="edge-cut"/></g><text x="1312.1008403361345" y="1647.7226890756303" class="legend-t">切割边</text>
</svg>