<?xml version="1.0" encoding="UTF-8"?>
<svg xmlns="http://www.w3.org/2000/svg" viewBox="0 0 1368 1623" width="1368" height="1623">
<defs>
<pattern id="cut-hatch" width="8" height="8" patternTransform="rotate(45)" patternUnits="userSpaceOnUse">
<line x1="0" y1="0" x2="0" y2="8" stroke="#cc3333" stroke-width="2" opacity="0.4"/>
</pattern>
</defs>
<style>
  .room-outline { fill: none; stroke: #333; stroke-width: 3; }
  .board { fill: #d4a574; stroke: #8b6914; stroke-width: 1.5; }
  .board-cut-full { fill: none; stroke: #999; stroke-width: 1; stroke-dasharray: 3,3; }
  .board-cut-used { fill: #c4956a; stroke: #cc3333; stroke-width: 2; }
  .board-cut-hatch { fill: url(#cut-hatch); stroke: #cc3333; stroke-width: 1.5; }
  .waste-zone { fill: #ddd; stroke: #999; stroke-width: 0.5; stroke-dasharray: 2,2; opacity: 0.5; }
</style>
<g transform="translate(84.0,1538.7) scale(0.4,-0.4)">
<polygon points="0.0,0.0 2856.0,0.0 2856.0,3462.0 0.0,3462.0 0.0,0.0" class="room-outline"/>
<rect x="2236.7" y="2882.9" width="600.0" height="88.0" transform="rotate(45,2536.7,2926.9)" class="board"/>
<rect x="2174.5" y="2945.1" width="600.0" height="88.0" transform="rotate(45,2474.5,2989.1)" class="board"/>
<rect x="2112.3" y="3007.3" width="600.0" height="88.0" transform="rotate(45,2412.3,3051.3)" class="board"/>
<rect x="2050.1" y="3069.5" width="600.0" height="88.0" transform="rotate(45,2350.1,3113.5)" class="board"/>
<rect x="1987.8" y="3131.8" width="600.0" height="88.0" transform="rotate(45,2287.8,3175.8)" class="board"/>
<rect x="-9.0" y="263.7" width="600.0" height="88.0" transform="rotate(45,291.0,307.7)" class="board"/>
<rect x="160.7" y="580.5" width="600.0" height="88.0" transform="rotate(315,460.7,624.5)" class="board"/>
<rect x="975.3" y="252.4" width="600.0" height="88.0" transform="rotate(45,1275.3,296.4)" class="board"/>
<rect x="913.0" y="314.7" width="600.0" height="88.0" transform="rotate(45,1213.0,358.7)" class="board"/>
<rect x="850.8" y="376.9" width="600.0" height="88.0" transform="rotate(45,1150.8,420.9)" class="board"/>
<rect x="788.6" y="439.1" width="600.0" height="88.0" transform="rotate(45,1088.6,483.1)" class="board"/>
<rect x="726.4" y="501.3" width="600.0" height="88.0" transform="rotate(45,1026.4,545.3)" class="board"/>
<rect x="664.1" y="563.6" width="600.0" height="88.0" transform="rotate(45,964.1,607.6)" class="board"/>
<rect x="601.9" y="625.8" width="600.0" height="88.0" transform="rotate(45,901.9,669.8)" class="board"/>
<rect x="539.7" y="688.0" width="600.0" height="88.0" transform="rotate(45,839.7,732.0)" class="board"/>
<rect x="477.5" y="750.2" width="600.0" height="88.0" transform="rotate(45,777.5,794.2)" class="board"/>
<rect x="415.2" y="812.5" width="600.0" height="88.0" transform="rotate(45,715.2,856.5)" class="board"/>
<rect x="353.0" y="874.7" width="600.0" height="88.0" transform="rotate(45,653.0,918.7)" class="board"/>
<rect x="290.8" y="936.9" width="600.0" height="88.0" transform="rotate(45,590.8,980.9)" class="board"/>
<rect x="228.6" y="999.1" width="600.0" height="88.0" transform="rotate(45,528.6,1043.1)" class="board"/>
<rect x="166.3" y="1061.4" width="600.0" height="88.0" transform="rotate(45,466.3,1105.4)" class="board"/>
<rect x="104.1" y="1123.6" width="600.0" height="88.0" transform="rotate(45,404.1,1167.6)" class="board"/>
<rect x="41.9" y="1185.8" width="600.0" height="88.0" transform="rotate(45,341.9,1229.8)" class="board"/>
<rect x="-20.3" y="1248.0" width="600.0" height="88.0" transform="rotate(45,279.7,1292.0)" class="board"/>
<rect x="1071.4" y="642.8" width="600.0" height="88.0" transform="rotate(315,1371.4,686.8)" class="board"/>
<rect x="647.2" y="1067.0" width="600.0" height="88.0" transform="rotate(315,947.2,1111.0)" class="board"/>
<rect x="222.9" y="1491.3" width="600.0" height="88.0" transform="rotate(315,522.9,1535.3)" class="board"/>
<rect x="1959.6" y="241.1" width="600.0" height="88.0" transform="rotate(45,2259.6,285.1)" class="board"/>
<rect x="1897.3" y="303.3" width="600.0" height="88.0" transform="rotate(45,2197.3,347.3)" class="board"/>
<rect x="1835.1" y="365.6" width="600.0" height="88.0" transform="rotate(45,2135.1,409.6)" class="board"/>
<rect x="1772.9" y="427.8" width="600.0" height="88.0" transform="rotate(45,2072.9,471.8)" class="board"/>
<rect x="1710.7" y="490.0" width="600.0" height="88.0" transform="rotate(45,2010.7,534.0)" class="board"/>
<rect x="1648.4" y="552.2" width="600.0" height="88.0" transform="rotate(45,1948.4,596.2)" class="board"/>
<rect x="1586.2" y="614.5" width="600.0" height="88.0" transform="rotate(45,1886.2,658.5)" class="board"/>
<rect x="1524.0" y="676.7" width="600.0" height="88.0" transform="rotate(45,1824.0,720.7)" class="board"/>
<rect x="1461.8" y="738.9" width="600.0" height="88.0" transform="rotate(45,1761.8,782.9)" class="board"/>
<rect x="1399.5" y="801.1" width="600.0" height="88.0" transform="rotate(45,1699.5,845.1)" class="board"/>
<rect x="1337.3" y="863.4" width="600.0" height="88.0" transform="rotate(45,1637.3,907.4)" class="board"/>
<rect x="1275.1" y="925.6" width="600.0" height="88.0" transform="rotate(45,1575.1,969.6)" class="board"/>
<rect x="1212.9" y="987.8" width="600.0" height="88.0" transform="rotate(45,1512.9,1031.8)" class="board"/>
<rect x="1150.6" y="1050.0" width="600.0" height="88.0" transform="rotate(45,1450.6,1094.0)" class="board"/>
<rect x="1088.4" y="1112.3" width="600.0" height="88.0" transform="rotate(45,1388.4,1156.3)" class="board"/>
<rect x="1026.2" y="1174.5" width="600.0" height="88.0" transform="rotate(45,1326.2,1218.5)" class="board"/>
<rect x="964.0" y="1236.7" width="600.0" height="88.0" transform="rotate(45,1264.0,1280.7)" class="board"/>
<rect x="901.7" y="1298.9" width="600.0" height="88.0" transform="rotate(45,1201.7,1342.9)" class="board"/>
<rect x="839.5" y="1361.2" width="600.0" height="88.0" transform="rotate(45,1139.5,1405.2)" class="board"/>
<rect x="777.3" y="1423.4" width="600.0" height="88.0" transform="rotate(45,1077.3,1467.4)" class="board"/>
<rect x="715.0" y="1485.6" width="600.0" height="88.0" transform="rotate(45,1015.0,1529.6)" class="board"/>
<rect x="652.8" y="1547.8" width="600.0" height="88.0" transform="rotate(45,952.8,1591.8)" class="board"/>
<rect x="590.6" y="1610.1" width="600.0" height="88.0" transform="rotate(45,890.6,1654.1)" class="board"/>
<rect x="528.4" y="1672.3" width="600.0" height="88.0" transform="rotate(45,828.4,1716.3)" class="board"/>
<rect x="466.1" y="1734.5" width="600.0" height="88.0" transform="rotate(45,766.1,1778.5)" class="board"/>
<rect x="403.9" y="1796.8" width="600.0" height="88.0" transform="rotate(45,703.9,1840.8)" class="board"/>
<rect x="341.7" y="1859.0" width="600.0" height="88.0" transform="rotate(45,641.7,1903.0)" class="board"/>
<rect x="279.5" y="1921.2" width="600.0" height="88.0" transform="rotate(45,579.5,1965.2)" class="board"/>
<rect x="217.2" y="1983.4" width="600.0" height="88.0" transform="rotate(45,517.2,2027.4)" class="board"/>
<rect x="155.0" y="2045.7" width="600.0" height="88.0" transform="rotate(45,455.0,2089.7)" class="board"/>
<rect x="92.8" y="2107.9" width="600.0" height="88.0" transform="rotate(45,392.8,2151.9)" class="board"/>
<rect x="30.6" y="2170.1" width="600.0" height="88.0" transform="rotate(45,330.6,2214.1)" class="board"/>
<rect x="-31.7" y="2232.3" width="600.0" height="88.0" transform="rotate(45,268.3,2276.3)" class="board"/>
<rect x="1982.2" y="705.0" width="600.0" height="88.0" transform="rotate(315,2282.2,749.0)" class="board"/>
<rect x="1557.9" y="1129.2" width="600.0" height="88.0" transform="rotate(315,1857.9,1173.2)" class="board"/>
<rect x="1133.7" y="1553.5" width="600.0" height="88.0" transform="rotate(315,1433.7,1597.5)" class="board"/>
<rect x="709.4" y="1977.8" width="600.0" height="88.0" transform="rotate(315,1009.4,2021.8)" class="board"/>
<rect x="285.1" y="2402.0" width="600.0" height="88.0" transform="rotate(315,585.1,2446.0)" class="board"/>
<rect x="2259.4" y="914.3" width="600.0" height="88.0" transform="rotate(45,2559.4,958.3)" class="board"/>
<rect x="2197.1" y="976.5" width="600.0" height="88.0" transform="rotate(45,2497.1,1020.5)" class="board"/>
<rect x="2134.9" y="1038.7" width="600.0" height="88.0" transform="rotate(45,2434.9,1082.7)" class="board"/>
<rect x="2072.7" y="1101.0" width="600.0" height="88.0" transform="rotate(45,2372.7,1145.0)" class="board"/>
<rect x="2010.5" y="1163.2" width="600.0" height="88.0" transform="rotate(45,2310.5,1207.2)" class="board"/>
<rect x="1948.2" y="1225.4" width="600.0" height="88.0" transform="rotate(45,2248.2,1269.4)" class="board"/>
<rect x="1886.0" y="1287.6" width="600.0" height="88.0" transform="rotate(45,2186.0,1331.6)" class="board"/>
<rect x="1823.8" y="1349.9" width="600.0" height="88.0" transform="rotate(45,2123.8,1393.9)" class="board"/>
<rect x="1761.6" y="1412.1" width="600.0" height="88.0" transform="rotate(45,2061.6,1456.1)" class="board"/>
<rect x="1699.3" y="1474.3" width="600.0" height="88.0" transform="rotate(45,1999.3,1518.3)" class="board"/>
<rect x="1637.1" y="1536.5" width="600.0" height="88.0" transform="rotate(45,1937.1,1580.5)" class="board"/>
<rect x="1574.9" y="1598.8" width="600.0" height="88.0" transform="rotate(45,1874.9,1642.8)" class="board"/>
<rect x="1512.7" y="1661.0" width="600.0" height="88.0" transform="rotate(45,1812.7,1705.0)" class="board"/>
<rect x="1450.4" y="1723.2" width="600.0" height="88.0" transform="rotate(45,1750.4,1767.2)" class="board"/>
<rect x="1388.2" y="1785.4" width="600.0" height="88.0" transform="rotate(45,1688.2,1829.4)" class="board"/>
<rect x="1326.0" y="1847.7" width="600.0" height="88.0" transform="rotate(45,1626.0,1891.7)" class="board"/>
<rect x="1263.8" y="1909.9" width="600.0" height="88.0" transform="rotate(45,1563.8,1953.9)" class="board"/>
<rect x="1201.5" y="1972.1" width="600.0" height="88.0" transform="rotate(45,1501.5,2016.1)" class="board"/>
<rect x="1139.3" y="2034.3" width="600.0" height="88.0" transform="rotate(45,1439.3,2078.3)" class="board"/>
<rect x="1077.1" y="2096.6" width="600.0" height="88.0" transform="rotate(45,1377.1,2140.6)" class="board"/>
<rect x="1014.9" y="2158.8" width="600.0" height="88.0" transform="rotate(45,1314.9,2202.8)" class="board"/>
<rect x="952.6" y="2221.0" width="600.0" height="88.0" transform="rotate(45,1252.6,2265.0)" class="board"/>
<rect x="890.4" y="2283.2" width="600.0" height="88.0" transform="rotate(45,1190.4,2327.2)" class="board"/>
<rect x="828.2" y="2345.5" width="600.0" height="88.0" transform="rotate(45,1128.2,2389.5)" class="board"/>
<rect x="766.0" y="2407.7" width="600.0" height="88.0" transform="rotate(45,1066.0,2451.7)" class="board"/>
<rect x="703.7" y="2469.9" width="600.0" height="88.0" transform="rotate(45,1003.7,2513.9)" class="board"/>
<rect x="641.5" y="2532.1" width="600.0" height="88.0" transform="rotate(45,941.5,2576.1)" class="board"/>
<rect x="579.3" y="2594.4" width="600.0" height="88.0" transform="rotate(45,879.3,2638.4)" class="board"/>
<rect x="517.1" y="2656.6" width="600.0" height="88.0" transform="rotate(45,817.1,2700.6)" class="board"/>
<rect x="454.8" y="2718.8" width="600.0" height="88.0" transform="rotate(45,754.8,2762.8)" class="board"/>
<rect x="392.6" y="2781.0" width="600.0" height="88.0" transform="rotate(45,692.6,2825.0)" class="board"/>
<rect x="330.4" y="2843.3" width="600.0" height="88.0" transform="rotate(45,630.4,2887.3)" class="board"/>
<rect x="268.2" y="2905.5" width="600.0" height="88.0" transform="rotate(45,568.2,2949.5)" class="board"/>
<rect x="205.9" y="2967.7" width="600.0" height="88.0" transform="rotate(45,505.9,3011.7)" class="board"/>
<rect x="143.7" y="3029.9" width="600.0" height="88.0" transform="rotate(45,443.7,3073.9)" class="board"/>
<rect x="81.5" y="3092.2" width="600.0" height="88.0" transform="rotate(45,381.5,3136.2)" class="board"/>
<rect x="2044.4" y="1615.7" width="600.0" height="88.0" transform="rotate(315,2344.4,1659.7)" class="board"/>
<rect x="1620.1" y="2040.0" width="600.0" height="88.0" transform="rotate(315,1920.1,2084.0)" class="board"/>
<rect x="1195.9" y="2464.3" width="600.0" height="88.0" transform="rotate(315,1495.9,2508.3)" class="board"/>
<rect x="771.6" y="2888.5" width="600.0" height="88.0" transform="rotate(315,1071.6,2932.5)" class="board"/>
<rect x="2248.1" y="1898.6" width="600.0" height="88.0" transform="rotate(45,2548.1,1942.6)" class="board"/>
<rect x="2185.8" y="1960.8" width="600.0" height="88.0" transform="rotate(45,2485.8,2004.8)" class="board"/>
<rect x="2123.6" y="2023.0" width="600.0" height="88.0" transform="rotate(45,2423.6,2067.0)" class="board"/>
<rect x="2061.4" y="2085.2" width="600.0" height="88.0" transform="rotate(45,2361.4,2129.2)" class="board"/>
<rect x="1999.2" y="2147.5" width="600.0" height="88.0" transform="rotate(45,2299.2,2191.5)" class="board"/>
<rect x="1936.9" y="2209.7" width="600.0" height="88.0" transform="rotate(45,2236.9,2253.7)" class="board"/>
<rect x="1874.7" y="2271.9" width="600.0" height="88.0" transform="rotate(45,2174.7,2315.9)" class="board"/>
<rect x="1812.5" y="2334.2" width="600.0" height="88.0" transform="rotate(45,2112.5,2378.2)" class="board"/>
<rect x="1750.3" y="2396.4" width="600.0" height="88.0" transform="rotate(45,2050.3,2440.4)" class="board"/>
<rect x="1688.0" y="2458.6" width="600.0" height="88.0" transform="rotate(45,1988.0,2502.6)" class="board"/>
<rect x="1625.8" y="2520.8" width="600.0" height="88.0" transform="rotate(45,1925.8,2564.8)" class="board"/>
<rect x="1563.6" y="2583.1" width="600.0" height="88.0" transform="rotate(45,1863.6,2627.1)" class="board"/>
<rect x="1501.4" y="2645.3" width="600.0" height="88.0" transform="rotate(45,1801.4,2689.3)" class="board"/>
<rect x="1439.1" y="2707.5" width="600.0" height="88.0" transform="rotate(45,1739.1,2751.5)" class="board"/>
<rect x="1376.9" y="2769.7" width="600.0" height="88.0" transform="rotate(45,1676.9,2813.7)" class="board"/>
<rect x="1314.7" y="2832.0" width="600.0" height="88.0" transform="rotate(45,1614.7,2876.0)" class="board"/>
<rect x="1252.5" y="2894.2" width="600.0" height="88.0" transform="rotate(45,1552.5,2938.2)" class="board"/>
<rect x="1190.2" y="2956.4" width="600.0" height="88.0" transform="rotate(45,1490.2,3000.4)" class="board"/>
<rect x="1128.0" y="3018.6" width="600.0" height="88.0" transform="rotate(45,1428.0,3062.6)" class="board"/>
<rect x="1065.8" y="3080.9" width="600.0" height="88.0" transform="rotate(45,1365.8,3124.9)" class="board"/>
<rect x="1003.5" y="3143.1" width="600.0" height="88.0" transform="rotate(45,1303.5,3187.1)" class="board"/>
<rect x="2106.6" y="2526.5" width="600.0" height="88.0" transform="rotate(315,2406.6,2570.5)" class="board"/>
<rect x="1682.4" y="2950.7" width="600.0" height="88.0" transform="rotate(315,1982.4,2994.7)" class="board"/>
<rect x="19.2" y="3154.3" width="600.0" height="88.0" transform="rotate(45,319.2,3198.3)" class="board"/>
<rect x="1495.6" y="218.6" width="600.0" height="88.0" transform="rotate(315,1795.6,262.6)" class="board"/>
<rect x="2298.4" y="2820.2" width="600.0" height="88.0" transform="rotate(45,2598.4,2864.2)" class="board"/>
<rect x="2308.1" y="1834.6" width="600.0" height="88.0" transform="rotate(45,2608.1,1878.6)" class="board"/>
<rect x="55.0" y="203.8" width="600.0" height="88.0" transform="rotate(45,355.0,247.8)" class="board"/>

<polygon points="2859.9,1073.1 2797.7,1135.3 2373.5,711.0 2435.7,648.8 2859.9,1073.1" class="board-cut-full"/>
<polygon points="2831.0,1043.2 2440.6,652.8 2378.4,715.0 2802.6,1139.3 2831.0,1110.9 2831.0,1043.2" class="board-cut-used"/>
<polygon points="2831.0,1043.2 2440.6,652.8 2378.4,715.0 2802.6,1139.3 2831.0,1110.9 2831.0,1043.2" class="board-cut-hatch"/>

<polygon points="1584.8,420.2 1522.6,482.4 1098.3,58.1 1160.5,-4.1 1584.8,420.2" class="board-cut-full"/>
<polygon points="1122.4,25.0 1094.2,53.2 1518.5,477.4 1580.7,415.2 1190.5,25.0 1122.4,25.0" class="board-cut-used"/>
<polygon points="1122.4,25.0 1094.2,53.2 1518.5,477.4 1580.7,415.2 1190.5,25.0 1122.4,25.0" class="board-cut-hatch"/>

<polygon points="478.6,556.5 416.4,618.7 -7.9,194.5 54.3,132.2 478.6,556.5" class="board-cut-full"/>
<polygon points="25.0,228.4 409.8,613.2 472.0,551.0 47.7,126.7 25.0,149.5 25.0,228.4" class="board-cut-used"/>
<polygon points="25.0,228.4 409.8,613.2 472.0,551.0 47.7,126.7 25.0,149.5 25.0,228.4" class="board-cut-hatch"/>

<polygon points="2461.9,3410.8 2399.7,3473.0 1975.4,3048.7 2037.6,2986.5 2461.9,3410.8" class="board-cut-full"/>
<polygon points="2450.9,3437.0 2468.9,3419.0 2044.6,2994.7 1982.4,3057.0 2362.4,3437.0 2450.9,3437.0" class="board-cut-used"/>
<polygon points="2450.9,3437.0 2468.9,3419.0 2044.6,2994.7 1982.4,3057.0 2362.4,3437.0 2450.9,3437.0" class="board-cut-hatch"/>

<polygon points="2572.4,412.5 2510.1,474.8 2085.9,50.5 2148.1,-11.7 2572.4,412.5" class="board-cut-full"/>
<polygon points="2095.4,25.0 2078.5,41.9 2502.8,466.1 2565.0,403.9 2186.1,25.0 2095.4,25.0" class="board-cut-used"/>
<polygon points="2095.4,25.0 2078.5,41.9 2502.8,466.1 2565.0,403.9 2186.1,25.0 2095.4,25.0" class="board-cut-hatch"/>

<polygon points="471.4,1544.6 409.2,1606.8 -15.0,1182.5 47.2,1120.3 471.4,1544.6" class="board-cut-full"/>
<polygon points="25.0,1224.1 398.5,1597.5 460.7,1535.3 36.4,1111.0 25.0,1122.4 25.0,1224.1" class="board-cut-used"/>
<polygon points="25.0,1224.1 398.5,1597.5 460.7,1535.3 36.4,1111.0 25.0,1122.4 25.0,1224.1" class="board-cut-hatch"/>

<polygon points="1473.3,3417.5 1411.1,3479.8 986.8,3055.5 1049.1,2993.3 1473.3,3417.5" class="board-cut-full"/>
<polygon points="1477.9,3437.0 1484.6,3430.3 1060.3,3006.1 998.1,3068.3 1366.8,3437.0 1477.9,3437.0" class="board-cut-used"/>
<polygon points="1477.9,3437.0 1484.6,3430.3 1060.3,3006.1 998.1,3068.3 1366.8,3437.0 1477.9,3437.0" class="board-cut-hatch"/>

<polygon points="465.3,2533.8 403.1,2596.1 -21.2,2171.8 41.0,2109.6 465.3,2533.8" class="board-cut-full"/>
<polygon points="25.0,2219.7 387.1,2581.8 449.4,2519.6 25.1,2095.3 25.0,2095.4 25.0,2219.7" class="board-cut-used"/>
<polygon points="25.0,2219.7 387.1,2581.8 449.4,2519.6 25.1,2095.3 25.0,2095.4 25.0,2219.7" class="board-cut-hatch"/>

<polygon points="484.2,3423.8 422.0,3486.0 -2.3,3061.7 60.0,2999.5 484.2,3423.8" class="board-cut-full"/>
<polygon points="25.0,3090.8 371.2,3437.0 495.6,3437.0 76.0,3017.4 25.0,3068.4 25.0,3090.8" class="board-cut-used"/>
<polygon points="25.0,3090.8 371.2,3437.0 495.6,3437.0 76.0,3017.4 25.0,3068.4 25.0,3090.8" class="board-cut-hatch"/>

<polygon points="1048.8,-24.1 1111.0,38.1 686.7,462.4 624.5,400.1 1048.8,-24.1" class="board-cut-full"/>
<polygon points="998.0,25.0 641.7,381.3 703.9,443.5 1122.4,25.0 998.0,25.0" class="board-cut-used"/>
<polygon points="998.0,25.0 641.7,381.3 703.9,443.5 1122.4,25.0 998.0,25.0" class="board-cut-hatch"/>

<polygon points="2882.9,2963.5 2820.6,3025.8 2396.4,2601.5 2458.6,2539.3 2882.9,2963.5" class="board-cut-full"/>
<polygon points="2831.0,2910.0 2480.2,2559.2 2417.9,2621.4 2831.0,3034.4 2831.0,2910.0" class="board-cut-used"/>
<polygon points="2831.0,2910.0 2480.2,2559.2 2417.9,2621.4 2831.0,3034.4 2831.0,2910.0" class="board-cut-hatch"/>

<polygon points="2888.5,1973.6 2826.3,2035.9 2402.0,1611.6 2464.2,1549.4 2888.5,1973.6" class="board-cut-full"/>
<polygon points="2831.0,1914.4 2491.5,1574.9 2429.3,1637.1 2831.0,2038.8 2831.0,1914.4" class="board-cut-used"/>
<polygon points="2831.0,1914.4 2491.5,1574.9 2429.3,1637.1 2831.0,2038.8 2831.0,1914.4" class="board-cut-hatch"/>

<polygon points="684.3,391.7 622.1,453.9 197.8,29.6 260.0,-32.6 684.3,391.7" class="board-cut-full"/>
<polygon points="194.9,25.0 596.4,426.5 658.7,364.3 319.4,25.0 194.9,25.0" class="board-cut-used"/>
<polygon points="194.9,25.0 596.4,426.5 658.7,364.3 319.4,25.0 194.9,25.0" class="board-cut-hatch"/>
<polygon points="2469.9,559.5 2407.7,621.7 2831.9,1045.9 2894.1,983.7 2831.0,920.6 2831.0,1043.2 2440.6,652.8 2501.9,591.5 2469.9,559.5" class="waste-zone"/>
<polygon points="2894.1,983.7 2831.9,1045.9 2407.7,621.7 2469.9,559.5 2894.1,983.7" class="board-cut-full"/>
<polygon points="2831.0,918.8 2502.8,590.6 2440.6,652.8 2831.0,1043.2 2831.0,918.8" class="board-cut-used"/>
<polygon points="2831.0,918.8 2502.8,590.6 2440.6,652.8 2831.0,1043.2 2831.0,918.8" class="board-cut-hatch"/>
<polygon points="1249.9,-38.2 1187.7,24.0 1612.0,448.2 1674.2,386.0 1642.1,353.9 1580.7,415.2 1190.5,25.0 1313.2,25.0 1249.9,-38.2" class="waste-zone"/>
<polygon points="1674.2,386.0 1612.0,448.2 1187.7,24.0 1249.9,-38.2 1674.2,386.0" class="board-cut-full"/>
<polygon points="1190.5,25.0 1580.7,415.2 1643.0,353.0 1315.0,25.0 1190.5,25.0" class="board-cut-used"/>
<polygon points="1190.5,25.0 1580.7,415.2 1643.0,353.0 1315.0,25.0 1190.5,25.0" class="board-cut-hatch"/>
<polygon points="383.3,709.4 445.5,647.1 21.3,222.9 -41.0,285.1 25.0,351.1 25.0,228.4 409.8,613.2 348.5,674.5 383.3,709.4" class="waste-zone"/>
<polygon points="445.5,647.1 383.3,709.4 -41.0,285.1 21.3,222.9 445.5,647.1" class="board-cut-full"/>
<polygon points="25.0,352.9 347.5,675.4 409.8,613.2 25.0,228.4 25.0,352.9" class="board-cut-used"/>
<polygon points="25.0,352.9 347.5,675.4 409.8,613.2 25.0,228.4 25.0,352.9" class="board-cut-hatch"/>
<polygon points="2308.1,3505.3 2370.3,3443.1 1946.1,3018.8 1883.9,3081.1 1921.1,3118.3 1982.4,3057.0 2362.4,3437.0 2239.8,3437.0 2308.1,3505.3" class="waste-zone"/>
<polygon points="2370.3,3443.1 2308.1,3505.3 1883.9,3081.1 1946.1,3018.8 2370.3,3443.1" class="board-cut-full"/>
<polygon points="2362.4,3437.0 1982.4,3057.0 1920.1,3119.2 2237.9,3437.0 2362.4,3437.0" class="board-cut-used"/>
<polygon points="2362.4,3437.0 1982.4,3057.0 1920.1,3119.2 2237.9,3437.0 2362.4,3437.0" class="board-cut-hatch"/>
<polygon points="-43.8,3014.6 18.4,3076.8 442.7,2652.5 380.5,2590.3 342.8,2628.0 404.1,2689.3 25.0,3068.4 25.0,2945.8 -43.8,3014.6" class="waste-zone"/>
<polygon points="380.5,2590.3 442.7,2652.5 18.4,3076.8 -43.8,3014.6 380.5,2590.3" class="board-cut-full"/>
<polygon points="25.0,3068.4 404.1,2689.3 341.9,2627.1 25.0,2943.9 25.0,3068.4" class="board-cut-used"/>
<polygon points="25.0,3068.4 404.1,2689.3 341.9,2627.1 25.0,2943.9 25.0,3068.4" class="board-cut-hatch"/>
<polygon points="2239.8,-43.9 2177.6,18.3 2601.9,442.6 2664.1,380.4 2626.3,342.6 2565.0,403.9 2186.1,25.0 2308.7,25.0 2239.8,-43.9" class="waste-zone"/>
<polygon points="2664.1,380.4 2601.9,442.6 2177.6,18.3 2239.8,-43.9 2664.1,380.4" class="board-cut-full"/>
<polygon points="2186.1,25.0 2565.0,403.9 2627.3,341.7 2310.6,25.0 2186.1,25.0" class="board-cut-used"/>
<polygon points="2186.1,25.0 2565.0,403.9 2627.3,341.7 2310.6,25.0 2186.1,25.0" class="board-cut-hatch"/>
<polygon points="377.7,1699.3 439.9,1637.1 15.6,1212.8 -46.6,1275.0 25.0,1346.6 25.0,1224.1 398.5,1597.5 337.2,1658.8 377.7,1699.3" class="waste-zone"/>
<polygon points="439.9,1637.1 377.7,1699.3 -46.6,1275.0 15.6,1212.8 439.9,1637.1" class="board-cut-full"/>
<polygon points="25.0,1348.5 336.2,1659.7 398.5,1597.5 25.0,1224.1 25.0,1348.5" class="board-cut-used"/>
<polygon points="25.0,1348.5 336.2,1659.7 398.5,1597.5 25.0,1224.1 25.0,1348.5" class="board-cut-hatch"/>
<polygon points="1318.2,3511.0 1380.4,3448.7 956.2,3024.5 894.0,3086.7 936.8,3129.6 998.1,3068.3 1366.8,3437.0 1244.3,3437.0 1318.2,3511.0" class="waste-zone"/>
<polygon points="1380.4,3448.7 1318.2,3511.0 894.0,3086.7 956.2,3024.5 1380.4,3448.7" class="board-cut-full"/>
<polygon points="1366.8,3437.0 998.1,3068.3 935.9,3130.5 1242.3,3437.0 1366.8,3437.0" class="board-cut-used"/>
<polygon points="1366.8,3437.0 998.1,3068.3 935.9,3130.5 1242.3,3437.0 1366.8,3437.0" class="board-cut-hatch"/>
<polygon points="2905.4,186.0 2843.2,123.8 2418.9,548.1 2481.2,610.3 2524.5,567.0 2463.2,505.7 2831.0,137.9 2831.0,260.5 2905.4,186.0" class="waste-zone"/>
<polygon points="2843.2,123.8 2905.4,186.0 2481.2,610.3 2418.9,548.1 2843.2,123.8" class="board-cut-full"/>
<polygon points="2831.0,137.9 2463.2,505.7 2525.4,568.0 2831.0,262.4 2831.0,137.9" class="board-cut-used"/>
<polygon points="2831.0,137.9 2463.2,505.7 2525.4,568.0 2831.0,262.4 2831.0,137.9" class="board-cut-hatch"/>
<polygon points="372.0,2689.2 434.2,2627.0 10.0,2202.7 -52.2,2264.9 25.0,2342.2 25.0,2219.7 387.1,2581.8 325.9,2643.0 372.0,2689.2" class="waste-zone"/>
<polygon points="434.2,2627.0 372.0,2689.2 -52.2,2264.9 10.0,2202.7 434.2,2627.0" class="board-cut-full"/>
<polygon points="25.0,2344.1 324.9,2644.0 387.1,2581.8 25.0,2219.7 25.0,2344.1" class="board-cut-used"/>
<polygon points="25.0,2344.1 324.9,2644.0 387.1,2581.8 25.0,2219.7 25.0,2344.1" class="board-cut-hatch"/>
<polygon points="2489.6,2446.2 2427.4,2508.4 2851.7,2932.7 2913.9,2870.4 2831.0,2787.6 2831.0,2910.0 2480.2,2559.2 2541.4,2498.0 2489.6,2446.2" class="waste-zone"/>
<polygon points="2913.9,2870.4 2851.7,2932.7 2427.4,2508.4 2489.6,2446.2 2913.9,2870.4" class="board-cut-full"/>
<polygon points="2831.0,2785.5 2542.4,2496.9 2480.2,2559.2 2831.0,2910.0 2831.0,2785.5" class="board-cut-used"/>
<polygon points="2831.0,2785.5 2542.4,2496.9 2480.2,2559.2 2831.0,2910.0 2831.0,2785.5" class="board-cut-hatch"/>
<polygon points="2495.3,1456.3 2433.0,1518.5 2857.3,1942.8 2919.5,1880.6 2831.0,1792.0 2831.0,1914.4 2491.5,1574.9 2552.7,1513.7 2495.3,1456.3" class="waste-zone"/>
<polygon points="2919.5,1880.6 2857.3,1942.8 2433.0,1518.5 2495.3,1456.3 2919.5,1880.6" class="board-cut-full"/>
<polygon points="2831.0,1789.9 2553.7,1512.7 2491.5,1574.9 2831.0,1914.4 2831.0,1789.9" class="board-cut-used"/>
<polygon points="2831.0,1789.9 2553.7,1512.7 2491.5,1574.9 2831.0,1914.4 2831.0,1789.9" class="board-cut-hatch"/>
<polygon points="353.1,-63.6 290.9,-1.4 715.1,422.9 777.4,360.6 719.8,303.1 658.7,364.3 319.4,25.0 441.7,25.0 353.1,-63.6" class="waste-zone"/>
<polygon points="777.4,360.6 715.1,422.9 290.9,-1.4 353.1,-63.6 777.4,360.6" class="board-cut-full"/>
<polygon points="319.4,25.0 658.7,364.3 720.9,302.1 443.8,25.0 319.4,25.0" class="board-cut-used"/>
<polygon points="319.4,25.0 658.7,364.3 720.9,302.1 443.8,25.0 319.4,25.0" class="board-cut-hatch"/>
<polygon points="2500.9,466.4 2438.7,528.6 2862.9,952.9 2925.2,890.7 2831.0,796.5 2831.0,918.8 2502.8,590.6 2563.9,529.4 2500.9,466.4" class="waste-zone"/>
<polygon points="2925.2,890.7 2862.9,952.9 2438.7,528.6 2500.9,466.4 2925.2,890.7" class="board-cut-full"/>
<polygon points="2831.0,794.3 2565.0,528.4 2502.8,590.6 2831.0,918.8 2831.0,794.3" class="board-cut-used"/>
<polygon points="2831.0,794.3 2565.0,528.4 2502.8,590.6 2831.0,918.8 2831.0,794.3" class="board-cut-hatch"/>
<polygon points="1343.0,-69.3 1280.8,-7.0 1705.0,417.2 1767.2,355.0 1704.1,291.9 1643.0,353.0 1315.0,25.0 1437.2,25.0 1343.0,-69.3" class="waste-zone"/>
<polygon points="1767.2,355.0 1705.0,417.2 1280.8,-7.0 1343.0,-69.3 1767.2,355.0" class="board-cut-full"/>
<polygon points="1315.0,25.0 1643.0,353.0 1705.2,290.8 1439.4,25.0 1315.0,25.0" class="board-cut-used"/>
<polygon points="1315.0,25.0 1643.0,353.0 1705.2,290.8 1439.4,25.0 1315.0,25.0" class="board-cut-hatch"/>
<polygon points="954.9,3109.3 892.7,3047.0 468.4,3471.3 530.6,3533.5 627.2,3437.0 504.9,3437.0 828.4,3113.5 889.5,3174.7 954.9,3109.3" class="waste-zone"/>
<polygon points="892.7,3047.0 954.9,3109.3 530.6,3533.5 468.4,3471.3 892.7,3047.0" class="board-cut-full"/>
<polygon points="629.4,3437.0 890.6,3175.8 828.4,3113.5 504.9,3437.0 629.4,3437.0" class="board-cut-used"/>
<polygon points="629.4,3437.0 890.6,3175.8 828.4,3113.5 504.9,3437.0 629.4,3437.0" class="board-cut-hatch"/>
<polygon points="352.3,802.4 414.5,740.2 -9.8,315.9 -72.0,378.2 25.0,475.1 25.0,352.9 347.5,675.4 286.4,736.6 352.3,802.4" class="waste-zone"/>
<polygon points="414.5,740.2 352.3,802.4 -72.0,378.2 -9.8,315.9 414.5,740.2" class="board-cut-full"/>
<polygon points="25.0,477.3 285.3,737.7 347.5,675.4 25.0,352.9 25.0,477.3" class="board-cut-used"/>
<polygon points="25.0,477.3 285.3,737.7 347.5,675.4 25.0,352.9 25.0,477.3" class="board-cut-hatch"/>
<polygon points="2215.1,3536.3 2277.3,3474.1 1853.0,3049.8 1790.8,3112.1 1859.0,3180.3 1920.1,3119.2 2237.9,3437.0 2115.7,3437.0 2215.1,3536.3" class="waste-zone"/>
<polygon points="2277.3,3474.1 2215.1,3536.3 1790.8,3112.1 1853.0,3049.8 2277.3,3474.1" class="board-cut-full"/>
<polygon points="2237.9,3437.0 1920.1,3119.2 1857.9,3181.4 2113.5,3437.0 2237.9,3437.0" class="board-cut-used"/>
<polygon points="2237.9,3437.0 1920.1,3119.2 1857.9,3181.4 2113.5,3437.0 2237.9,3437.0" class="board-cut-hatch"/>
<polygon points="-74.8,2073.0 -12.6,2135.2 411.7,1711.0 349.5,1648.7 280.8,1717.4 341.9,1778.5 25.0,2095.4 25.0,1973.2 -74.8,2073.0" class="waste-zone"/>
<polygon points="349.5,1648.7 411.7,1711.0 -12.6,2135.2 -74.8,2073.0 349.5,1648.7" class="board-cut-full"/>
<polygon points="25.0,2095.4 341.9,1778.5 279.7,1716.3 25.0,1971.0 25.0,2095.4" class="board-cut-used"/>
<polygon points="25.0,2095.4 341.9,1778.5 279.7,1716.3 25.0,1971.0 25.0,2095.4" class="board-cut-hatch"/>
<polygon points="2332.9,-74.9 2270.6,-12.7 2694.9,411.6 2757.1,349.4 2688.3,280.6 2627.3,341.7 2310.6,25.0 2432.8,25.0 2332.9,-74.9" class="waste-zone"/>
<polygon points="2757.1,349.4 2694.9,411.6 2270.6,-12.7 2332.9,-74.9 2757.1,349.4" class="board-cut-full"/>
<polygon points="2310.6,25.0 2627.3,341.7 2689.5,279.5 2435.0,25.0 2310.6,25.0" class="board-cut-used"/>
<polygon points="2310.6,25.0 2627.3,341.7 2689.5,279.5 2435.0,25.0 2310.6,25.0" class="board-cut-hatch"/>
<polygon points="350.3,3536.0 412.5,3473.8 -11.8,3049.5 -74.0,3111.7 25.0,3210.7 25.0,3090.8 371.2,3437.0 251.3,3437.0 350.3,3536.0" class="waste-zone"/>
<polygon points="412.5,3473.8 350.3,3536.0 -74.0,3111.7 -11.8,3049.5 412.5,3473.8" class="board-cut-full"/>
<polygon points="25.0,3215.3 246.7,3437.0 371.2,3437.0 25.0,3090.8 25.0,3215.3" class="board-cut-used"/>
<polygon points="25.0,3215.3 246.7,3437.0 371.2,3437.0 25.0,3090.8 25.0,3215.3" class="board-cut-hatch"/>
<polygon points="346.7,1792.3 408.9,1730.1 -15.4,1305.8 -77.6,1368.0 25.0,1470.7 25.0,1348.5 336.2,1659.7 275.2,1720.8 346.7,1792.3" class="waste-zone"/>
<polygon points="408.9,1730.1 346.7,1792.3 -77.6,1368.0 -15.4,1305.8 408.9,1730.1" class="board-cut-full"/>
<polygon points="25.0,1473.0 274.0,1722.0 336.2,1659.7 25.0,1348.5 25.0,1473.0" class="board-cut-used"/>
<polygon points="25.0,1473.0 274.0,1722.0 336.2,1659.7 25.0,1348.5 25.0,1473.0" class="board-cut-hatch"/>
<polygon points="1225.2,3542.0 1287.4,3479.7 863.2,3055.5 800.9,3117.7 874.8,3191.6 935.9,3130.5 1242.3,3437.0 1120.2,3437.0 1225.2,3542.0" class="waste-zone"/>
<polygon points="1287.4,3479.7 1225.2,3542.0 800.9,3117.7 863.2,3055.5 1287.4,3479.7" class="board-cut-full"/>
<polygon points="1242.3,3437.0 935.9,3130.5 873.6,3192.7 1117.9,3437.0 1242.3,3437.0" class="board-cut-used"/>
<polygon points="1242.3,3437.0 935.9,3130.5 873.6,3192.7 1117.9,3437.0 1242.3,3437.0" class="board-cut-hatch"/>
<polygon points="2936.4,1127.6 2874.2,1065.4 2449.9,1489.6 2512.2,1551.9 2586.5,1477.5 2525.4,1416.5 2831.0,1110.9 2831.0,1233.0 2936.4,1127.6" class="waste-zone"/>
<polygon points="2874.2,1065.4 2936.4,1127.6 2512.2,1551.9 2449.9,1489.6 2874.2,1065.4" class="board-cut-full"/>
<polygon points="2831.0,1110.9 2525.4,1416.5 2587.7,1478.7 2831.0,1235.4 2831.0,1110.9" class="board-cut-used"/>
<polygon points="2831.0,1110.9 2525.4,1416.5 2587.7,1478.7 2831.0,1235.4 2831.0,1110.9" class="board-cut-hatch"/>
<polygon points="341.0,2782.2 403.2,2720.0 -21.0,2295.7 -83.2,2357.9 25.0,2466.2 25.0,2344.1 324.9,2644.0 263.9,2705.0 341.0,2782.2" class="waste-zone"/>
<polygon points="403.2,2720.0 341.0,2782.2 -83.2,2357.9 -21.0,2295.7 403.2,2720.0" class="board-cut-full"/>
<polygon points="25.0,2468.6 262.7,2706.2 324.9,2644.0 25.0,2344.1 25.0,2468.6" class="board-cut-used"/>
<polygon points="25.0,2468.6 262.7,2706.2 324.9,2644.0 25.0,2344.1 25.0,2468.6" class="board-cut-hatch"/>
<polygon points="2520.6,2353.2 2458.4,2415.4 2882.6,2839.7 2944.9,2777.5 2831.0,2663.6 2831.0,2785.5 2542.4,2496.9 2603.4,2436.0 2520.6,2353.2" class="waste-zone"/>
<polygon points="2944.9,2777.5 2882.6,2839.7 2458.4,2415.4 2520.6,2353.2 2944.9,2777.5" class="board-cut-full"/>
<polygon points="2831.0,2661.1 2604.6,2434.7 2542.4,2496.9 2831.0,2785.5 2831.0,2661.1" class="board-cut-used"/>
<polygon points="2831.0,2661.1 2604.6,2434.7 2542.4,2496.9 2831.0,2785.5 2831.0,2661.1" class="board-cut-hatch"/>
<polygon points="2526.2,1363.3 2464.0,1425.6 2888.3,1849.8 2950.5,1787.6 2831.0,1668.1 2831.0,1789.9 2553.7,1512.7 2614.6,1451.7 2526.2,1363.3" class="waste-zone"/>
<polygon points="2950.5,1787.6 2888.3,1849.8 2464.0,1425.6 2526.2,1363.3 2950.5,1787.6" class="board-cut-full"/>
<polygon points="2831.0,1665.5 2615.9,1450.4 2553.7,1512.7 2831.0,1789.9 2831.0,1665.5" class="board-cut-used"/>
<polygon points="2831.0,1665.5 2615.9,1450.4 2553.7,1512.7 2831.0,1789.9 2831.0,1665.5" class="board-cut-hatch"/>
<polygon points="446.0,-94.6 383.8,-32.4 808.1,391.9 870.3,329.7 781.8,241.2 720.9,302.1 443.8,25.0 565.6,25.0 446.0,-94.6" class="waste-zone"/>
<polygon points="870.3,329.7 808.1,391.9 383.8,-32.4 446.0,-94.6 870.3,329.7" class="board-cut-full"/>
<polygon points="443.8,25.0 720.9,302.1 783.1,239.9 568.3,25.0 443.8,25.0" class="board-cut-used"/>
<polygon points="443.8,25.0 720.9,302.1 783.1,239.9 568.3,25.0 443.8,25.0" class="board-cut-hatch"/>
<polygon points="2531.9,373.5 2469.6,435.7 2893.9,860.0 2956.1,797.8 2831.0,672.6 2831.0,794.3 2565.0,528.4 2625.9,467.5 2531.9,373.5" class="waste-zone"/>
<polygon points="2956.1,797.8 2893.9,860.0 2469.6,435.7 2531.9,373.5 2956.1,797.8" class="board-cut-full"/>
<polygon points="2831.0,669.9 2627.3,466.1 2565.0,528.4 2831.0,794.3 2831.0,669.9" class="board-cut-used"/>
<polygon points="2831.0,669.9 2627.3,466.1 2565.0,528.4 2831.0,794.3 2831.0,669.9" class="board-cut-hatch"/>
<polygon points="1435.9,-100.2 1373.7,-38.0 1797.9,386.3 1860.2,324.0 1766.0,229.9 1705.2,290.8 1439.4,25.0 1561.1,25.0 1435.9,-100.2" class="waste-zone"/>
<polygon points="1860.2,324.0 1797.9,386.3 1373.7,-38.0 1435.9,-100.2 1860.2,324.0" class="board-cut-full"/>
<polygon points="1439.4,25.0 1705.2,290.8 1767.4,228.5 1563.9,25.0 1439.4,25.0" class="board-cut-used"/>
<polygon points="1439.4,25.0 1705.2,290.8 1767.4,228.5 1563.9,25.0 1439.4,25.0" class="board-cut-hatch"/>
<polygon points="1896.3,3140.2 1834.1,3078.0 1409.8,3502.3 1472.1,3564.5 1599.5,3437.0 1477.9,3437.0 1739.1,3175.8 1800.0,3236.6 1896.3,3140.2" class="waste-zone"/>
<polygon points="1834.1,3078.0 1896.3,3140.2 1472.1,3564.5 1409.8,3502.3 1834.1,3078.0" class="board-cut-full"/>
<polygon points="1602.3,3437.0 1801.4,3238.0 1739.1,3175.8 1477.9,3437.0 1602.3,3437.0" class="board-cut-used"/>
<polygon points="1602.3,3437.0 1801.4,3238.0 1739.1,3175.8 1477.9,3437.0 1602.3,3437.0" class="board-cut-hatch"/>
<polygon points="321.3,895.3 383.5,833.1 -40.7,408.8 -102.9,471.0 25.0,599.0 25.0,477.3 285.3,737.7 224.5,798.5 321.3,895.3" class="waste-zone"/>
<polygon points="383.5,833.1 321.3,895.3 -102.9,471.0 -40.7,408.8 383.5,833.1" class="board-cut-full"/>
<polygon points="25.0,601.8 223.1,799.9 285.3,737.7 25.0,477.3 25.0,601.8" class="board-cut-used"/>
<polygon points="25.0,601.8 223.1,799.9 285.3,737.7 25.0,477.3 25.0,601.8" class="board-cut-hatch"/>
<polygon points="2122.2,3567.3 2184.4,3505.1 1760.2,3080.8 1698.0,3143.0 1797.1,3242.2 1857.9,3181.4 2113.5,3437.0 1991.9,3437.0 2122.2,3567.3" class="waste-zone"/>
<polygon points="2184.4,3505.1 2122.2,3567.3 1698.0,3143.0 1760.2,3080.8 2184.4,3505.1" class="board-cut-full"/>
<polygon points="2113.5,3437.0 1857.9,3181.4 1795.7,3243.6 1989.0,3437.0 2113.5,3437.0" class="board-cut-used"/>
<polygon points="2113.5,3437.0 1857.9,3181.4 1795.7,3243.6 1989.0,3437.0 2113.5,3437.0" class="board-cut-hatch"/>
<polygon points="-105.8,1131.6 -43.5,1193.8 380.7,769.6 318.5,707.4 218.9,807.0 279.7,867.8 25.0,1122.4 25.0,1000.9 -105.8,1131.6" class="waste-zone"/>
<polygon points="318.5,707.4 380.7,769.6 -43.5,1193.8 -105.8,1131.6 318.5,707.4" class="board-cut-full"/>
<polygon points="25.0,1122.4 279.7,867.8 217.4,805.5 25.0,998.0 25.0,1122.4" class="board-cut-used"/>
<polygon points="25.0,1122.4 279.7,867.8 217.4,805.5 25.0,998.0 25.0,1122.4" class="board-cut-hatch"/>
<polygon points="2425.7,-105.8 2363.5,-43.6 2787.8,380.6 2850.0,318.4 2750.3,218.7 2689.5,279.5 2435.0,25.0 2556.6,25.0 2425.7,-105.8" class="waste-zone"/>
<polygon points="2850.0,318.4 2787.8,380.6 2363.5,-43.6 2425.7,-105.8 2850.0,318.4" class="board-cut-full"/>
<polygon points="2435.0,25.0 2689.5,279.5 2751.7,217.2 2559.5,25.0 2435.0,25.0" class="board-cut-used"/>
<polygon points="2435.0,25.0 2689.5,279.5 2751.7,217.2 2559.5,25.0 2435.0,25.0" class="board-cut-hatch"/>
<polygon points="315.7,1885.1 377.9,1822.9 -46.3,1398.7 -108.6,1460.9 25.0,1594.4 25.0,1473.0 274.0,1722.0 213.3,1782.7 315.7,1885.1" class="waste-zone"/>
<polygon points="377.9,1822.9 315.7,1885.1 -108.6,1460.9 -46.3,1398.7 377.9,1822.9" class="board-cut-full"/>
<polygon points="25.0,1597.4 211.8,1784.2 274.0,1722.0 25.0,1473.0 25.0,1597.4" class="board-cut-used"/>
<polygon points="25.0,1597.4 211.8,1784.2 274.0,1722.0 25.0,1473.0 25.0,1597.4" class="board-cut-hatch"/>
<polygon points="1132.4,3572.9 1194.6,3510.7 770.3,3086.4 708.1,3148.6 812.9,3253.4 873.6,3192.7 1117.9,3437.0 996.5,3437.0 1132.4,3572.9" class="waste-zone"/>
<polygon points="1194.6,3510.7 1132.4,3572.9 708.1,3148.6 770.3,3086.4 1194.6,3510.7" class="board-cut-full"/>
<polygon points="1117.9,3437.0 873.6,3192.7 811.4,3255.0 993.4,3437.0 1117.9,3437.0" class="board-cut-used"/>
<polygon points="1117.9,3437.0 873.6,3192.7 811.4,3255.0 993.4,3437.0 1117.9,3437.0" class="board-cut-hatch"/>
<polygon points="2967.4,2068.9 2905.1,2006.7 2480.9,2431.0 2543.1,2493.2 2648.4,2387.9 2587.7,2327.2 2831.0,2083.9 2831.0,2205.3 2967.4,2068.9" class="waste-zone"/>
<polygon points="2905.1,2006.7 2967.4,2068.9 2543.1,2493.2 2480.9,2431.0 2905.1,2006.7" class="board-cut-full"/>
<polygon points="2831.0,2083.9 2587.7,2327.2 2649.9,2389.5 2831.0,2208.3 2831.0,2083.9" class="board-cut-used"/>
<polygon points="2831.0,2083.9 2587.7,2327.2 2649.9,2389.5 2831.0,2208.3 2831.0,2083.9" class="board-cut-hatch"/>
<polygon points="310.1,2875.0 372.3,2812.8 -52.0,2388.5 -114.2,2450.7 25.0,2589.9 25.0,2468.6 262.7,2706.2 202.0,2766.9 310.1,2875.0" class="waste-zone"/>
<polygon points="372.3,2812.8 310.1,2875.0 -114.2,2450.7 -52.0,2388.5 372.3,2812.8" class="board-cut-full"/>
<polygon points="25.0,2593.0 200.5,2768.5 262.7,2706.2 25.0,2468.6 25.0,2593.0" class="board-cut-used"/>
<polygon points="25.0,2593.0 200.5,2768.5 262.7,2706.2 25.0,2468.6 25.0,2593.0" class="board-cut-hatch"/>
<polygon points="2551.5,2260.5 2489.3,2322.7 2913.6,2747.0 2975.8,2684.7 2831.0,2539.9 2831.0,2661.1 2604.6,2434.7 2665.2,2374.1 2551.5,2260.5" class="waste-zone"/>
<polygon points="2975.8,2684.7 2913.6,2747.0 2489.3,2322.7 2551.5,2260.5 2975.8,2684.7" class="board-cut-full"/>
<polygon points="2831.0,2536.6 2666.9,2372.5 2604.6,2434.7 2831.0,2661.1 2831.0,2536.6" class="board-cut-used"/>
<polygon points="2831.0,2536.6 2666.9,2372.5 2604.6,2434.7 2831.0,2661.1 2831.0,2536.6" class="board-cut-hatch"/>
<polygon points="2557.1,1270.7 2494.9,1332.9 2919.2,1757.2 2981.4,1694.9 2831.0,1544.5 2831.0,1665.5 2615.9,1450.4 2676.4,1390.0 2557.1,1270.7" class="waste-zone"/>
<polygon points="2981.4,1694.9 2919.2,1757.2 2494.9,1332.9 2557.1,1270.7 2981.4,1694.9" class="board-cut-full"/>
<polygon points="2831.0,1541.0 2678.2,1388.2 2615.9,1450.4 2831.0,1665.5 2831.0,1541.0" class="board-cut-used"/>
<polygon points="2831.0,1541.0 2678.2,1388.2 2615.9,1450.4 2831.0,1665.5 2831.0,1541.0" class="board-cut-hatch"/>
<polygon points="538.7,-125.5 476.5,-63.3 900.7,361.0 963.0,298.8 843.6,179.4 783.1,239.9 568.3,25.0 689.2,25.0 538.7,-125.5" class="waste-zone"/>
<polygon points="963.0,298.8 900.7,361.0 476.5,-63.3 538.7,-125.5 963.0,298.8" class="board-cut-full"/>
<polygon points="568.3,25.0 783.1,239.9 845.3,177.6 692.7,25.0 568.3,25.0" class="board-cut-used"/>
<polygon points="568.3,25.0 783.1,239.9 845.3,177.6 692.7,25.0 568.3,25.0" class="board-cut-hatch"/>
<polygon points="2562.7,280.9 2500.5,343.1 2924.8,767.4 2987.0,705.2 2831.0,549.2 2831.0,669.9 2627.3,466.1 2687.6,405.8 2562.7,280.9" class="waste-zone"/>
<polygon points="2987.0,705.2 2924.8,767.4 2500.5,343.1 2562.7,280.9 2987.0,705.2" class="board-cut-full"/>
<polygon points="2831.0,545.4 2689.5,403.9 2627.3,466.1 2831.0,669.9 2831.0,545.4" class="board-cut-used"/>
<polygon points="2831.0,545.4 2689.5,403.9 2627.3,466.1 2831.0,669.9 2831.0,545.4" class="board-cut-hatch"/>
<polygon points="1528.5,-131.1 1466.3,-68.9 1890.5,355.4 1952.7,293.2 1827.8,168.2 1767.4,228.5 1563.9,25.0 1684.6,25.0 1528.5,-131.1" class="waste-zone"/>
<polygon points="1952.7,293.2 1890.5,355.4 1466.3,-68.9 1528.5,-131.1 1952.7,293.2" class="board-cut-full"/>
<polygon points="1563.9,25.0 1767.4,228.5 1829.6,166.3 1688.3,25.0 1563.9,25.0" class="board-cut-used"/>
<polygon points="1563.9,25.0 1767.4,228.5 1829.6,166.3 1688.3,25.0 1563.9,25.0" class="board-cut-hatch"/>
<polygon points="2837.4,3171.1 2775.2,3108.8 2350.9,3533.1 2413.1,3595.3 2571.5,3437.0 2450.9,3437.0 2649.9,3238.0 2710.2,3298.3 2837.4,3171.1" class="waste-zone"/>
<polygon points="2775.2,3108.8 2837.4,3171.1 2413.1,3595.3 2350.9,3533.1 2775.2,3108.8" class="board-cut-full"/>
<polygon points="2575.3,3437.0 2712.1,3300.2 2649.9,3238.0 2450.9,3437.0 2575.3,3437.0" class="board-cut-used"/>
<polygon points="2575.3,3437.0 2712.1,3300.2 2649.9,3238.0 2450.9,3437.0 2575.3,3437.0" class="board-cut-hatch"/>
<polygon points="290.5,987.9 352.7,925.6 -71.6,501.4 -133.8,563.6 25.0,722.4 25.0,601.8 223.1,799.9 162.8,860.2 290.5,987.9" class="waste-zone"/>
<polygon points="352.7,925.6 290.5,987.9 -133.8,563.6 -71.6,501.4 352.7,925.6" class="board-cut-full"/>
<polygon points="25.0,726.2 160.9,862.1 223.1,799.9 25.0,601.8 25.0,726.2" class="board-cut-used"/>
<polygon points="25.0,726.2 160.9,862.1 223.1,799.9 25.0,601.8 25.0,726.2" class="board-cut-hatch"/>
<polygon points="2029.7,3598.1 2091.9,3535.9 1667.7,3111.6 1605.4,3173.9 1735.5,3303.9 1795.7,3243.6 1989.0,3437.0 1868.6,3437.0 2029.7,3598.1" class="waste-zone"/>
<polygon points="2091.9,3535.9 2029.7,3598.1 1605.4,3173.9 1667.7,3111.6 2091.9,3535.9" class="board-cut-full"/>
<polygon points="1989.0,3437.0 1795.7,3243.6 1733.5,3305.9 1864.6,3437.0 1989.0,3437.0" class="board-cut-used"/>
<polygon points="1989.0,3437.0 1795.7,3243.6 1733.5,3305.9 1864.6,3437.0 1989.0,3437.0" class="board-cut-hatch"/>
<polygon points="2518.2,-136.7 2456.0,-74.5 2880.3,349.8 2942.5,287.6 2811.9,157.0 2751.7,217.2 2559.5,25.0 2679.9,25.0 2518.2,-136.7" class="waste-zone"/>
<polygon points="2942.5,287.6 2880.3,349.8 2456.0,-74.5 2518.2,-136.7 2942.5,287.6" class="board-cut-full"/>
<polygon points="2559.5,25.0 2751.7,217.2 2813.9,155.0 2683.9,25.0 2559.5,25.0" class="board-cut-used"/>
<polygon points="2559.5,25.0 2751.7,217.2 2813.9,155.0 2683.9,25.0 2559.5,25.0" class="board-cut-hatch"/>
<polygon points="289.8,3596.4 352.0,3534.2 -72.2,3110.0 -134.4,3172.2 25.0,3331.6 25.0,3215.3 246.7,3437.0 130.4,3437.0 289.8,3596.4" class="waste-zone"/>
<polygon points="352.0,3534.2 289.8,3596.4 -134.4,3172.2 -72.2,3110.0 352.0,3534.2" class="board-cut-full"/>
<polygon points="25.0,3339.7 122.3,3437.0 246.7,3437.0 25.0,3215.3 25.0,3339.7" class="board-cut-used"/>
<polygon points="25.0,3339.7 122.3,3437.0 246.7,3437.0 25.0,3215.3 25.0,3339.7" class="board-cut-hatch"/>
<polygon points="284.9,1977.6 347.1,1915.4 -77.2,1491.1 -139.4,1553.3 25.0,1717.7 25.0,1597.4 211.8,1784.2 151.6,1844.3 284.9,1977.6" class="waste-zone"/>
<polygon points="347.1,1915.4 284.9,1977.6 -139.4,1553.3 -77.2,1491.1 347.1,1915.4" class="board-cut-full"/>
<polygon points="25.0,1721.9 149.6,1846.4 211.8,1784.2 25.0,1597.4 25.0,1721.9" class="board-cut-used"/>
<polygon points="25.0,1721.9 149.6,1846.4 211.8,1784.2 25.0,1597.4 25.0,1721.9" class="board-cut-hatch"/>
<polygon points="1040.0,3603.7 1102.2,3541.5 677.9,3117.2 615.7,3179.4 751.3,3315.1 811.4,3255.0 993.4,3437.0 873.3,3437.0 1040.0,3603.7" class="waste-zone"/>
<polygon points="1102.2,3541.5 1040.0,3603.7 615.7,3179.4 677.9,3117.2 1102.2,3541.5" class="board-cut-full"/>
<polygon points="993.4,3437.0 811.4,3255.0 749.2,3317.2 869.0,3437.0 993.4,3437.0" class="board-cut-used"/>
<polygon points="993.4,3437.0 811.4,3255.0 749.2,3317.2 869.0,3437.0 993.4,3437.0" class="board-cut-hatch"/>
<polygon points="2998.2,3009.9 2935.9,2947.6 2511.7,3371.9 2573.9,3434.1 2710.0,3298.1 2649.9,3238.0 2831.0,3056.9 2831.0,3177.0 2998.2,3009.9" class="waste-zone"/>
<polygon points="2935.9,2947.6 2998.2,3009.9 2573.9,3434.1 2511.7,3371.9 2935.9,2947.6" class="board-cut-full"/>
<polygon points="2831.0,3056.9 2649.9,3238.0 2712.1,3300.2 2831.0,3181.3 2831.0,3056.9" class="board-cut-used"/>
<polygon points="2831.0,3056.9 2649.9,3238.0 2712.1,3300.2 2831.0,3181.3 2831.0,3056.9" class="board-cut-hatch"/>
<polygon points="279.3,2967.3 341.5,2905.1 -82.7,2480.8 -145.0,2543.0 25.0,2713.0 25.0,2593.0 200.5,2768.5 140.5,2828.5 279.3,2967.3" class="waste-zone"/>
<polygon points="341.5,2905.1 279.3,2967.3 -145.0,2543.0 -82.7,2480.8 341.5,2905.1" class="board-cut-full"/>
<polygon points="25.0,2717.5 138.2,2830.7 200.5,2768.5 25.0,2593.0 25.0,2717.5" class="board-cut-used"/>
<polygon points="25.0,2717.5 138.2,2830.7 200.5,2768.5 25.0,2593.0 25.0,2717.5" class="board-cut-hatch"/>
<polygon points="2582.2,2168.3 2520.0,2230.5 2944.3,2654.8 3006.5,2592.6 2831.0,2417.0 2831.0,2536.6 2666.9,2372.5 2726.7,2312.7 2582.2,2168.3" class="waste-zone"/>
<polygon points="3006.5,2592.6 2944.3,2654.8 2520.0,2230.5 2582.2,2168.3 3006.5,2592.6" class="board-cut-full"/>
<polygon points="2831.0,2412.2 2729.1,2310.3 2666.9,2372.5 2831.0,2536.6 2831.0,2412.2" class="board-cut-used"/>
<polygon points="2831.0,2412.2 2729.1,2310.3 2666.9,2372.5 2831.0,2536.6 2831.0,2412.2" class="board-cut-hatch"/>
<polygon points="2587.8,1178.7 2525.6,1240.9 2949.8,1665.2 3012.1,1602.9 2831.0,1421.9 2831.0,1541.0 2678.2,1388.2 2737.7,1328.6 2587.8,1178.7" class="waste-zone"/>
<polygon points="3012.1,1602.9 2949.8,1665.2 2525.6,1240.9 2587.8,1178.7 3012.1,1602.9" class="board-cut-full"/>
<polygon points="2831.0,1416.6 2740.4,1326.0 2678.2,1388.2 2831.0,1541.0 2831.0,1416.6" class="board-cut-used"/>
<polygon points="2831.0,1416.6 2740.4,1326.0 2678.2,1388.2 2831.0,1541.0 2831.0,1416.6" class="board-cut-hatch"/>
<polygon points="630.7,-156.2 568.5,-93.9 992.7,330.3 1055.0,268.1 904.9,118.1 845.3,177.6 692.7,25.0 811.8,25.0 630.7,-156.2" class="waste-zone"/>
<polygon points="1055.0,268.1 992.7,330.3 568.5,-93.9 630.7,-156.2 1055.0,268.1" class="board-cut-full"/>
<polygon points="692.7,25.0 845.3,177.6 907.6,115.4 817.2,25.0 692.7,25.0" class="board-cut-used"/>
<polygon points="692.7,25.0 845.3,177.6 907.6,115.4 817.2,25.0 692.7,25.0" class="board-cut-hatch"/>
<polygon points="2593.3,189.1 2531.1,251.4 2955.4,675.6 3017.6,613.4 2831.0,426.8 2831.0,545.4 2689.5,403.9 2748.8,344.6 2593.3,189.1" class="waste-zone"/>
<polygon points="3017.6,613.4 2955.4,675.6 2531.1,251.4 2593.3,189.1 3017.6,613.4" class="board-cut-full"/>
<polygon points="2831.0,421.0 2751.7,341.7 2689.5,403.9 2831.0,545.4 2831.0,421.0" class="board-cut-used"/>
<polygon points="2831.0,421.0 2751.7,341.7 2689.5,403.9 2831.0,545.4 2831.0,421.0" class="board-cut-hatch"/>
<polygon points="1620.2,-161.7 1558.0,-99.5 1982.3,324.8 2044.5,262.6 1888.9,107.0 1829.6,166.3 1688.3,25.0 1806.9,25.0 1620.2,-161.7" class="waste-zone"/>
<polygon points="2044.5,262.6 1982.3,324.8 1558.0,-99.5 1620.2,-161.7 2044.5,262.6" class="board-cut-full"/>
<polygon points="1688.3,25.0 1829.6,166.3 1891.9,104.1 1812.8,25.0 1688.3,25.0" class="board-cut-used"/>
<polygon points="1688.3,25.0 1829.6,166.3 1891.9,104.1 1812.8,25.0 1688.3,25.0" class="board-cut-hatch"/>
<polygon points="2924.7,3621.6 2986.9,3559.4 2562.7,3135.1 2500.4,3197.4 2657.7,3354.6 2717.8,3294.6 2831.0,3407.8 2831.0,3437.0 2740.1,3437.0 2924.7,3621.6" class="waste-zone"/>
<polygon points="2986.9,3559.4 2924.7,3621.6 2500.4,3197.4 2562.7,3135.1 2986.9,3559.4" class="board-cut-full"/>
<polygon points="2831.0,3437.0 2831.0,3407.8 2717.8,3294.6 2655.5,3356.8 2735.8,3437.0 2831.0,3437.0" class="board-cut-used"/>
<polygon points="2831.0,3437.0 2831.0,3407.8 2717.8,3294.6 2655.5,3356.8 2735.8,3437.0 2831.0,3437.0" class="board-cut-hatch"/>
<polygon points="259.9,1079.5 322.2,1017.2 -102.1,593.0 -164.3,655.2 25.0,844.5 25.0,726.2 160.9,862.1 101.7,921.3 259.9,1079.5" class="waste-zone"/>
<polygon points="322.2,1017.2 259.9,1079.5 -164.3,655.2 -102.1,593.0 322.2,1017.2" class="board-cut-full"/>
<polygon points="25.0,850.7 98.6,924.3 160.9,862.1 25.0,726.2 25.0,850.7" class="board-cut-used"/>
<polygon points="25.0,850.7 98.6,924.3 160.9,862.1 25.0,726.2 25.0,850.7" class="board-cut-hatch"/>
<polygon points="1938.2,3628.6 2000.4,3566.4 1576.2,3142.1 1514.0,3204.4 1674.5,3364.9 1733.5,3305.9 1864.6,3437.0 1746.6,3437.0 1938.2,3628.6" class="waste-zone"/>
<polygon points="2000.4,3566.4 1938.2,3628.6 1514.0,3204.4 1576.2,3142.1 2000.4,3566.4" class="board-cut-full"/>
<polygon points="1864.6,3437.0 1733.5,3305.9 1671.2,3368.1 1740.1,3437.0 1864.6,3437.0" class="board-cut-used"/>
<polygon points="1864.6,3437.0 1733.5,3305.9 1671.2,3368.1 1740.1,3437.0 1864.6,3437.0" class="board-cut-hatch"/>
<polygon points="254.5,2068.9 316.7,2006.6 -107.6,1582.4 -169.8,1644.6 25.0,1839.4 25.0,1721.9 149.6,1846.4 90.8,1905.2 254.5,2068.9" class="waste-zone"/>
<polygon points="316.7,2006.6 254.5,2068.9 -169.8,1644.6 -107.6,1582.4 316.7,2006.6" class="board-cut-full"/>
<polygon points="25.0,1846.3 87.3,1908.6 149.6,1846.4 25.0,1721.9 25.0,1846.3" class="board-cut-used"/>
<polygon points="25.0,1846.3 87.3,1908.6 149.6,1846.4 25.0,1721.9 25.0,1846.3" class="board-cut-hatch"/>
<polygon points="948.9,3634.1 1011.1,3571.9 586.9,3147.6 524.6,3209.8 690.6,3375.8 749.2,3317.2 869.0,3437.0 751.8,3437.0 948.9,3634.1" class="waste-zone"/>
<polygon points="1011.1,3571.9 948.9,3634.1 524.6,3209.8 586.9,3147.6 1011.1,3571.9" class="board-cut-full"/>
<polygon points="869.0,3437.0 749.2,3317.2 687.0,3379.4 744.5,3437.0 869.0,3437.0" class="board-cut-used"/>
<polygon points="869.0,3437.0 749.2,3317.2 687.0,3379.4 744.5,3437.0 869.0,3437.0" class="board-cut-hatch"/>
<polygon points="2598.7,-170.5 2536.5,-108.3 2960.7,316.0 3023.0,253.8 2831.0,61.8 2831.0,137.9 2813.9,155.0 2683.9,25.0 2794.2,25.0 2598.7,-170.5" class="waste-zone"/>
<polygon points="3023.0,253.8 2960.7,316.0 2536.5,-108.3 2598.7,-170.5 3023.0,253.8" class="board-cut-full"/>
<polygon points="2831.0,47.6 2808.4,25.0 2683.9,25.0 2813.9,155.0 2831.0,137.9 2831.0,47.6" class="board-cut-used"/>
<polygon points="2831.0,47.6 2808.4,25.0 2683.9,25.0 2813.9,155.0 2831.0,137.9 2831.0,47.6" class="board-cut-hatch"/>
<polygon points="249.0,3058.1 311.3,2995.9 -113.0,2571.6 -175.2,2633.8 25.0,2834.1 25.0,2717.5 138.2,2830.7 79.9,2889.0 249.0,3058.1" class="waste-zone"/>
<polygon points="311.3,2995.9 249.0,3058.1 -175.2,2633.8 -113.0,2571.6 311.3,2995.9" class="board-cut-full"/>
<polygon points="25.0,2841.9 76.0,2892.9 138.2,2830.7 25.0,2717.5 25.0,2841.9" class="board-cut-used"/>
<polygon points="25.0,2841.9 76.0,2892.9 138.2,2830.7 25.0,2717.5 25.0,2841.9" class="board-cut-hatch"/>
<polygon points="2607.0,3067.2 2544.7,3129.4 2969.0,3553.6 3031.2,3491.4 2831.0,3291.2 2831.0,3407.8 2717.8,3294.6 2776.1,3236.3 2607.0,3067.2" class="waste-zone"/>
<polygon points="3031.2,3491.4 2969.0,3553.6 2544.7,3129.4 2607.0,3067.2 3031.2,3491.4" class="board-cut-full"/>
<polygon points="2831.0,3283.3 2780.0,3232.3 2717.8,3294.6 2831.0,3407.8 2831.0,3283.3" class="board-cut-used"/>
<polygon points="2831.0,3283.3 2780.0,3232.3 2717.8,3294.6 2831.0,3407.8 2831.0,3283.3" class="board-cut-hatch"/>
<polygon points="2612.3,2078.2 2550.1,2140.4 2974.3,2564.6 3036.6,2502.4 2831.0,2296.9 2831.0,2412.2 2729.1,2310.3 2786.7,2252.6 2612.3,2078.2" class="waste-zone"/>
<polygon points="3036.6,2502.4 2974.3,2564.6 2550.1,2140.4 2612.3,2078.2 3036.6,2502.4" class="board-cut-full"/>
<polygon points="2831.0,2287.7 2791.3,2248.0 2729.1,2310.3 2831.0,2412.2 2831.0,2287.7" class="board-cut-used"/>
<polygon points="2831.0,2287.7 2791.3,2248.0 2729.1,2310.3 2831.0,2412.2 2831.0,2287.7" class="board-cut-hatch"/>
<polygon points="-176.8,247.5 -114.5,309.7 309.7,-114.5 247.5,-176.8 45.7,25.0 149.5,25.0 25.0,149.5 25.0,45.7 -176.8,247.5" class="waste-zone"/>
<polygon points="247.5,-176.8 309.7,-114.5 -114.5,309.7 -176.8,247.5 247.5,-176.8" class="board-cut-full"/>
<polygon points="25.0,149.5 149.5,25.0 25.0,25.0 25.0,25.0 25.0,149.5" class="board-cut-used"/>
<polygon points="25.0,149.5 149.5,25.0 25.0,25.0 25.0,25.0 25.0,149.5" class="board-cut-hatch"/>
<polygon points="2617.5,1089.5 2555.3,1151.7 2979.6,1576.0 3041.8,1513.8 2831.0,1303.0 2831.0,1416.6 2740.4,1326.0 2797.2,1269.2 2617.5,1089.5" class="waste-zone"/>
<polygon points="3041.8,1513.8 2979.6,1576.0 2555.3,1151.7 2617.5,1089.5 3041.8,1513.8" class="board-cut-full"/>
<polygon points="2831.0,1292.1 2802.6,1263.8 2740.4,1326.0 2831.0,1416.6 2831.0,1292.1" class="board-cut-used"/>
<polygon points="2831.0,1292.1 2802.6,1263.8 2740.4,1326.0 2831.0,1416.6 2831.0,1292.1" class="board-cut-hatch"/>
<polygon points="719.9,-185.9 657.6,-123.7 1081.9,300.6 1144.1,238.4 964.4,58.6 907.6,115.4 817.2,25.0 930.7,25.0 719.9,-185.9" class="waste-zone"/>
<polygon points="1144.1,238.4 1081.9,300.6 657.6,-123.7 719.9,-185.9 1144.1,238.4" class="board-cut-full"/>
<polygon points="817.2,25.0 907.6,115.4 969.8,53.2 941.6,25.0 817.2,25.0" class="board-cut-used"/>
<polygon points="817.2,25.0 907.6,115.4 969.8,53.2 941.6,25.0 817.2,25.0" class="board-cut-hatch"/>
<polygon points="2839.9,3652.4 2902.1,3590.2 2477.8,3165.9 2415.6,3228.1 2599.9,3412.4 2655.5,3356.8 2735.8,3437.0 2624.4,3437.0 2839.9,3652.4" class="waste-zone"/>
<polygon points="2902.1,3590.2 2839.9,3652.4 2415.6,3228.1 2477.8,3165.9 2902.1,3590.2" class="board-cut-full"/>
<polygon points="2735.8,3437.0 2655.5,3356.8 2593.3,3419.0 2611.3,3437.0 2735.8,3437.0" class="board-cut-used"/>
<polygon points="2735.8,3437.0 2655.5,3356.8 2593.3,3419.0 2611.3,3437.0 2735.8,3437.0" class="board-cut-hatch"/>
<polygon points="2622.5,101.5 2560.3,163.7 2984.6,588.0 3046.8,525.7 2831.0,309.9 2831.0,421.0 2751.7,341.7 2807.2,286.2 2622.5,101.5" class="waste-zone"/>
<polygon points="3046.8,525.7 2984.6,588.0 2560.3,163.7 2622.5,101.5 3046.8,525.7" class="board-cut-full"/>
<polygon points="2831.0,296.5 2813.9,279.5 2751.7,341.7 2831.0,421.0 2831.0,296.5" class="board-cut-used"/>
<polygon points="2831.0,296.5 2813.9,279.5 2751.7,341.7 2831.0,421.0 2831.0,296.5" class="board-cut-hatch"/>
<polygon points="1707.9,-190.9 1645.7,-128.7 2069.9,295.6 2132.1,233.4 1947.4,48.6 1891.9,104.1 1812.8,25.0 1923.8,25.0 1707.9,-190.9" class="waste-zone"/>
<polygon points="2132.1,233.4 2069.9,295.6 1645.7,-128.7 1707.9,-190.9 2132.1,233.4" class="board-cut-full"/>
<polygon points="1812.8,25.0 1891.9,104.1 1954.1,41.9 1937.2,25.0 1812.8,25.0" class="board-cut-used"/>
<polygon points="1812.8,25.0 1891.9,104.1 1954.1,41.9 1937.2,25.0 1812.8,25.0" class="board-cut-hatch"/>
<polygon points="231.1,1166.1 293.3,1103.8 -131.0,679.6 -193.2,741.8 25.0,960.0 25.0,850.7 98.6,924.3 44.0,979.0 231.1,1166.1" class="waste-zone"/>
<polygon points="293.3,1103.8 231.1,1166.1 -193.2,741.8 -131.0,679.6 293.3,1103.8" class="board-cut-full"/>
<polygon points="25.0,975.2 36.4,986.6 98.6,924.3 25.0,850.7 25.0,975.2" class="board-cut-used"/>
<polygon points="25.0,975.2 36.4,986.6 98.6,924.3 25.0,850.7 25.0,975.2" class="board-cut-hatch"/>
<polygon points="238.4,3647.8 300.7,3585.6 -123.6,3161.3 -185.8,3223.6 25.0,3434.4 25.0,3339.7 122.3,3437.0 27.6,3437.0 238.4,3647.8" class="waste-zone"/>
<polygon points="300.7,3585.6 238.4,3647.8 -185.8,3223.6 -123.6,3161.3 300.7,3585.6" class="board-cut-full"/>
<polygon points="25.0,3437.0 122.3,3437.0 25.0,3339.7 25.0,3437.0" class="board-cut-used"/>
<polygon points="25.0,3437.0 122.3,3437.0 25.0,3339.7 25.0,3437.0" class="board-cut-hatch"/>
<polygon points="1852.9,3657.1 1915.1,3594.9 1490.8,3170.6 1428.6,3232.8 1617.6,3421.8 1671.2,3368.1 1740.1,3437.0 1632.8,3437.0 1852.9,3657.1" class="waste-zone"/>
<polygon points="1915.1,3594.9 1852.9,3657.1 1428.6,3232.8 1490.8,3170.6 1915.1,3594.9" class="board-cut-full"/>
<polygon points="1740.1,3437.0 1671.2,3368.1 1609.0,3430.3 1615.7,3437.0 1740.1,3437.0" class="board-cut-used"/>
<polygon points="1740.1,3437.0 1671.2,3368.1 1609.0,3430.3 1615.7,3437.0 1740.1,3437.0" class="board-cut-hatch"/>
<polygon points="226.8,2151.9 289.0,2089.7 -135.2,1665.4 -197.5,1727.6 25.0,1950.1 25.0,1846.3 87.3,1908.6 35.4,1960.5 226.8,2151.9" class="waste-zone"/>
<polygon points="289.0,2089.7 226.8,2151.9 -197.5,1727.6 -135.2,1665.4 289.0,2089.7" class="board-cut-full"/>
<polygon points="25.0,1970.8 25.1,1970.9 87.3,1908.6 25.0,1846.3 25.0,1970.8" class="board-cut-used"/>
<polygon points="25.0,1970.8 25.1,1970.9 87.3,1908.6 25.0,1846.3 25.0,1970.8" class="board-cut-hatch"/>
<polygon points="868.0,3661.0 930.2,3598.8 505.9,3174.6 443.7,3236.8 636.6,3429.7 687.0,3379.4 744.5,3437.0 643.9,3437.0 868.0,3661.0" class="waste-zone"/>
<polygon points="930.2,3598.8 868.0,3661.0 443.7,3236.8 505.9,3174.6 930.2,3598.8" class="board-cut-full"/>
<polygon points="744.5,3437.0 687.0,3379.4 629.4,3437.0 744.5,3437.0" class="board-cut-used"/>
<polygon points="744.5,3437.0 687.0,3379.4 629.4,3437.0 744.5,3437.0" class="board-cut-hatch"/>
<polygon points="1795.7,224.8 1857.9,287.1 2282.2,-137.2 2220.0,-199.4 1995.5,25.0 2095.4,25.0 2038.9,81.5 1989.0,31.5 1795.7,224.8" class="waste-zone"/>
<polygon points="2220.0,-199.4 2282.2,-137.2 1857.9,287.1 1795.7,224.8 2220.0,-199.4" class="board-cut-full"/>
<polygon points="1982.5,25.0 2038.9,81.5 2095.4,25.0 1982.5,25.0" class="board-cut-used"/>
<polygon points="1982.5,25.0 2038.9,81.5 2095.4,25.0 1982.5,25.0" class="board-cut-hatch"/>
<polygon points="223.0,3136.2 285.2,3073.9 -139.0,2649.7 -201.2,2711.9 25.0,2938.1 25.0,2841.9 76.0,2892.9 27.9,2941.0 223.0,3136.2" class="waste-zone"/>
<polygon points="285.2,3073.9 223.0,3136.2 -201.2,2711.9 -139.0,2649.7 285.2,3073.9" class="board-cut-full"/>
<polygon points="25.0,2943.9 76.0,2892.9 25.0,2841.9 25.0,2943.9" class="board-cut-used"/>
<polygon points="25.0,2943.9 76.0,2892.9 25.0,2841.9 25.0,2943.9" class="board-cut-hatch"/>
<polygon points="2633.0,2989.1 2570.8,3051.3 2995.0,3475.6 3057.2,3413.4 2831.0,3187.1 2831.0,3283.3 2780.0,3232.3 2828.1,3184.2 2633.0,2989.1" class="waste-zone"/>
<polygon points="3057.2,3413.4 2995.0,3475.6 2570.8,3051.3 2633.0,2989.1 3057.2,3413.4" class="board-cut-full"/>
<polygon points="2831.0,3181.3 2780.0,3232.3 2831.0,3283.3 2831.0,3181.3" class="board-cut-used"/>
<polygon points="2831.0,3181.3 2780.0,3232.3 2831.0,3283.3 2831.0,3181.3" class="board-cut-hatch"/>
<polygon points="2636.7,2004.8 2574.5,2067.0 2998.8,2491.3 3061.0,2429.1 2636.7,2004.8" class="waste-zone"/>
<polygon points="3061.0,2429.1 2998.8,2491.3 2574.5,2067.0 2636.7,2004.8 3061.0,2429.1" class="board-cut-full"/>
<polygon points="2831.0,2208.3 2791.3,2248.0 2831.0,2287.7 2831.0,2208.3" class="board-cut-used"/>
<polygon points="2831.0,2208.3 2791.3,2248.0 2831.0,2287.7 2831.0,2208.3" class="board-cut-hatch"/>
<polygon points="2640.5,1020.5 2578.3,1082.7 3002.6,1507.0 3064.8,1444.8 2640.5,1020.5" class="waste-zone"/>
<polygon points="3064.8,1444.8 3002.6,1507.0 2578.3,1082.7 2640.5,1020.5 3064.8,1444.8" class="board-cut-full"/>
<polygon points="2831.0,1235.4 2802.6,1263.8 2831.0,1292.1 2831.0,1235.4" class="board-cut-used"/>
<polygon points="2831.0,1235.4 2802.6,1263.8 2831.0,1292.1 2831.0,1235.4" class="board-cut-hatch"/>
<polygon points="788.8,-208.9 726.6,-146.6 1150.8,277.6 1213.0,215.4 788.8,-208.9" class="waste-zone"/>
<polygon points="1213.0,215.4 1150.8,277.6 726.6,-146.6 788.8,-208.9 1213.0,215.4" class="board-cut-full"/>
<polygon points="941.6,25.0 969.8,53.2 998.0,25.0 941.6,25.0" class="board-cut-used"/>
<polygon points="941.6,25.0 969.8,53.2 998.0,25.0 941.6,25.0" class="board-cut-hatch"/>
</g></svg>