<?xml version="1.0" encoding="UTF-8"?>
<svg xmlns="http://www.w3.org/2000/svg" viewBox="0 0 1920 2160" width="1920" height="2160">
<defs>
<pattern id="hatch" width="6" height="6" patternTransform="rotate(45)" patternUnits="userSpaceOnUse">
<line x1="0" y1="0" x2="0" y2="6" stroke="#e44" stroke-width="1.5" opacity="0.35"/>
</pattern>
</defs>
<style>
  .room      { fill: #fafafa; stroke: #333; stroke-width: 3; }
  .area      { fill: none; stroke: #999; stroke-width: 1.5; stroke-dasharray: 8,4; }
  .board     { fill: #e8d5b0; stroke: #b8945c; stroke-width: 1; }
  .cut-full  { fill: none; stroke: #bbb; stroke-width: 0.8; stroke-dasharray: 3,3; }
  .cut-used  { fill: #d4b896; stroke: #c44; stroke-width: 2; }
  .cut-hatch { fill: url(#hatch); stroke: none; }
  .edge-t    { fill: none; stroke: #4a8; stroke-width: 2; }
  .edge-g    { fill: none; stroke: #c84; stroke-width: 2; stroke-dasharray: 5,3; }
  .edge-cut  { fill: none; stroke: #e44; stroke-width: 2.5; }
  .dim       { fill: #666; font-size: 11px; font-family: sans-serif; text-anchor: middle; }
  .lbl       { fill: #333; font-size: 9px; font-family: sans-serif; text-anchor: middle; dominant-baseline: central; }
  .lbl-cut   { fill: #c00; font-size: 9px; font-family: sans-serif; text-anchor: middle; dominant-baseline: central; font-weight: bold; }
  .lbl-bg    { fill: #fff; fill-opacity: 0.8; }
  .legend    { fill: #fff; stroke: #ccc; stroke-width: 1; }
  .legend-t  { font-size: 10px; font-family: sans-serif; fill: #333; }
</style>
<g transform="translate(360.0,1800.0) scale(1.2000,-1.2000)">
<polygon points="10.0,10.0 10.0,1190.0 990.0,1190.0 990.0,10.0 10.0,10.0" class="area"/>
<polygon points="0.0,0.0 1000.0,0.0 1000.0,1200.0 0.0,1200.0 0.0,0.0" class="room"/>
<rect x="-256.0" y="256.0" width="600.0" height="88.0" transform="rotate(90,44.0,300.0)" class="board"/>
<line x1="88.0" y1="0.0" x2="88.0" y2="600.0" class="edge-t"/>
<line x1="-0.0" y1="0.0" x2="0.0" y2="600.0" class="edge-g"/>
<rect x="-167.5" y="256.0" width="600.0" height="88.0" transform="rotate(90,132.5,300.0)" class="board"/>
<line x1="176.5" y1="0.0" x2="176.5" y2="600.0" class="edge-t"/>
<line x1="88.5" y1="0.0" x2="88.5" y2="600.0" class="edge-g"/>
<rect x="-79.0" y="256.0" width="600.0" height="88.0" transform="rotate(90,221.0,300.0)" class="board"/>
<line x1="265.0" y1="0.0" x2="265.0" y2="600.0" class="edge-t"/>
<line x1="177.0" y1="0.0" x2="177.0" y2="600.0" class="edge-g"/>
<rect x="264.0" y="0.0" width="600.0" height="88.0" class="board"/>
<line x1="-300.0" y1="-44.0" x2="300.0" y2="-44.0" class="edge-t"/>
<line x1="-300.0" y1="44.0" x2="300.0" y2="44.0" class="edge-g"/>
<rect x="264.0" y="88.5" width="600.0" height="88.0" class="board"/>
<line x1="-300.0" y1="-44.0" x2="300.0" y2="-44.0" class="edge-t"/>
<line x1="-300.0" y1="44.0" x2="300.0" y2="44.0" class="edge-g"/>
<rect x="264.0" y="177.0" width="600.0" height="88.0" class="board"/>
<line x1="-300.0" y1="-44.0" x2="300.0" y2="-44.0" class="edge-t"/>
<line x1="-300.0" y1="44.0" x2="300.0" y2="44.0" class="edge-g"/>
<rect x="272.0" y="256.0" width="600.0" height="88.0" transform="rotate(90,572.0,300.0)" class="board"/>
<line x1="616.0" y1="0.0" x2="616.0" y2="600.0" class="edge-t"/>
<line x1="528.0" y1="0.0" x2="528.0" y2="600.0" class="edge-g"/>
<rect x="360.5" y="256.0" width="600.0" height="88.0" transform="rotate(90,660.5,300.0)" class="board"/>
<line x1="704.5" y1="0.0" x2="704.5" y2="600.0" class="edge-t"/>
<line x1="616.5" y1="0.0" x2="616.5" y2="600.0" class="edge-g"/>
<rect x="449.0" y="256.0" width="600.0" height="88.0" transform="rotate(90,749.0,300.0)" class="board"/>
<line x1="793.0" y1="0.0" x2="793.0" y2="600.0" class="edge-t"/>
<line x1="705.0" y1="0.0" x2="705.0" y2="600.0" class="edge-g"/>
<polygon points="1392.0,0.0 1392.0,88.0 792.0,88.0 792.0,0.0 1392.0,0.0" class="cut-full"/>
<polygon points="1000.0,0.0 792.0,0.0 792.0,88.0 1000.0,88.0 1000.0,0.0" class="cut-used"/>
<polygon points="1000.0,0.0 792.0,0.0 792.0,88.0 1000.0,88.0 1000.0,0.0" class="cut-hatch"/>
<line x1="1000.0" y1="0.0" x2="792.0" y2="0.0" class="edge-cut"/>
<line x1="792.0" y1="0.0" x2="792.0" y2="88.0" class="edge-cut"/>
<line x1="792.0" y1="88.0" x2="1000.0" y2="88.0" class="edge-cut"/>
<line x1="1000.0" y1="88.0" x2="1000.0" y2="0.0" class="edge-cut"/>
<line x1="-300.0" y1="-44.0" x2="300.0" y2="-44.0" class="edge-t"/>
<line x1="-300.0" y1="44.0" x2="300.0" y2="44.0" class="edge-g"/>
<polygon points="1392.0,88.5 1392.0,176.5 792.0,176.5 792.0,88.5 1392.0,88.5" class="cut-full"/>
<polygon points="1000.0,88.5 792.0,88.5 792.0,176.5 1000.0,176.5 1000.0,88.5" class="cut-used"/>
<polygon points="1000.0,88.5 792.0,88.5 792.0,176.5 1000.0,176.5 1000.0,88.5" class="cut-hatch"/>
<line x1="1000.0" y1="88.5" x2="792.0" y2="88.5" class="edge-cut"/>
<line x1="792.0" y1="88.5" x2="792.0" y2="176.5" class="edge-cut"/>
<line x1="792.0" y1="176.5" x2="1000.0" y2="176.5" class="edge-cut"/>
<line x1="1000.0" y1="176.5" x2="1000.0" y2="88.5" class="edge-cut"/>
<line x1="-300.0" y1="-44.0" x2="300.0" y2="-44.0" class="edge-t"/>
<line x1="-300.0" y1="44.0" x2="300.0" y2="44.0" class="edge-g"/>
<polygon points="1392.0,177.0 1392.0,265.0 792.0,265.0 792.0,177.0 1392.0,177.0" class="cut-full"/>
<polygon points="1000.0,177.0 792.0,177.0 792.0,265.0 1000.0,265.0 1000.0,177.0" class="cut-used"/>
<polygon points="1000.0,177.0 792.0,177.0 792.0,265.0 1000.0,265.0 1000.0,177.0" class="cut-hatch"/>
<line x1="1000.0" y1="177.0" x2="792.0" y2="177.0" class="edge-cut"/>
<line x1="792.0" y1="177.0" x2="792.0" y2="265.0" class="edge-cut"/>
<line x1="792.0" y1="265.0" x2="1000.0" y2="265.0" class="edge-cut"/>
<line x1="1000.0" y1="265.0" x2="1000.0" y2="177.0" class="edge-cut"/>
<line x1="-300.0" y1="-44.0" x2="300.0" y2="-44.0" class="edge-t"/>
<line x1="-300.0" y1="44.0" x2="300.0" y2="44.0" class="edge-g"/>
<rect x="0.0" y="264.0" width="600.0" height="88.0" class="board"/>
<line x1="-300.0" y1="-44.0" x2="300.0" y2="-44.0" class="edge-t"/>
<line x1="-300.0" y1="44.0" x2="300.0" y2="44.0" class="edge-g"/>
<rect x="0.0" y="352.5" width="600.0" height="88.0" class="board"/>
<line x1="-300.0" y1="-44.0" x2="300.0" y2="-44.0" class="edge-t"/>
<line x1="-300.0" y1="44.0" x2="300.0" y2="44.0" class="edge-g"/>
<rect x="0.0" y="441.0" width="600.0" height="88.0" class="board"/>
<line x1="-300.0" y1="-44.0" x2="300.0" y2="-44.0" class="edge-t"/>
<line x1="-300.0" y1="44.0" x2="300.0" y2="44.0" class="edge-g"/>
<rect x="8.0" y="520.0" width="600.0" height="88.0" transform="rotate(90,308.0,564.0)" class="board"/>
<line x1="352.0" y1="264.0" x2="352.0" y2="864.0" class="edge-t"/>
<line x1="264.0" y1="264.0" x2="264.0" y2="864.0" class="edge-g"/>
<rect x="96.5" y="520.0" width="600.0" height="88.0" transform="rotate(90,396.5,564.0)" class="board"/>
<line x1="440.5" y1="264.0" x2="440.5" y2="864.0" class="edge-t"/>
<line x1="352.5" y1="264.0" x2="352.5" y2="864.0" class="edge-g"/>
<rect x="185.0" y="520.0" width="600.0" height="88.0" transform="rotate(90,485.0,564.0)" class="board"/>
<line x1="529.0" y1="264.0" x2="529.0" y2="864.0" class="edge-t"/>
<line x1="441.0" y1="264.0" x2="441.0" y2="864.0" class="edge-g"/>
<polygon points="1128.0,264.0 1128.0,352.0 528.0,352.0 528.0,264.0 1128.0,264.0" class="cut-full"/>
<polygon points="1000.0,264.0 528.0,264.0 528.0,352.0 1000.0,352.0 1000.0,264.0" class="cut-used"/>
<polygon points="1000.0,264.0 528.0,264.0 528.0,352.0 1000.0,352.0 1000.0,264.0" class="cut-hatch"/>
<line x1="1000.0" y1="264.0" x2="528.0" y2="264.0" class="edge-cut"/>
<line x1="528.0" y1="264.0" x2="528.0" y2="352.0" class="edge-cut"/>
<line x1="528.0" y1="352.0" x2="1000.0" y2="352.0" class="edge-cut"/>
<line x1="1000.0" y1="352.0" x2="1000.0" y2="264.0" class="edge-cut"/>
<line x1="-300.0" y1="-44.0" x2="300.0" y2="-44.0" class="edge-t"/>
<line x1="-300.0" y1="44.0" x2="300.0" y2="44.0" class="edge-g"/>
<polygon points="1128.0,352.5 1128.0,440.5 528.0,440.5 528.0,352.5 1128.0,352.5" class="cut-full"/>
<polygon points="1000.0,352.5 528.0,352.5 528.0,440.5 1000.0,440.5 1000.0,352.5" class="cut-used"/>
<polygon points="1000.0,352.5 528.0,352.5 528.0,440.5 1000.0,440.5 1000.0,352.5" class="cut-hatch"/>
<line x1="1000.0" y1="352.5" x2="528.0" y2="352.5" class="edge-cut"/>
<line x1="528.0" y1="352.5" x2="528.0" y2="440.5" class="edge-cut"/>
<line x1="528.0" y1="440.5" x2="1000.0" y2="440.5" class="edge-cut"/>
<line x1="1000.0" y1="440.5" x2="1000.0" y2="352.5" class="edge-cut"/>
<line x1="-300.0" y1="-44.0" x2="300.0" y2="-44.0" class="edge-t"/>
<line x1="-300.0" y1="44.0" x2="300.0" y2="44.0" class="edge-g"/>
<polygon points="1128.0,441.0 1128.0,529.0 528.0,529.0 528.0,441.0 1128.0,441.0" class="cut-full"/>
<polygon points="1000.0,441.0 528.0,441.0 528.0,529.0 1000.0,529.0 1000.0,441.0" class="cut-used"/>
<polygon points="1000.0,441.0 528.0,441.0 528.0,529.0 1000.0,529.0 1000.0,441.0" class="cut-hatch"/>
<line x1="1000.0" y1="441.0" x2="528.0" y2="441.0" class="edge-cut"/>
<line x1="528.0" y1="441.0" x2="528.0" y2="529.0" class="edge-cut"/>
<line x1="528.0" y1="529.0" x2="1000.0" y2="529.0" class="edge-cut"/>
<line x1="1000.0" y1="529.0" x2="1000.0" y2="441.0" class="edge-cut"/>
<line x1="-300.0" y1="-44.0" x2="300.0" y2="-44.0" class="edge-t"/>
<line x1="-300.0" y1="44.0" x2="300.0" y2="44.0" class="edge-g"/>
<rect x="536.0" y="520.0" width="600.0" height="88.0" transform="rotate(90,836.0,564.0)" class="board"/>
<line x1="880.0" y1="264.0" x2="880.0" y2="864.0" class="edge-t"/>
<line x1="792.0" y1="264.0" x2="792.0" y2="864.0" class="edge-g"/>
<rect x="624.5" y="520.0" width="600.0" height="88.0" transform="rotate(90,924.5,564.0)" class="board"/>
<line x1="968.5" y1="264.0" x2="968.5" y2="864.0" class="edge-t"/>
<line x1="880.5" y1="264.0" x2="880.5" y2="864.0" class="edge-g"/>
<polygon points="1057.0,864.0 969.0,864.0 969.0,264.0 1057.0,264.0 1057.0,864.0" class="cut-full"/>
<polygon points="1000.0,264.0 969.0,264.0 969.0,864.0 1000.0,864.0 1000.0,264.0" class="cut-used"/>
<polygon points="1000.0,264.0 969.0,264.0 969.0,864.0 1000.0,864.0 1000.0,264.0" class="cut-hatch"/>
<line x1="1000.0" y1="264.0" x2="969.0" y2="264.0" class="edge-cut"/>
<line x1="969.0" y1="264.0" x2="969.0" y2="864.0" class="edge-cut"/>
<line x1="969.0" y1="864.0" x2="1000.0" y2="864.0" class="edge-cut"/>
<line x1="1000.0" y1="864.0" x2="1000.0" y2="264.0" class="edge-cut"/>
<line x1="1057.0" y1="264.0" x2="1057.0" y2="864.0" class="edge-t"/>
<line x1="969.0" y1="264.0" x2="969.0" y2="864.0" class="edge-g"/>
<rect x="-256.0" y="784.0" width="600.0" height="88.0" transform="rotate(90,44.0,828.0)" class="board"/>
<line x1="88.0" y1="528.0" x2="88.0" y2="1128.0" class="edge-t"/>
<line x1="-0.0" y1="528.0" x2="0.0" y2="1128.0" class="edge-g"/>
<rect x="-167.5" y="784.0" width="600.0" height="88.0" transform="rotate(90,132.5,828.0)" class="board"/>
<line x1="176.5" y1="528.0" x2="176.5" y2="1128.0" class="edge-t"/>
<line x1="88.5" y1="528.0" x2="88.5" y2="1128.0" class="edge-g"/>
<rect x="-79.0" y="784.0" width="600.0" height="88.0" transform="rotate(90,221.0,828.0)" class="board"/>
<line x1="265.0" y1="528.0" x2="265.0" y2="1128.0" class="edge-t"/>
<line x1="177.0" y1="528.0" x2="177.0" y2="1128.0" class="edge-g"/>
<rect x="264.0" y="528.0" width="600.0" height="88.0" class="board"/>
<line x1="-300.0" y1="-44.0" x2="300.0" y2="-44.0" class="edge-t"/>
<line x1="-300.0" y1="44.0" x2="300.0" y2="44.0" class="edge-g"/>
<rect x="264.0" y="616.5" width="600.0" height="88.0" class="board"/>
<line x1="-300.0" y1="-44.0" x2="300.0" y2="-44.0" class="edge-t"/>
<line x1="-300.0" y1="44.0" x2="300.0" y2="44.0" class="edge-g"/>
<rect x="264.0" y="705.0" width="600.0" height="88.0" class="board"/>
<line x1="-300.0" y1="-44.0" x2="300.0" y2="-44.0" class="edge-t"/>
<line x1="-300.0" y1="44.0" x2="300.0" y2="44.0" class="edge-g"/>
<rect x="272.0" y="784.0" width="600.0" height="88.0" transform="rotate(90,572.0,828.0)" class="board"/>
<line x1="616.0" y1="528.0" x2="616.0" y2="1128.0" class="edge-t"/>
<line x1="528.0" y1="528.0" x2="528.0" y2="1128.0" class="edge-g"/>
<rect x="360.5" y="784.0" width="600.0" height="88.0" transform="rotate(90,660.5,828.0)" class="board"/>
<line x1="704.5" y1="528.0" x2="704.5" y2="1128.0" class="edge-t"/>
<line x1="616.5" y1="528.0" x2="616.5" y2="1128.0" class="edge-g"/>
<rect x="449.0" y="784.0" width="600.0" height="88.0" transform="rotate(90,749.0,828.0)" class="board"/>
<line x1="793.0" y1="528.0" x2="793.0" y2="1128.0" class="edge-t"/>
<line x1="705.0" y1="528.0" x2="705.0" y2="1128.0" class="edge-g"/>
<polygon points="1392.0,528.0 1392.0,616.0 792.0,616.0 792.0,528.0 1392.0,528.0" class="cut-full"/>
<polygon points="1000.0,528.0 792.0,528.0 792.0,616.0 1000.0,616.0 1000.0,528.0" class="cut-used"/>
<polygon points="1000.0,528.0 792.0,528.0 792.0,616.0 1000.0,616.0 1000.0,528.0" class="cut-hatch"/>
<line x1="1000.0" y1="528.0" x2="792.0" y2="528.0" class="edge-cut"/>
<line x1="792.0" y1="528.0" x2="792.0" y2="616.0" class="edge-cut"/>
<line x1="792.0" y1="616.0" x2="1000.0" y2="616.0" class="edge-cut"/>
<line x1="1000.0" y1="616.0" x2="1000.0" y2="528.0" class="edge-cut"/>
<line x1="-300.0" y1="-44.0" x2="300.0" y2="-44.0" class="edge-t"/>
<line x1="-300.0" y1="44.0" x2="300.0" y2="44.0" class="edge-g"/>
<polygon points="1392.0,616.5 1392.0,704.5 792.0,704.5 792.0,616.5 1392.0,616.5" class="cut-full"/>
<polygon points="1000.0,616.5 792.0,616.5 792.0,704.5 1000.0,704.5 1000.0,616.5" class="cut-used"/>
<polygon points="1000.0,616.5 792.0,616.5 792.0,704.5 1000.0,704.5 1000.0,616.5" class="cut-hatch"/>
<line x1="1000.0" y1="616.5" x2="792.0" y2="616.5" class="edge-cut"/>
<line x1="792.0" y1="616.5" x2="792.0" y2="704.5" class="edge-cut"/>
<line x1="792.0" y1="704.5" x2="1000.0" y2="704.5" class="edge-cut"/>
<line x1="1000.0" y1="704.5" x2="1000.0" y2="616.5" class="edge-cut"/>
<line x1="-300.0" y1="-44.0" x2="300.0" y2="-44.0" class="edge-t"/>
<line x1="-300.0" y1="44.0" x2="300.0" y2="44.0" class="edge-g"/>
<polygon points="1392.0,705.0 1392.0,793.0 792.0,793.0 792.0,705.0 1392.0,705.0" class="cut-full"/>
<polygon points="1000.0,705.0 792.0,705.0 792.0,793.0 1000.0,793.0 1000.0,705.0" class="cut-used"/>
<polygon points="1000.0,705.0 792.0,705.0 792.0,793.0 1000.0,793.0 1000.0,705.0" class="cut-hatch"/>
<line x1="1000.0" y1="705.0" x2="792.0" y2="705.0" class="edge-cut"/>
<line x1="792.0" y1="705.0" x2="792.0" y2="793.0" class="edge-cut"/>
<line x1="792.0" y1="793.0" x2="1000.0" y2="793.0" class="edge-cut"/>
<line x1="1000.0" y1="793.0" x2="1000.0" y2="705.0" class="edge-cut"/>
<line x1="-300.0" y1="-44.0" x2="300.0" y2="-44.0" class="edge-t"/>
<line x1="-300.0" y1="44.0" x2="300.0" y2="44.0" class="edge-g"/>
<rect x="0.0" y="792.0" width="600.0" height="88.0" class="board"/>
<line x1="-300.0" y1="-44.0" x2="300.0" y2="-44.0" class="edge-t"/>
<line x1="-300.0" y1="44.0" x2="300.0" y2="44.0" class="edge-g"/>
<rect x="0.0" y="880.5" width="600.0" height="88.0" class="board"/>
<line x1="-300.0" y1="-44.0" x2="300.0" y2="-44.0" class="edge-t"/>
<line x1="-300.0" y1="44.0" x2="300.0" y2="44.0" class="edge-g"/>
<rect x="0.0" y="969.0" width="600.0" height="88.0" class="board"/>
<line x1="-300.0" y1="-44.0" x2="300.0" y2="-44.0" class="edge-t"/>
<line x1="-300.0" y1="44.0" x2="300.0" y2="44.0" class="edge-g"/>
<polygon points="352.0,1392.0 264.0,1392.0 264.0,792.0 352.0,792.0 352.0,1392.0" class="cut-full"/>
<polygon points="352.0,1200.0 352.0,792.0 264.0,792.0 264.0,1200.0 352.0,1200.0" class="cut-used"/>
<polygon points="352.0,1200.0 352.0,792.0 264.0,792.0 264.0,1200.0 352.0,1200.0" class="cut-hatch"/>
<line x1="352.0" y1="1200.0" x2="352.0" y2="792.0" class="edge-cut"/>
<line x1="352.0" y1="792.0" x2="264.0" y2="792.0" class="edge-cut"/>
<line x1="264.0" y1="792.0" x2="264.0" y2="1200.0" class="edge-cut"/>
<line x1="264.0" y1="1200.0" x2="352.0" y2="1200.0" class="edge-cut"/>
<line x1="352.0" y1="792.0" x2="352.0" y2="1392.0" class="edge-t"/>
<line x1="264.0" y1="792.0" x2="264.0" y2="1392.0" class="edge-g"/>
<polygon points="440.5,1392.0 352.5,1392.0 352.5,792.0 440.5,792.0 440.5,1392.0" class="cut-full"/>
<polygon points="440.5,1200.0 440.5,792.0 352.5,792.0 352.5,1200.0 440.5,1200.0" class="cut-used"/>
<polygon points="440.5,1200.0 440.5,792.0 352.5,792.0 352.5,1200.0 440.5,1200.0" class="cut-hatch"/>
<line x1="440.5" y1="1200.0" x2="440.5" y2="792.0" class="edge-cut"/>
<line x1="440.5" y1="792.0" x2="352.5" y2="792.0" class="edge-cut"/>
<line x1="352.5" y1="792.0" x2="352.5" y2="1200.0" class="edge-cut"/>
<line x1="352.5" y1="1200.0" x2="440.5" y2="1200.0" class="edge-cut"/>
<line x1="440.5" y1="792.0" x2="440.5" y2="1392.0" class="edge-t"/>
<line x1="352.5" y1="792.0" x2="352.5" y2="1392.0" class="edge-g"/>
<polygon points="529.0,1392.0 441.0,1392.0 441.0,792.0 529.0,792.0 529.0,1392.0" class="cut-full"/>
<polygon points="529.0,1200.0 529.0,792.0 441.0,792.0 441.0,1200.0 529.0,1200.0" class="cut-used"/>
<polygon points="529.0,1200.0 529.0,792.0 441.0,792.0 441.0,1200.0 529.0,1200.0" class="cut-hatch"/>
<line x1="529.0" y1="1200.0" x2="529.0" y2="792.0" class="edge-cut"/>
<line x1="529.0" y1="792.0" x2="441.0" y2="792.0" class="edge-cut"/>
<line x1="441.0" y1="792.0" x2="441.0" y2="1200.0" class="edge-cut"/>
<line x1="441.0" y1="1200.0" x2="529.0" y2="1200.0" class="edge-cut"/>
<line x1="529.0" y1="792.0" x2="529.0" y2="1392.0" class="edge-t"/>
<line x1="441.0" y1="792.0" x2="441.0" y2="1392.0" class="edge-g"/>
<polygon points="1128.0,792.0 1128.0,880.0 528.0,880.0 528.0,792.0 1128.0,792.0" class="cut-full"/>
<polygon points="1000.0,792.0 528.0,792.0 528.0,880.0 1000.0,880.0 1000.0,792.0" class="cut-used"/>
<polygon points="1000.0,792.0 528.0,792.0 528.0,880.0 1000.0,880.0 1000.0,792.0" class="cut-hatch"/>
<line x1="1000.0" y1="792.0" x2="528.0" y2="792.0" class="edge-cut"/>
<line x1="528.0" y1="792.0" x2="528.0" y2="880.0" class="edge-cut"/>
<line x1="528.0" y1="880.0" x2="1000.0" y2="880.0" class="edge-cut"/>
<line x1="1000.0" y1="880.0" x2="1000.0" y2="792.0" class="edge-cut"/>
<line x1="-300.0" y1="-44.0" x2="300.0" y2="-44.0" class="edge-t"/>
<line x1="-300.0" y1="44.0" x2="300.0" y2="44.0" class="edge-g"/>
<polygon points="1128.0,880.5 1128.0,968.5 528.0,968.5 528.0,880.5 1128.0,880.5" class="cut-full"/>
<polygon points="1000.0,880.5 528.0,880.5 528.0,968.5 1000.0,968.5 1000.0,880.5" class="cut-used"/>
<polygon points="1000.0,880.5 528.0,880.5 528.0,968.5 1000.0,968.5 1000.0,880.5" class="cut-hatch"/>
<line x1="1000.0" y1="880.5" x2="528.0" y2="880.5" class="edge-cut"/>
<line x1="528.0" y1="880.5" x2="528.0" y2="968.5" class="edge-cut"/>
<line x1="528.0" y1="968.5" x2="1000.0" y2="968.5" class="edge-cut"/>
<line x1="1000.0" y1="968.5" x2="1000.0" y2="880.5" class="edge-cut"/>
<line x1="-300.0" y1="-44.0" x2="300.0" y2="-44.0" class="edge-t"/>
<line x1="-300.0" y1="44.0" x2="300.0" y2="44.0" class="edge-g"/>
<polygon points="1128.0,969.0 1128.0,1057.0 528.0,1057.0 528.0,969.0 1128.0,969.0" class="cut-full"/>
<polygon points="1000.0,969.0 528.0,969.0 528.0,1057.0 1000.0,1057.0 1000.0,969.0" class="cut-used"/>
<polygon points="1000.0,969.0 528.0,969.0 528.0,1057.0 1000.0,1057.0 1000.0,969.0" class="cut-hatch"/>
<line x1="1000.0" y1="969.0" x2="528.0" y2="969.0" class="edge-cut"/>
<line x1="528.0" y1="969.0" x2="528.0" y2="1057.0" class="edge-cut"/>
<line x1="528.0" y1="1057.0" x2="1000.0" y2="1057.0" class="edge-cut"/>
<line x1="1000.0" y1="1057.0" x2="1000.0" y2="969.0" class="edge-cut"/>
<line x1="-300.0" y1="-44.0" x2="300.0" y2="-44.0" class="edge-t"/>
<line x1="-300.0" y1="44.0" x2="300.0" y2="44.0" class="edge-g"/>
<polygon points="880.0,1392.0 792.0,1392.0 792.0,792.0 880.0,792.0 880.0,1392.0" class="cut-full"/>
<polygon points="880.0,1200.0 880.0,792.0 792.0,792.0 792.0,1200.0 880.0,1200.0" class="cut-used"/>
<polygon points="880.0,1200.0 880.0,792.0 792.0,792.0 792.0,1200.0 880.0,1200.0" class="cut-hatch"/>
<line x1="880.0" y1="1200.0" x2="880.0" y2="792.0" class="edge-cut"/>
<line x1="880.0" y1="792.0" x2="792.0" y2="792.0" class="edge-cut"/>
<line x1="792.0" y1="792.0" x2="792.0" y2="1200.0" class="edge-cut"/>
<line x1="792.0" y1="1200.0" x2="880.0" y2="1200.0" class="edge-cut"/>
<line x1="880.0" y1="792.0" x2="880.0" y2="1392.0" class="edge-t"/>
<line x1="792.0" y1="792.0" x2="792.0" y2="1392.0" class="edge-g"/>
<polygon points="968.5,1392.0 880.5,1392.0 880.5,792.0 968.5,792.0 968.5,1392.0" class="cut-full"/>
<polygon points="968.5,1200.0 968.5,792.0 880.5,792.0 880.5,1200.0 968.5,1200.0" class="cut-used"/>
<polygon points="968.5,1200.0 968.5,792.0 880.5,792.0 880.5,1200.0 968.5,1200.0" class="cut-hatch"/>
<line x1="968.5" y1="1200.0" x2="968.5" y2="792.0" class="edge-cut"/>
<line x1="968.5" y1="792.0" x2="880.5" y2="792.0" class="edge-cut"/>
<line x1="880.5" y1="792.0" x2="880.5" y2="1200.0" class="edge-cut"/>
<line x1="880.5" y1="1200.0" x2="968.5" y2="1200.0" class="edge-cut"/>
<line x1="968.5" y1="792.0" x2="968.5" y2="1392.0" class="edge-t"/>
<line x1="880.5" y1="792.0" x2="880.5" y2="1392.0" class="edge-g"/>
<polygon points="1057.0,1392.0 969.0,1392.0 969.0,792.0 1057.0,792.0 1057.0,1392.0" class="cut-full"/>
<polygon points="1000.0,1200.0 1000.0,792.0 969.0,792.0 969.0,1200.0 1000.0,1200.0" class="cut-used"/>
<polygon points="1000.0,1200.0 1000.0,792.0 969.0,792.0 969.0,1200.0 1000.0,1200.0" class="cut-hatch"/>
<line x1="1000.0" y1="1200.0" x2="1000.0" y2="792.0" class="edge-cut"/>
<line x1="1000.0" y1="792.0" x2="969.0" y2="792.0" class="edge-cut"/>
<line x1="969.0" y1="792.0" x2="969.0" y2="1200.0" class="edge-cut"/>
<line x1="969.0" y1="1200.0" x2="1000.0" y2="1200.0" class="edge-cut"/>
<line x1="1057.0" y1="792.0" x2="1057.0" y2="1392.0" class="edge-t"/>
<line x1="969.0" y1="792.0" x2="969.0" y2="1392.0" class="edge-g"/>
<polygon points="88.0,1656.0 0.0,1656.0 0.0,1056.0 88.0,1056.0 88.0,1656.0" class="cut-full"/>
<polygon points="88.0,1200.0 88.0,1056.0 0.0,1056.0 0.0,1200.0 88.0,1200.0" class="cut-used"/>
<polygon points="88.0,1200.0 88.0,1056.0 0.0,1056.0 0.0,1200.0 88.0,1200.0" class="cut-hatch"/>
<line x1="88.0" y1="1200.0" x2="88.0" y2="1056.0" class="edge-cut"/>
<line x1="88.0" y1="1056.0" x2="0.0" y2="1056.0" class="edge-cut"/>
<line x1="0.0" y1="1056.0" x2="0.0" y2="1200.0" class="edge-cut"/>
<line x1="0.0" y1="1200.0" x2="88.0" y2="1200.0" class="edge-cut"/>
<line x1="88.0" y1="1056.0" x2="88.0" y2="1656.0" class="edge-t"/>
<line x1="-0.0" y1="1056.0" x2="0.0" y2="1656.0" class="edge-g"/>
<polygon points="176.5,1656.0 88.5,1656.0 88.5,1056.0 176.5,1056.0 176.5,1656.0" class="cut-full"/>
<polygon points="176.5,1200.0 176.5,1056.0 88.5,1056.0 88.5,1200.0 176.5,1200.0" class="cut-used"/>
<polygon points="176.5,1200.0 176.5,1056.0 88.5,1056.0 88.5,1200.0 176.5,1200.0" class="cut-hatch"/>
<line x1="176.5" y1="1200.0" x2="176.5" y2="1056.0" class="edge-cut"/>
<line x1="176.5" y1="1056.0" x2="88.5" y2="1056.0" class="edge-cut"/>
<line x1="88.5" y1="1056.0" x2="88.5" y2="1200.0" class="edge-cut"/>
<line x1="88.5" y1="1200.0" x2="176.5" y2="1200.0" class="edge-cut"/>
<line x1="176.5" y1="1056.0" x2="176.5" y2="1656.0" class="edge-t"/>
<line x1="88.5" y1="1056.0" x2="88.5" y2="1656.0" class="edge-g"/>
<polygon points="265.0,1656.0 177.0,1656.0 177.0,1056.0 265.0,1056.0 265.0,1656.0" class="cut-full"/>
<polygon points="265.0,1200.0 265.0,1056.0 177.0,1056.0 177.0,1200.0 265.0,1200.0" class="cut-used"/>
<polygon points="265.0,1200.0 265.0,1056.0 177.0,1056.0 177.0,1200.0 265.0,1200.0" class="cut-hatch"/>
<line x1="265.0" y1="1200.0" x2="265.0" y2="1056.0" class="edge-cut"/>
<line x1="265.0" y1="1056.0" x2="177.0" y2="1056.0" class="edge-cut"/>
<line x1="177.0" y1="1056.0" x2="177.0" y2="1200.0" class="edge-cut"/>
<line x1="177.0" y1="1200.0" x2="265.0" y2="1200.0" class="edge-cut"/>
<line x1="265.0" y1="1056.0" x2="265.0" y2="1656.0" class="edge-t"/>
<line x1="177.0" y1="1056.0" x2="177.0" y2="1656.0" class="edge-g"/>
<rect x="264.0" y="1056.0" width="600.0" height="88.0" class="board"/>
<line x1="-300.0" y1="-44.0" x2="300.0" y2="-44.0" class="edge-t"/>
<line x1="-300.0" y1="44.0" x2="300.0" y2="44.0" class="edge-g"/>
<polygon points="864.0,1144.5 864.0,1232.5 264.0,1232.5 264.0,1144.5 864.0,1144.5" class="cut-full"/>
<polygon points="864.0,1200.0 864.0,1144.5 264.0,1144.5 264.0,1200.0 864.0,1200.0" class="cut-used"/>
<polygon points="864.0,1200.0 864.0,1144.5 264.0,1144.5 264.0,1200.0 864.0,1200.0" class="cut-hatch"/>
<line x1="864.0" y1="1200.0" x2="864.0" y2="1144.5" class="edge-cut"/>
<line x1="864.0" y1="1144.5" x2="264.0" y2="1144.5" class="edge-cut"/>
<line x1="264.0" y1="1144.5" x2="264.0" y2="1200.0" class="edge-cut"/>
<line x1="264.0" y1="1200.0" x2="864.0" y2="1200.0" class="edge-cut"/>
<line x1="-300.0" y1="-44.0" x2="300.0" y2="-44.0" class="edge-t"/>
<line x1="-300.0" y1="44.0" x2="300.0" y2="44.0" class="edge-g"/>
<polygon points="616.0,1656.0 528.0,1656.0 528.0,1056.0 616.0,1056.0 616.0,1656.0" class="cut-full"/>
<polygon points="616.0,1200.0 616.0,1056.0 528.0,1056.0 528.0,1200.0 616.0,1200.0" class="cut-used"/>
<polygon points="616.0,1200.0 616.0,1056.0 528.0,1056.0 528.0,1200.0 616.0,1200.0" class="cut-hatch"/>
<line x1="616.0" y1="1200.0" x2="616.0" y2="1056.0" class="edge-cut"/>
<line x1="616.0" y1="1056.0" x2="528.0" y2="1056.0" class="edge-cut"/>
<line x1="528.0" y1="1056.0" x2="528.0" y2="1200.0" class="edge-cut"/>
<line x1="528.0" y1="1200.0" x2="616.0" y2="1200.0" class="edge-cut"/>
<line x1="616.0" y1="1056.0" x2="616.0" y2="1656.0" class="edge-t"/>
<line x1="528.0" y1="1056.0" x2="528.0" y2="1656.0" class="edge-g"/>
<polygon points="704.5,1656.0 616.5,1656.0 616.5,1056.0 704.5,1056.0 704.5,1656.0" class="cut-full"/>
<polygon points="704.5,1200.0 704.5,1056.0 616.5,1056.0 616.5,1200.0 704.5,1200.0" class="cut-used"/>
<polygon points="704.5,1200.0 704.5,1056.0 616.5,1056.0 616.5,1200.0 704.5,1200.0" class="cut-hatch"/>
<line x1="704.5" y1="1200.0" x2="704.5" y2="1056.0" class="edge-cut"/>
<line x1="704.5" y1="1056.0" x2="616.5" y2="1056.0" class="edge-cut"/>
<line x1="616.5" y1="1056.0" x2="616.5" y2="1200.0" class="edge-cut"/>
<line x1="616.5" y1="1200.0" x2="704.5" y2="1200.0" class="edge-cut"/>
<line x1="704.5" y1="1056.0" x2="704.5" y2="1656.0" class="edge-t"/>
<line x1="616.5" y1="1056.0" x2="616.5" y2="1656.0" class="edge-g"/>
<polygon points="793.0,1656.0 705.0,1656.0 705.0,1056.0 793.0,1056.0 793.0,1656.0" class="cut-full"/>
<polygon points="793.0,1200.0 793.0,1056.0 705.0,1056.0 705.0,1200.0 793.0,1200.0" class="cut-used"/>
<polygon points="793.0,1200.0 793.0,1056.0 705.0,1056.0 705.0,1200.0 793.0,1200.0" class="cut-hatch"/>
<line x1="793.0" y1="1200.0" x2="793.0" y2="1056.0" class="edge-cut"/>
<line x1="793.0" y1="1056.0" x2="705.0" y2="1056.0" class="edge-cut"/>
<line x1="705.0" y1="1056.0" x2="705.0" y2="1200.0" class="edge-cut"/>
<line x1="705.0" y1="1200.0" x2="793.0" y2="1200.0" class="edge-cut"/>
<line x1="793.0" y1="1056.0" x2="793.0" y2="1656.0" class="edge-t"/>
<line x1="705.0" y1="1056.0" x2="705.0" y2="1656.0" class="edge-g"/>
<polygon points="1392.0,1056.0 1392.0,1144.0 792.0,1144.0 792.0,1056.0 1392.0,1056.0" class="cut-full"/>
<polygon points="1000.0,1056.0 792.0,1056.0 792.0,1144.0 1000.0,1144.0 1000.0,1056.0" class="cut-used"/>
<polygon points="1000.0,1056.0 792.0,1056.0 792.0,1144.0 1000.0,1144.0 1000.0,1056.0" class="cut-hatch"/>
<line x1="1000.0" y1="1056.0" x2="792.0" y2="1056.0" class="edge-cut"/>
<line x1="792.0" y1="1056.0" x2="792.0" y2="1144.0" class="edge-cut"/>
<line x1="792.0" y1="1144.0" x2="1000.0" y2="1144.0" class="edge-cut"/>
<line x1="1000.0" y1="1144.0" x2="1000.0" y2="1056.0" class="edge-cut"/>
<line x1="-300.0" y1="-44.0" x2="300.0" y2="-44.0" class="edge-t"/>
<line x1="-300.0" y1="44.0" x2="300.0" y2="44.0" class="edge-g"/>
<polygon points="1392.0,1144.5 1392.0,1232.5 792.0,1232.5 792.0,1144.5 1392.0,1144.5" class="cut-full"/>
<polygon points="1000.0,1200.0 1000.0,1144.5 792.0,1144.5 792.0,1200.0 1000.0,1200.0" class="cut-used"/>
<polygon points="1000.0,1200.0 1000.0,1144.5 792.0,1144.5 792.0,1200.0 1000.0,1200.0" class="cut-hatch"/>
<line x1="1000.0" y1="1200.0" x2="1000.0" y2="1144.5" class="edge-cut"/>
<line x1="1000.0" y1="1144.5" x2="792.0" y2="1144.5" class="edge-cut"/>
<line x1="792.0" y1="1144.5" x2="792.0" y2="1200.0" class="edge-cut"/>
<line x1="792.0" y1="1200.0" x2="1000.0" y2="1200.0" class="edge-cut"/>
<line x1="-300.0" y1="-44.0" x2="300.0" y2="-44.0" class="edge-t"/>
<line x1="-300.0" y1="44.0" x2="300.0" y2="44.0" class="edge-g"/>
</g>
<text x="960.0" y="1830.0" class="dim">1000mm</text>
<text x="1590.0" y="1080.0" class="dim" transform="rotate(-90,1590.0,1080.0)">1200mm</text>
<g>
<rect x="396.8" y="1426.0" width="32" height="12" rx="2" class="lbl-bg"/>
<text x="412.8" y="1435.0" class="lbl" font-size="8">源1</text>
<rect x="400.8" y="1442.0" width="24" height="9" rx="2" class="lbl-bg"/>
<text x="412.8" y="1448.0" class="dim" font-size="7">位1</text>
<rect x="503.0" y="1426.0" width="32" height="12" rx="2" class="lbl-bg"/>
<text x="519.0" y="1435.0" class="lbl" font-size="8">源2</text>
<rect x="507.0" y="1442.0" width="24" height="9" rx="2" class="lbl-bg"/>
<text x="519.0" y="1448.0" class="dim" font-size="7">位2</text>
<rect x="609.2" y="1426.0" width="32" height="12" rx="2" class="lbl-bg"/>
<text x="625.2" y="1435.0" class="lbl" font-size="8">源3</text>
<rect x="613.2" y="1442.0" width="24" height="9" rx="2" class="lbl-bg"/>
<text x="625.2" y="1448.0" class="dim" font-size="7">位3</text>
<rect x="1020.8" y="1733.2" width="32" height="12" rx="2" class="lbl-bg"/>
<text x="1036.8" y="1742.2" class="lbl" font-size="8">源4</text>
<rect x="1024.8" y="1749.2" width="24" height="9" rx="2" class="lbl-bg"/>
<text x="1036.8" y="1755.2" class="dim" font-size="7">位4</text>
<rect x="1020.8" y="1627.0" width="32" height="12" rx="2" class="lbl-bg"/>
<text x="1036.8" y="1636.0" class="lbl" font-size="8">源5</text>
<rect x="1024.8" y="1643.0" width="24" height="9" rx="2" class="lbl-bg"/>
<text x="1036.8" y="1649.0" class="dim" font-size="7">位5</text>
<rect x="1020.8" y="1520.8" width="32" height="12" rx="2" class="lbl-bg"/>
<text x="1036.8" y="1529.8" class="lbl" font-size="8">源6</text>
<rect x="1024.8" y="1536.8" width="24" height="9" rx="2" class="lbl-bg"/>
<text x="1036.8" y="1542.8" class="dim" font-size="7">位6</text>
<rect x="1030.4" y="1426.0" width="32" height="12" rx="2" class="lbl-bg"/>
<text x="1046.4" y="1435.0" class="lbl" font-size="8">源7</text>
<rect x="1034.4" y="1442.0" width="24" height="9" rx="2" class="lbl-bg"/>
<text x="1046.4" y="1448.0" class="dim" font-size="7">位7</text>
<rect x="1136.6" y="1426.0" width="32" height="12" rx="2" class="lbl-bg"/>
<text x="1152.6" y="1435.0" class="lbl" font-size="8">源8</text>
<rect x="1140.6" y="1442.0" width="24" height="9" rx="2" class="lbl-bg"/>
<text x="1152.6" y="1448.0" class="dim" font-size="7">位8</text>
<rect x="1242.8" y="1426.0" width="32" height="12" rx="2" class="lbl-bg"/>
<text x="1258.8" y="1435.0" class="lbl" font-size="8">源9</text>
<rect x="1246.8" y="1442.0" width="24" height="9" rx="2" class="lbl-bg"/>
<text x="1258.8" y="1448.0" class="dim" font-size="7">位9</text>
<rect x="1654.4" y="1733.2" width="32" height="12" rx="2" class="lbl-bg"/>
<text x="1670.4" y="1742.2" class="lbl-cut" font-size="8">源10</text>
<rect x="1658.4" y="1749.2" width="24" height="9" rx="2" class="lbl-bg"/>
<text x="1670.4" y="1755.2" class="dim" font-size="7">位10</text>
<rect x="1654.4" y="1627.0" width="32" height="12" rx="2" class="lbl-bg"/>
<text x="1670.4" y="1636.0" class="lbl-cut" font-size="8">源11</text>
<rect x="1658.4" y="1643.0" width="24" height="9" rx="2" class="lbl-bg"/>
<text x="1670.4" y="1649.0" class="dim" font-size="7">位11</text>
<rect x="1654.4" y="1520.8" width="32" height="12" rx="2" class="lbl-bg"/>
<text x="1670.4" y="1529.8" class="lbl-cut" font-size="8">源12</text>
<rect x="1658.4" y="1536.8" width="24" height="9" rx="2" class="lbl-bg"/>
<text x="1670.4" y="1542.8" class="dim" font-size="7">位12</text>
<rect x="704.0" y="1416.4" width="32" height="12" rx="2" class="lbl-bg"/>
<text x="720.0" y="1425.4" class="lbl" font-size="8">源13</text>
<rect x="708.0" y="1432.4" width="24" height="9" rx="2" class="lbl-bg"/>
<text x="720.0" y="1438.4" class="dim" font-size="7">位16</text>
<rect x="704.0" y="1310.2" width="32" height="12" rx="2" class="lbl-bg"/>
<text x="720.0" y="1319.2" class="lbl" font-size="8">源14</text>
<rect x="708.0" y="1326.2" width="24" height="9" rx="2" class="lbl-bg"/>
<text x="720.0" y="1332.2" class="dim" font-size="7">位17</text>
<rect x="704.0" y="1204.0" width="32" height="12" rx="2" class="lbl-bg"/>
<text x="720.0" y="1213.0" class="lbl" font-size="8">源15</text>
<rect x="708.0" y="1220.0" width="24" height="9" rx="2" class="lbl-bg"/>
<text x="720.0" y="1226.0" class="dim" font-size="7">位18</text>
<rect x="713.6" y="1109.2" width="32" height="12" rx="2" class="lbl-bg"/>
<text x="729.6" y="1118.2" class="lbl" font-size="8">源16</text>
<rect x="717.6" y="1125.2" width="24" height="9" rx="2" class="lbl-bg"/>
<text x="729.6" y="1131.2" class="dim" font-size="7">位19</text>
<rect x="819.8" y="1109.2" width="32" height="12" rx="2" class="lbl-bg"/>
<text x="835.8" y="1118.2" class="lbl" font-size="8">源17</text>
<rect x="823.8" y="1125.2" width="24" height="9" rx="2" class="lbl-bg"/>
<text x="835.8" y="1131.2" class="dim" font-size="7">位20</text>
<rect x="926.0" y="1109.2" width="32" height="12" rx="2" class="lbl-bg"/>
<text x="942.0" y="1118.2" class="lbl" font-size="8">源18</text>
<rect x="930.0" y="1125.2" width="24" height="9" rx="2" class="lbl-bg"/>
<text x="942.0" y="1131.2" class="dim" font-size="7">位21</text>
<rect x="1337.6" y="1416.4" width="32" height="12" rx="2" class="lbl-bg"/>
<text x="1353.6" y="1425.4" class="lbl-cut" font-size="8">源19</text>
<rect x="1341.6" y="1432.4" width="24" height="9" rx="2" class="lbl-bg"/>
<text x="1353.6" y="1438.4" class="dim" font-size="7">位22</text>
<rect x="1337.6" y="1310.2" width="32" height="12" rx="2" class="lbl-bg"/>
<text x="1353.6" y="1319.2" class="lbl-cut" font-size="8">源20</text>
<rect x="1341.6" y="1326.2" width="24" height="9" rx="2" class="lbl-bg"/>
<text x="1353.6" y="1332.2" class="dim" font-size="7">位23</text>
<rect x="1337.6" y="1204.0" width="32" height="12" rx="2" class="lbl-bg"/>
<text x="1353.6" y="1213.0" class="lbl-cut" font-size="8">源21</text>
<rect x="1341.6" y="1220.0" width="24" height="9" rx="2" class="lbl-bg"/>
<text x="1353.6" y="1226.0" class="dim" font-size="7">位24</text>
<rect x="1347.2" y="1109.2" width="32" height="12" rx="2" class="lbl-bg"/>
<text x="1363.2" y="1118.2" class="lbl" font-size="8">源22</text>
<rect x="1351.2" y="1125.2" width="24" height="9" rx="2" class="lbl-bg"/>
<text x="1363.2" y="1131.2" class="dim" font-size="7">位25</text>
<rect x="1453.4" y="1109.2" width="32" height="12" rx="2" class="lbl-bg"/>
<text x="1469.4" y="1118.2" class="lbl" font-size="8">源23</text>
<rect x="1457.4" y="1125.2" width="24" height="9" rx="2" class="lbl-bg"/>
<text x="1469.4" y="1131.2" class="dim" font-size="7">位26</text>
<rect x="1559.6" y="1109.2" width="32" height="12" rx="2" class="lbl-bg"/>
<text x="1575.6" y="1118.2" class="lbl-cut" font-size="8">源24</text>
<rect x="1563.6" y="1125.2" width="24" height="9" rx="2" class="lbl-bg"/>
<text x="1575.6" y="1131.2" class="dim" font-size="7">位27</text>
<rect x="396.8" y="792.4" width="32" height="12" rx="2" class="lbl-bg"/>
<text x="412.8" y="801.4" class="lbl" font-size="8">源25</text>
<rect x="400.8" y="808.4" width="24" height="9" rx="2" class="lbl-bg"/>
<text x="412.8" y="814.4" class="dim" font-size="7">位31</text>
<rect x="503.0" y="792.4" width="32" height="12" rx="2" class="lbl-bg"/>
<text x="519.0" y="801.4" class="lbl" font-size="8">源26</text>
<rect x="507.0" y="808.4" width="24" height="9" rx="2" class="lbl-bg"/>
<text x="519.0" y="814.4" class="dim" font-size="7">位32</text>
<rect x="609.2" y="792.4" width="32" height="12" rx="2" class="lbl-bg"/>
<text x="625.2" y="801.4" class="lbl" font-size="8">源27</text>
<rect x="613.2" y="808.4" width="24" height="9" rx="2" class="lbl-bg"/>
<text x="625.2" y="814.4" class="dim" font-size="7">位33</text>
<rect x="1020.8" y="1099.6" width="32" height="12" rx="2" class="lbl-bg"/>
<text x="1036.8" y="1108.6" class="lbl" font-size="8">源28</text>
<rect x="1024.8" y="1115.6" width="24" height="9" rx="2" class="lbl-bg"/>
<text x="1036.8" y="1121.6" class="dim" font-size="7">位34</text>
<rect x="1020.8" y="993.4" width="32" height="12" rx="2" class="lbl-bg"/>
<text x="1036.8" y="1002.4" class="lbl" font-size="8">源29</text>
<rect x="1024.8" y="1009.4" width="24" height="9" rx="2" class="lbl-bg"/>
<text x="1036.8" y="1015.4" class="dim" font-size="7">位35</text>
<rect x="1020.8" y="887.2" width="32" height="12" rx="2" class="lbl-bg"/>
<text x="1036.8" y="896.2" class="lbl" font-size="8">源30</text>
<rect x="1024.8" y="903.2" width="24" height="9" rx="2" class="lbl-bg"/>
<text x="1036.8" y="909.2" class="dim" font-size="7">位36</text>
<rect x="1030.4" y="792.4" width="32" height="12" rx="2" class="lbl-bg"/>
<text x="1046.4" y="801.4" class="lbl" font-size="8">源31</text>
<rect x="1034.4" y="808.4" width="24" height="9" rx="2" class="lbl-bg"/>
<text x="1046.4" y="814.4" class="dim" font-size="7">位37</text>
<rect x="1136.6" y="792.4" width="32" height="12" rx="2" class="lbl-bg"/>
<text x="1152.6" y="801.4" class="lbl" font-size="8">源32</text>
<rect x="1140.6" y="808.4" width="24" height="9" rx="2" class="lbl-bg"/>
<text x="1152.6" y="814.4" class="dim" font-size="7">位38</text>
<rect x="1242.8" y="792.4" width="32" height="12" rx="2" class="lbl-bg"/>
<text x="1258.8" y="801.4" class="lbl" font-size="8">源33</text>
<rect x="1246.8" y="808.4" width="24" height="9" rx="2" class="lbl-bg"/>
<text x="1258.8" y="814.4" class="dim" font-size="7">位39</text>
<rect x="1654.4" y="1099.6" width="32" height="12" rx="2" class="lbl-bg"/>
<text x="1670.4" y="1108.6" class="lbl-cut" font-size="8">源34</text>
<rect x="1658.4" y="1115.6" width="24" height="9" rx="2" class="lbl-bg"/>
<text x="1670.4" y="1121.6" class="dim" font-size="7">位40</text>
<rect x="1654.4" y="993.4" width="32" height="12" rx="2" class="lbl-bg"/>
<text x="1670.4" y="1002.4" class="lbl-cut" font-size="8">源35</text>
<rect x="1658.4" y="1009.4" width="24" height="9" rx="2" class="lbl-bg"/>
<text x="1670.4" y="1015.4" class="dim" font-size="7">位41</text>
<rect x="1654.4" y="887.2" width="32" height="12" rx="2" class="lbl-bg"/>
<text x="1670.4" y="896.2" class="lbl-cut" font-size="8">源36</text>
<rect x="1658.4" y="903.2" width="24" height="9" rx="2" class="lbl-bg"/>
<text x="1670.4" y="909.2" class="dim" font-size="7">位42</text>
<rect x="704.0" y="782.8" width="32" height="12" rx="2" class="lbl-bg"/>
<text x="720.0" y="791.8" class="lbl" font-size="8">源37</text>
<rect x="708.0" y="798.8" width="24" height="9" rx="2" class="lbl-bg"/>
<text x="720.0" y="804.8" class="dim" font-size="7">位46</text>
<rect x="704.0" y="676.6" width="32" height="12" rx="2" class="lbl-bg"/>
<text x="720.0" y="685.6" class="lbl" font-size="8">源38</text>
<rect x="708.0" y="692.6" width="24" height="9" rx="2" class="lbl-bg"/>
<text x="720.0" y="698.6" class="dim" font-size="7">位47</text>
<rect x="704.0" y="570.4" width="32" height="12" rx="2" class="lbl-bg"/>
<text x="720.0" y="579.4" class="lbl" font-size="8">源39</text>
<rect x="708.0" y="586.4" width="24" height="9" rx="2" class="lbl-bg"/>
<text x="720.0" y="592.4" class="dim" font-size="7">位48</text>
<rect x="713.6" y="475.6" width="32" height="12" rx="2" class="lbl-bg"/>
<text x="729.6" y="484.6" class="lbl-cut" font-size="8">源40</text>
<rect x="717.6" y="491.6" width="24" height="9" rx="2" class="lbl-bg"/>
<text x="729.6" y="497.6" class="dim" font-size="7">位49</text>
<rect x="819.8" y="475.6" width="32" height="12" rx="2" class="lbl-bg"/>
<text x="835.8" y="484.6" class="lbl-cut" font-size="8">源41</text>
<rect x="823.8" y="491.6" width="24" height="9" rx="2" class="lbl-bg"/>
<text x="835.8" y="497.6" class="dim" font-size="7">位50</text>
<rect x="926.0" y="475.6" width="32" height="12" rx="2" class="lbl-bg"/>
<text x="942.0" y="484.6" class="lbl-cut" font-size="8">源42</text>
<rect x="930.0" y="491.6" width="24" height="9" rx="2" class="lbl-bg"/>
<text x="942.0" y="497.6" class="dim" font-size="7">位51</text>
<rect x="1337.6" y="782.8" width="32" height="12" rx="2" class="lbl-bg"/>
<text x="1353.6" y="791.8" class="lbl-cut" font-size="8">源43</text>
<rect x="1341.6" y="798.8" width="24" height="9" rx="2" class="lbl-bg"/>
<text x="1353.6" y="804.8" class="dim" font-size="7">位52</text>
<rect x="1337.6" y="676.6" width="32" height="12" rx="2" class="lbl-bg"/>
<text x="1353.6" y="685.6" class="lbl-cut" font-size="8">源44</text>
<rect x="1341.6" y="692.6" width="24" height="9" rx="2" class="lbl-bg"/>
<text x="1353.6" y="698.6" class="dim" font-size="7">位53</text>
<rect x="1337.6" y="570.4" width="32" height="12" rx="2" class="lbl-bg"/>
<text x="1353.6" y="579.4" class="lbl-cut" font-size="8">源45</text>
<rect x="1341.6" y="586.4" width="24" height="9" rx="2" class="lbl-bg"/>
<text x="1353.6" y="592.4" class="dim" font-size="7">位54</text>
<rect x="1347.2" y="475.6" width="32" height="12" rx="2" class="lbl-bg"/>
<text x="1363.2" y="484.6" class="lbl-cut" font-size="8">源46</text>
<rect x="1351.2" y="491.6" width="24" height="9" rx="2" class="lbl-bg"/>
<text x="1363.2" y="497.6" class="dim" font-size="7">位55</text>
<rect x="1453.4" y="475.6" width="32" height="12" rx="2" class="lbl-bg"/>
<text x="1469.4" y="484.6" class="lbl-cut" font-size="8">源47</text>
<rect x="1457.4" y="491.6" width="24" height="9" rx="2" class="lbl-bg"/>
<text x="1469.4" y="497.6" class="dim" font-size="7">位56</text>
<rect x="1559.6" y="475.6" width="32" height="12" rx="2" class="lbl-bg"/>
<text x="1575.6" y="484.6" class="lbl-cut" font-size="8">源48</text>
<rect x="1563.6" y="491.6" width="24" height="9" rx="2" class="lbl-bg"/>
<text x="1575.6" y="497.6" class="dim" font-size="7">位57</text>
<rect x="396.8" y="158.8" width="32" height="12" rx="2" class="lbl-bg"/>
<text x="412.8" y="167.8" class="lbl-cut" font-size="8">源49</text>
<rect x="400.8" y="174.8" width="24" height="9" rx="2" class="lbl-bg"/>
<text x="412.8" y="180.8" class="dim" font-size="7">位61</text>
<rect x="503.0" y="158.8" width="32" height="12" rx="2" class="lbl-bg"/>
<text x="519.0" y="167.8" class="lbl-cut" font-size="8">源50</text>
<rect x="507.0" y="174.8" width="24" height="9" rx="2" class="lbl-bg"/>
<text x="519.0" y="180.8" class="dim" font-size="7">位62</text>
<rect x="609.2" y="158.8" width="32" height="12" rx="2" class="lbl-bg"/>
<text x="625.2" y="167.8" class="lbl-cut" font-size="8">源51</text>
<rect x="613.2" y="174.8" width="24" height="9" rx="2" class="lbl-bg"/>
<text x="625.2" y="180.8" class="dim" font-size="7">位63</text>
<rect x="1020.8" y="466.0" width="32" height="12" rx="2" class="lbl-bg"/>
<text x="1036.8" y="475.0" class="lbl" font-size="8">源52</text>
<rect x="1024.8" y="482.0" width="24" height="9" rx="2" class="lbl-bg"/>
<text x="1036.8" y="488.0" class="dim" font-size="7">位64</text>
<rect x="1020.8" y="359.8" width="32" height="12" rx="2" class="lbl-bg"/>
<text x="1036.8" y="368.8" class="lbl-cut" font-size="8">源53</text>
<rect x="1024.8" y="375.8" width="24" height="9" rx="2" class="lbl-bg"/>
<text x="1036.8" y="381.8" class="dim" font-size="7">位65</text>
<rect x="1030.4" y="158.8" width="32" height="12" rx="2" class="lbl-bg"/>
<text x="1046.4" y="167.8" class="lbl-cut" font-size="8">源54</text>
<rect x="1034.4" y="174.8" width="24" height="9" rx="2" class="lbl-bg"/>
<text x="1046.4" y="180.8" class="dim" font-size="7">位67</text>
<rect x="1136.6" y="158.8" width="32" height="12" rx="2" class="lbl-bg"/>
<text x="1152.6" y="167.8" class="lbl-cut" font-size="8">源55</text>
<rect x="1140.6" y="174.8" width="24" height="9" rx="2" class="lbl-bg"/>
<text x="1152.6" y="180.8" class="dim" font-size="7">位68</text>
<rect x="1242.8" y="158.8" width="32" height="12" rx="2" class="lbl-bg"/>
<text x="1258.8" y="167.8" class="lbl-cut" font-size="8">源56</text>
<rect x="1246.8" y="174.8" width="24" height="9" rx="2" class="lbl-bg"/>
<text x="1258.8" y="180.8" class="dim" font-size="7">位69</text>
<rect x="1654.4" y="466.0" width="32" height="12" rx="2" class="lbl-bg"/>
<text x="1670.4" y="475.0" class="lbl-cut" font-size="8">源57</text>
<rect x="1658.4" y="482.0" width="24" height="9" rx="2" class="lbl-bg"/>
<text x="1670.4" y="488.0" class="dim" font-size="7">位70</text>
<rect x="1654.4" y="359.8" width="32" height="12" rx="2" class="lbl-bg"/>
<text x="1670.4" y="368.8" class="lbl-cut" font-size="8">源58</text>
<rect x="1658.4" y="375.8" width="24" height="9" rx="2" class="lbl-bg"/>
<text x="1670.4" y="381.8" class="dim" font-size="7">位71</text>
</g>
<rect x="1730.0" y="2050.0" width="170" height="60" rx="4" class="legend"/><g transform="translate(1740.0,2060.0)"><line x1="0" y1="0" x2="30" y2="0" class="edge-t"/></g><text x="1780.0" y="2065.0" class="legend-t">公榫</text><g transform="translate(1740.0,2078.0)"><line x1="0" y1="10" x2="30" y2="10" class="edge-g"/></g><text x="1780.0" y="2083.0" class="legend-t">母榫</text><g transform="translate(1740.0,2096.0)"><line x1="0" y1="20" x2="30" y2="20" class="edge-cut"/></g><text x="1780.0" y="2101.0" class="legend-t">切割边</text>
</svg>